<?xml version="1.0" standalone="no"?>
<!DOCTYPE svg PUBLIC "-//W3C//DTD SVG 1.1//EN" "http://www.w3.org/Graphics/SVG/1.1/DTD/svg11.dtd" >
<svg xmlns="http://www.w3.org/2000/svg" xmlns:xlink="http://www.w3.org/1999/xlink" version="1.1">
<metadata>
Created by FontForge 20201107 at Mon Aug 12 17:55:44 2024
 By 
Copyright (c) 2018 by Alexander Slobzheninov. All rights reserved.
</metadata>
<defs>
<font id="Agrandir-Narrow" horiz-adv-x="1011" >
  <font-face 
    font-family="Agrandir Narrow"
    font-weight="400"
    font-stretch="condensed"
    units-per-em="2048"
    panose-1="0 0 5 6 0 0 0 0 0 0"
    ascent="1536"
    descent="-512"
    x-height="1034"
    cap-height="1444"
    bbox="-260 -501.776 2929 1982"
    underline-thickness="77"
    underline-position="-244"
    unicode-range="U+000D-F6C3"
  />
<missing-glyph horiz-adv-x="0" 
 />
    <glyph glyph-name=".notdef" horiz-adv-x="0" 
 />
    <glyph glyph-name=".null" horiz-adv-x="0" 
 />
    <glyph glyph-name="nonmarkingreturn" horiz-adv-x="682" 
 />
    <glyph glyph-name="NULL" horiz-adv-x="1437" 
d="M227 0v1444h985v-1444h-985zM369 127h700v1188h-700v-1188z" />
    <glyph glyph-name="NULL" horiz-adv-x="1437" 
d="M227 0v1444h985v-1444h-985zM369 127h700v1188h-700v-1188z" />
    <glyph glyph-name="CR" unicode="&#xd;" horiz-adv-x="104" 
 />
    <glyph glyph-name="space" unicode=" " horiz-adv-x="454" 
 />
    <glyph glyph-name="exclam" unicode="!" horiz-adv-x="436" 
d="M168 367l-35 690v387h172v-387l-37 -690h-100zM217 -25q-51 0 -83 32t-32 83q0 50 32 81.5t83 31.5t84 -32t33 -81q0 -51 -33 -83t-84 -32z" />
    <glyph glyph-name="quotedbl" unicode="&#x22;" horiz-adv-x="489" 
d="M84 868l2 576h78v-576h-80zM326 868l2 576h78v-576h-80z" />
    <glyph glyph-name="numbersign" unicode="#" horiz-adv-x="1849" 
d="M492 -20l-76 20l135 500h-490v78h512l107 397h-516v78h536l123 454l76 -18l-117 -436h402l121 454l73 -20l-114 -434h522l2 -78h-545l-106 -397h549l-3 -78h-567l-137 -520l-76 18l133 502h-403zM651 578h406l106 397h-403z" />
    <glyph glyph-name="dollar" unicode="$" horiz-adv-x="1144" 
d="M737 780q187 -56 276.5 -150.5t90.5 -242.5q0 -187 -135 -308.5t-363 -121.5v-223h-78v227q-211 23 -344 158.5t-143 339.5l168 33q4 -149 92 -250.5t227 -126.5v553l-79 24q-174 54 -255 145.5t-81 233.5q0 176 111.5 291.5t303.5 124.5v192h78v-194q178 -15 289 -128.5
t125 -291.5l-164 -39q-6 125 -74 207.5t-176 97.5v-512zM514 848l14 -4v489q-112 -7 -178.5 -75t-66.5 -168q0 -91 54.5 -148t176.5 -94zM610 109q146 0 234 74.5t88 187.5q0 91 -62 152t-198 102l-66 20v-536h4z" />
    <glyph glyph-name="percent" unicode="%" horiz-adv-x="1984" 
d="M504 -20l-64 45l1057 1501l66 -45zM471 690q-179 0 -295 115.5t-115 292.5q0 179 116 295t294 116q179 0 294.5 -115.5t115.5 -295.5q0 -178 -115.5 -293t-294.5 -115zM473 831q115 0 189.5 75.5t74.5 191.5q0 117 -74.5 193.5t-189.5 76.5q-118 0 -194 -76.5t-76 -193.5
q0 -116 76.5 -191.5t193.5 -75.5zM1513 -27q-178 0 -293.5 115.5t-115.5 292.5q1 180 116.5 296t292.5 116q179 0 294.5 -116t115.5 -296q0 -178 -115.5 -293t-294.5 -115zM1516 115q116 0 191 75.5t75 190.5q0 117 -75.5 193.5t-190.5 76.5q-118 0 -194.5 -76.5
t-76.5 -193.5q0 -115 77 -190.5t194 -75.5z" />
    <glyph glyph-name="ampersand" unicode="&#x26;" horiz-adv-x="1304" 
d="M1030 283l275 -283h-222l-155 158q-88 -92 -201 -145t-233 -54q-192 0 -312.5 113t-120.5 293q0 138 65.5 235t209.5 174q-129 161 -129 332q0 164 103.5 267.5t269.5 103.5q161 0 262.5 -92.5t101.5 -249.5q0 -132 -83.5 -229.5t-268.5 -178.5l330 -340q85 126 139 309
l119 -118q-65 -169 -150 -295zM580 1325q-94 0 -151.5 -60.5t-57.5 -160.5q0 -133 121 -270q150 64 219 132.5t69 151.5q1 89 -56 148t-144 59zM512 113q188 0 315 149l-389 402q-111 -54 -160 -122t-49 -167q0 -115 79 -188.5t204 -73.5z" />
    <glyph glyph-name="quotesingle" unicode="'" horiz-adv-x="247" 
d="M84 868l2 576h78v-576h-80z" />
    <glyph glyph-name="parenleft" unicode="(" horiz-adv-x="456" 
d="M399 -389q-142 155 -233.5 423t-93.5 529q-2 265 89.5 536t237.5 427l58 -49q-138 -159 -223.5 -414.5t-83.5 -499.5q2 -239 87.5 -492t219.5 -409z" />
    <glyph glyph-name="parenright" unicode=")" horiz-adv-x="456" 
d="M59 -389l-59 51q143 165 225 411.5t82 489.5q2 248 -80 496.5t-227 417.5l59 49q154 -165 241 -429t85 -534q0 -265 -87.5 -527.5t-238.5 -424.5z" />
    <glyph glyph-name="asterisk" unicode="*" horiz-adv-x="948" 
d="M434 549v282q0 40 -22.5 53.5t-57.5 -7.5l-243 -140l-39 68l241 139q35 22 35 47t-35 47l-241 142l39 67l243 -141q35 -20 57.5 -6.5t22.5 53.5v281h78v-281q0 -40 23.5 -53.5t58.5 6.5l244 141l39 -67l-244 -142q-35 -22 -35 -47t35 -47l244 -139l-39 -68l-244 140
q-35 21 -58.5 7.5t-23.5 -53.5v-282h-78z" />
    <glyph glyph-name="plus" unicode="+" horiz-adv-x="1042" 
d="M440 287v389h-338v143h338v369h162v-369h338v-143h-340v-389h-160z" />
    <glyph glyph-name="comma" unicode="," horiz-adv-x="446" 
d="M82 -270l22 71q76 -23 132 35.5t51 151.5q-65 -24 -113.5 9t-46.5 91q0 49 31.5 80t79.5 31q58 0 92.5 -49.5t34.5 -147.5q0 -149 -80 -226t-203 -46z" />
    <glyph glyph-name="hyphen" unicode="-" horiz-adv-x="856" 
d="M102 465v141h652v-141h-652z" />
    <glyph glyph-name="period" unicode="." horiz-adv-x="395" 
d="M197 -25q-51 0 -83 32t-32 83q0 50 32 81.5t83 31.5t83.5 -31.5t32.5 -81.5q0 -51 -32.5 -83t-83.5 -32z" />
    <glyph glyph-name="slash" unicode="/" horiz-adv-x="632" 
d="M74 -492l-74 21l555 1937l78 -22z" />
    <glyph glyph-name="zero" unicode="0" horiz-adv-x="1282" 
d="M641 -43q-247 0 -393 208t-146 556q0 349 146 557.5t393 208.5t393 -208.5t146 -557.5q0 -348 -146 -556t-393 -208zM641 109q170 0 269.5 166.5t99.5 445.5q0 281 -99.5 447.5t-269.5 166.5q-169 0 -269 -167t-100 -447q0 -279 100 -445.5t269 -166.5z" />
    <glyph glyph-name="one" unicode="1" horiz-adv-x="847" 
d="M53 0v152h334v1044h-2q-65 -102 -240 -168l-61 160q117 32 198.5 98t118.5 158h156v-1292h270v-152h-774z" />
    <glyph glyph-name="two" unicode="2" horiz-adv-x="1062" 
d="M102 0v100q0 199 70.5 321t247.5 236l176 115q104 69 147 137.5t43 165.5q0 116 -62 188t-163 72q-117 0 -189 -96t-73 -264l-170 35q3 214 122 345.5t310 131.5q178 0 286.5 -115.5t108.5 -302.5q0 -135 -60 -231.5t-206 -192.5l-178 -117q-130 -87 -179.5 -169
t-49.5 -207h698v-152h-879z" />
    <glyph glyph-name="three" unicode="3" horiz-adv-x="1101" 
d="M571 -43q-212 0 -347.5 134.5t-141.5 352.5l156 45q5 -171 95 -275.5t234 -104.5q127 0 205 76.5t78 201.5q0 126 -78 208t-190 87l-95 2v133l95 4q87 3 140.5 71.5t53.5 174.5q0 116 -60.5 188t-156.5 72q-109 0 -178 -91t-72 -237l-170 19q3 206 119.5 333.5
t302.5 127.5q172 0 279.5 -109.5t107.5 -284.5q0 -112 -49 -196t-137 -127v-4q123 -42 190.5 -141.5t67.5 -233.5q0 -190 -124.5 -308t-324.5 -118z" />
    <glyph glyph-name="four" unicode="4" horiz-adv-x="1048" 
d="M653 0v328h-612v110l549 1006h235v-965h162v-151h-162v-328h-172zM236 479h417v770h-2z" />
    <glyph glyph-name="five" unicode="5" horiz-adv-x="1030" 
d="M504 -43q-200 0 -326.5 125t-132.5 330l160 43q3 -158 85.5 -252t215.5 -94q131 0 210 93t79 249q0 160 -79.5 257t-211.5 97q-63 0 -125.5 -29t-99.5 -76l-117 37l49 707h635v-152h-490l-32 -430q33 39 97.5 62.5t131.5 23.5q187 0 299.5 -135.5t112.5 -359.5
q0 -226 -125 -361t-336 -135z" />
    <glyph glyph-name="six" unicode="6" horiz-adv-x="1140" 
d="M580 1489q189 0 297 -130t135 -364l-164 -28q-29 370 -266 370q-149 0 -234 -157.5t-86 -454.5q104 184 352 184q190 0 309 -131.5t119 -337.5q0 -215 -128 -347t-345 -132q-229 0 -349 158t-120 465q-6 905 480 905zM580 764q-141 0 -225.5 -91t-84.5 -235
q0 -146 84.5 -235.5t223.5 -89.5q134 0 214 90t80 237q0 142 -79.5 233t-212.5 91z" />
    <glyph glyph-name="seven" unicode="7" horiz-adv-x="933" 
d="M238 0q77 759 475 1292h-672v152h852v-139q-394 -531 -469 -1305h-186z" />
    <glyph glyph-name="eight" unicode="8" horiz-adv-x="1097" 
d="M549 -43q-219 0 -347 116.5t-128 313.5q0 151 79 253.5t218 133.5q-106 31 -170 122t-64 214q0 172 113 275.5t299 103.5t297.5 -103.5t111.5 -275.5q0 -123 -63.5 -214.5t-173.5 -123.5q142 -28 222.5 -130t80.5 -255q0 -198 -128.5 -314t-346.5 -116zM549 829
q107 0 172 72.5t65 188.5q0 112 -64.5 178.5t-172.5 66.5t-173 -66.5t-65 -178.5q0 -116 65.5 -188.5t172.5 -72.5zM549 109q138 0 221.5 79t83.5 209q0 132 -84.5 214.5t-220.5 82.5q-137 0 -221 -82t-84 -215q0 -130 83.5 -209t221.5 -79z" />
    <glyph glyph-name="nine" unicode="9" horiz-adv-x="1177" 
d="M555 -41q-204 0 -337.5 136.5t-158.5 357.5l164 28q12 -166 102 -268t234 -102q166 0 260.5 155t95.5 457q-102 -184 -358 -184q-186 0 -304 132t-118 339q0 213 129 346t340 133q226 0 349.5 -159t123.5 -464q3 -445 -122 -676t-400 -231zM600 684q139 0 223 92t84 236
q0 145 -83 234t-222 89q-135 0 -215 -89.5t-80 -235.5q0 -144 79.5 -235t213.5 -91z" />
    <glyph glyph-name="colon" unicode=":" horiz-adv-x="395" 
d="M197 809q-51 0 -83 32t-32 83q0 50 32 81t83 31t83.5 -31.5t32.5 -80.5q0 -51 -32.5 -83t-83.5 -32zM197 -25q-51 0 -83 32t-32 83q0 50 32 81.5t83 31.5t83.5 -31.5t32.5 -81.5q0 -51 -32.5 -83t-83.5 -32z" />
    <glyph glyph-name="semicolon" unicode=";" horiz-adv-x="446" 
d="M242 809q-51 0 -83 32t-32 83q0 50 32 81t83 31t83.5 -31.5t32.5 -80.5q0 -51 -32.5 -83t-83.5 -32zM82 -270l22 71q76 -23 132 35.5t51 151.5q-65 -24 -113.5 9t-46.5 91q0 49 31.5 80t79.5 31q58 0 92.5 -49.5t34.5 -147.5q0 -149 -80 -226t-203 -46z" />
    <glyph glyph-name="less" unicode="&#x3c;" horiz-adv-x="841" 
d="M668 227l-566 375v197l566 372l71 -122l-536 -349l536 -348z" />
    <glyph glyph-name="equal" unicode="=" horiz-adv-x="1042" 
d="M102 852v141h838v-141h-838zM102 469v141h838v-141h-838z" />
    <glyph glyph-name="greater" unicode="&#x3e;" horiz-adv-x="841" 
d="M176 1171l563 -372v-197l-565 -375l-72 125l537 346l-537 351z" />
    <glyph glyph-name="question" unicode="?" horiz-adv-x="915" 
d="M348 367q0 153 42.5 243.5t131.5 165.5l51 53q59 51 91 107.5t32 132.5q0 116 -70.5 191t-176.5 75q-116 0 -189 -89t-80 -242l-160 38q9 202 130 323.5t303 121.5q178 0 295.5 -117t117.5 -299q0 -116 -42 -192.5t-124 -145.5l-57 -53q-75 -62 -106 -130t-31 -183h-158z
M430 -27q-51 0 -83 32t-32 83q0 50 32 81.5t83 31.5t84 -32t33 -81q0 -51 -33 -83t-84 -32z" />
    <glyph glyph-name="at" unicode="@" horiz-adv-x="1687" 
d="M846 -362q-231 0 -406.5 102.5t-271.5 293t-96 443.5q0 255 96.5 450t274 301.5t409.5 106.5q171 0 312 -57t241.5 -163.5t155.5 -263.5t55 -351q0 -264 -85 -399.5t-224 -135.5q-82 0 -136 40.5t-71 121.5l-2 27h-2q-52 -90 -140 -139.5t-204 -49.5q-155 0 -254 84.5
t-99 218.5q0 133 102 221.5t312 116.5l207 27q38 5 60 28t22 62q0 95 -73.5 150t-180.5 55q-122 0 -203 -73.5t-84 -176.5l-139 59q8 139 130 235.5t302 96.5t289.5 -100t109.5 -269v-518q0 -121 99 -121q70 0 128 115t58 322q0 355 -186.5 558.5t-497.5 203.5
q-320 0 -512 -214.5t-192 -570.5q0 -347 191.5 -553.5t510.5 -206.5q219 0 379 111l41 -66q-178 -122 -426 -122zM784 111q136 0 225 90.5t89 234.5v70l-254 -31q-150 -19 -219.5 -71.5t-69.5 -127.5t64 -120t165 -45z" />
    <glyph glyph-name="A" unicode="A" horiz-adv-x="1241" 
d="M20 0l492 1444h215l494 -1444h-179l-114 346h-615l-114 -346h-179zM358 498h525l-258 786h-4z" />
    <glyph glyph-name="B" unicode="B" horiz-adv-x="1218" 
d="M123 0v1444h569q198 0 310 -101.5t112 -281.5q0 -120 -59 -202.5t-164 -110.5v-3q125 -29 195.5 -120.5t70.5 -227.5q0 -186 -123.5 -291.5t-341.5 -105.5h-569zM293 819h379q129 0 200.5 62.5t71.5 173.5t-72 174t-200 63h-379v-473zM293 152h377q149 0 233 68.5
t84 191.5q0 120 -84 188t-233 68h-377v-516z" />
    <glyph glyph-name="C" unicode="C" horiz-adv-x="1409" 
d="M743 -43q-312 0 -491.5 204.5t-179.5 559.5t168 560.5t460 205.5q213 0 360 -134.5t191 -371.5l-161 -39q-31 185 -135.5 289t-256.5 104q-212 0 -334 -164t-122 -450q2 -284 135.5 -448t365.5 -164q183 0 307.5 125t155.5 341l162 -40q-38 -267 -207 -422.5t-418 -155.5
z" />
    <glyph glyph-name="D" unicode="D" horiz-adv-x="1351" 
d="M123 0v1444h459q341 0 519.5 -187.5t178.5 -535.5q0 -347 -179 -534t-519 -187h-459zM293 152h289q259 0 393.5 147.5t134.5 421.5t-134.5 422.5t-393.5 148.5h-289v-1140z" />
    <glyph glyph-name="E" unicode="E" horiz-adv-x="1056" 
d="M123 0v1444h862v-152h-696v-473h614v-145h-614v-522h717v-152h-883z" />
    <glyph glyph-name="F" unicode="F" horiz-adv-x="962" 
d="M123 0v1444h799v-152h-629v-499h510v-144h-510v-649h-170z" />
    <glyph glyph-name="G" unicode="G" horiz-adv-x="1509" 
d="M737 -43q-299 0 -482 210t-183 554q0 346 181 556t480 210q195 0 348 -115.5t213 -306.5l-161 -49q-46 145 -155 232t-247 87q-220 0 -353.5 -168t-133.5 -446q0 -276 142 -444t376 -168q219 0 356 147.5t137 388.5h-684v152h856v-797h-143l-16 262h-2
q-82 -145 -220.5 -225t-308.5 -80z" />
    <glyph glyph-name="H" unicode="H" horiz-adv-x="1261" 
d="M123 0v1444h170v-617h674v617h172v-1444h-172v676h-674v-676h-170z" />
    <glyph glyph-name="I" unicode="I" horiz-adv-x="415" 
d="M123 0v1444h170v-1444h-170z" />
    <glyph glyph-name="J" unicode="J" horiz-adv-x="919" 
d="M440 -39q-169 0 -273 92.5t-126 261.5l149 64q10 -127 74.5 -197.5t169.5 -70.5q100 0 156.5 68t56.5 192v1073h170v-1090q0 -188 -98.5 -290.5t-278.5 -102.5z" />
    <glyph glyph-name="K" unicode="K" horiz-adv-x="1101" 
d="M123 0v1444h170v-666h2l551 666h209l-488 -584l514 -860h-194l-426 731l-168 -194v-537h-170z" />
    <glyph glyph-name="L" unicode="L" horiz-adv-x="927" 
d="M123 0v1444h170v-1292h614v-152h-784z" />
    <glyph glyph-name="M" unicode="M" horiz-adv-x="1671" 
d="M123 0v1444h248l463 -1247h2l462 1247h250v-1444h-172v1190h-4l-446 -1190h-181l-448 1188h-4v-1188h-170z" />
    <glyph glyph-name="N" unicode="N" horiz-adv-x="1263" 
d="M123 0v1444h239l605 -1223h4v1223h170v-1444h-238l-606 1223h-4v-1223h-170z" />
    <glyph glyph-name="O" unicode="O" horiz-adv-x="1519" 
d="M760 -43q-312 0 -500 208.5t-188 555.5q0 349 187.5 557.5t500.5 208.5q312 0 500 -208.5t188 -555.5q0 -348 -188 -557t-500 -209zM760 109q235 0 375.5 167t140.5 445q0 280 -140.5 447t-375.5 167t-376.5 -167.5t-141.5 -446.5q0 -278 141.5 -445t376.5 -167z" />
    <glyph glyph-name="P" unicode="P" horiz-adv-x="1165" 
d="M123 0v1444h518q213 0 348 -121.5t135 -312.5q0 -190 -135.5 -311t-347.5 -121h-352v-578h-166zM289 731h342q141 0 232 78t91 201q0 124 -90 203t-233 79h-342v-561z" />
    <glyph glyph-name="Q" unicode="Q" horiz-adv-x="1519" 
d="M999 -313q70 0 119 51t60 133l135 -84q-15 -109 -105 -180.5t-215 -71.5q-144 0 -233.5 86t-89.5 223v117q-275 31 -436.5 235.5t-161.5 524.5q0 349 187.5 557.5t500.5 208.5q312 0 500 -208.5t188 -555.5q0 -324 -164.5 -529t-443.5 -233v-86q0 -86 43 -137t116 -51z
M242 721q0 -278 141.5 -445t376.5 -167t375.5 167t140.5 445q0 280 -140.5 447t-375.5 167t-376.5 -167.5t-141.5 -446.5z" />
    <glyph glyph-name="R" unicode="R" horiz-adv-x="1273" 
d="M1051 -39q-148 0 -195 166l-84 307q-22 82 -77.5 132t-125.5 50h-276v-616h-170v1444h557q211 0 345 -116t134 -302q0 -142 -96 -248t-258 -135v-2q102 -54 139 -190l68 -263q21 -84 73 -84q55 0 103 82l86 -98q-87 -127 -223 -127zM293 768h381q140 0 227.5 71.5
t87.5 186.5q0 121 -87 193.5t-228 72.5h-381v-524z" />
    <glyph glyph-name="S" unicode="S" horiz-adv-x="1144" 
d="M606 -43q-242 0 -397.5 139t-167.5 363l168 33q6 -171 118.5 -277t282.5 -106q146 0 234 74.5t88 187.5q0 91 -62 152t-198 102l-223 67q-174 54 -255 145.5t-81 233.5q0 183 120 299.5t324 116.5q197 0 322.5 -116t140.5 -306l-164 -39q-6 139 -88.5 224t-208.5 85
q-125 0 -200.5 -69.5t-75.5 -175.5q0 -91 54.5 -148t176.5 -94l223 -68q187 -56 276.5 -150.5t90.5 -242.5q0 -187 -135 -308.5t-363 -121.5z" />
    <glyph glyph-name="T" unicode="T" horiz-adv-x="1054" 
d="M442 0v1292h-422v152h1014v-152h-422v-1292h-170z" />
    <glyph glyph-name="U" unicode="U" horiz-adv-x="1251" 
d="M627 -43q-239 0 -382 143.5t-143 384.5v959h170v-959q0 -166 97 -271t258 -105q162 0 257 102t95 276v957h170v-959q0 -241 -142 -384.5t-380 -143.5z" />
    <glyph glyph-name="V" unicode="V" horiz-adv-x="1222" 
d="M508 0l-488 1444h181l411 -1260h2l408 1260h180l-485 -1444h-209z" />
    <glyph glyph-name="W" unicode="W" horiz-adv-x="1826" 
d="M383 0l-363 1444h177l309 -1270h4l283 1270h243l285 -1270h4l305 1270h176l-362 -1444h-246l-280 1253h-5l-286 -1253h-244z" />
    <glyph glyph-name="X" unicode="X" horiz-adv-x="1185" 
d="M20 0l461 754l-440 690h195l352 -578l362 578h197l-453 -690l471 -754h-194l-383 621l-373 -621h-195z" />
    <glyph glyph-name="Y" unicode="Y" horiz-adv-x="1132" 
d="M483 0v537l-463 907h185l362 -729h2l355 729h188l-459 -907v-537h-170z" />
    <glyph glyph-name="Z" unicode="Z" horiz-adv-x="1050" 
d="M20 0v160l807 1140h-786v144h969v-160l-805 -1143h825v-141h-1010z" />
    <glyph glyph-name="bracketleft" unicode="[" horiz-adv-x="454" 
d="M123 -389v1915h332v-78h-252v-1759h252v-78h-332z" />
    <glyph glyph-name="backslash" unicode="\" horiz-adv-x="632" 
d="M559 -492l-559 1936l76 22l557 -1937z" />
    <glyph glyph-name="bracketright" unicode="]" horiz-adv-x="454" 
d="M332 -389h-332v78h252v1759h-252v78h332v-1915z" />
    <glyph glyph-name="asciicircum" unicode="^" horiz-adv-x="913" 
d="M190 819l-129 60l306 565h182l303 -565l-127 -60l-268 502z" />
    <glyph glyph-name="underscore" unicode="_" horiz-adv-x="899" 
d="M0 -78v78h899v-78h-899z" />
    <glyph glyph-name="grave" unicode="`" horiz-adv-x="335" 
d="M231 1227l-190 303l65 41l189 -303z" />
    <glyph glyph-name="a" unicode="a" horiz-adv-x="1107" 
d="M393 -31q-155 0 -253.5 82.5t-98.5 216.5t104 223.5t318 116.5l199 25q38 5 59.5 28t21.5 62q0 93 -70 149t-181 56q-123 0 -203.5 -74.5t-83.5 -177.5l-139 59q9 140 130 237t302 97q180 0 288.5 -101t108.5 -268v-520q0 -32 14 -49.5t39 -17.5q44 0 84 55l76 -102
q-33 -46 -86 -71.5t-109 -25.5q-73 0 -118 42.5t-54 111.5l-2 35h-2q-52 -90 -140 -139.5t-204 -49.5zM426 111q136 0 224.5 90.5t88.5 234.5v70l-254 -31q-149 -19 -218.5 -71.5t-69.5 -127.5t64 -120t165 -45z" />
    <glyph glyph-name="b" unicode="b" horiz-adv-x="1122" 
d="M606 -35q-116 0 -206.5 53.5t-143.5 151.5h-2l-16 -170h-136v1505h156v-637h2q55 96 143.5 148.5t202.5 52.5q203 0 329 -152.5t126 -400.5q0 -247 -126 -399t-329 -152zM580 113q145 0 235 111.5t90 291.5q0 181 -89.5 293.5t-235.5 112.5t-236 -112.5t-90 -293.5
q0 -180 90 -291.5t236 -111.5z" />
    <glyph glyph-name="c" unicode="c" horiz-adv-x="1046" 
d="M545 -35q-220 0 -352 151t-132 400q0 250 124 401.5t327 151.5q155 0 267.5 -96t146.5 -256l-150 -39q-26 115 -98 183.5t-166 68.5q-132 0 -213.5 -113t-81.5 -301q0 -187 90.5 -299.5t237.5 -112.5q120 0 205.5 83t105.5 219l150 -35q-28 -183 -154.5 -294.5
t-306.5 -111.5z" />
    <glyph glyph-name="d" unicode="d" horiz-adv-x="1122" 
d="M516 -35q-203 0 -329 152t-126 399q0 248 126 400.5t329 152.5q114 0 202.5 -52.5t143.5 -148.5h2v637h156v-1505h-135l-17 170h-2q-53 -98 -143.5 -151.5t-206.5 -53.5zM543 113q146 0 235.5 111.5t89.5 291.5q0 181 -89.5 293.5t-235.5 112.5t-236 -112.5t-90 -293.5
q0 -180 90.5 -291.5t235.5 -111.5z" />
    <glyph glyph-name="e" unicode="e" horiz-adv-x="1058" 
d="M573 -35q-231 0 -371.5 154t-140.5 409q0 245 128.5 393t340.5 148q205 0 327 -148t122 -395v-61h-758q11 -163 107 -261t245 -98q109 0 189.5 55t114.5 152l135 -61q-43 -132 -162.5 -209.5t-276.5 -77.5zM221 600h594q-10 155 -85 240.5t-200 85.5q-131 0 -211 -87
t-98 -239z" />
    <glyph glyph-name="f" unicode="f" horiz-adv-x="825" 
d="M209 0l-2 905h-207v129h207v205q0 135 83 216t222 81q130 0 215.5 -73.5t97.5 -192.5l-135 -58q-9 84 -56.5 135.5t-115.5 51.5q-69 0 -111 -51t-42 -136v-178h393v-129h-393v-905h-156z" />
    <glyph glyph-name="g" unicode="g" horiz-adv-x="1118" 
d="M496 -465q-168 0 -306.5 72.5t-201.5 193.5l123 99q53 -102 155.5 -163t222.5 -61q169 0 270 102.5t101 276.5v133h-2q-51 -93 -145 -150.5t-195 -57.5q-203 0 -327.5 149.5t-124.5 392.5t125 394t327 151q105 0 199 -54t141 -141h2l17 162h139v-979
q0 -239 -140.5 -379.5t-379.5 -140.5zM543 121q142 0 231.5 112.5t89.5 288.5q0 179 -89.5 292.5t-231.5 113.5q-143 0 -232.5 -112.5t-89.5 -293.5q0 -179 89.5 -290t232.5 -111z" />
    <glyph glyph-name="h" unicode="h" 
d="M102 0v1505h156v-612h2q107 174 336 174q153 0 238.5 -92.5t85.5 -257.5v-717h-156v705q0 105 -57.5 166t-155.5 61q-132 0 -212.5 -82.5t-80.5 -220.5v-629h-156z" />
    <glyph glyph-name="i" unicode="i" horiz-adv-x="393" 
d="M197 1235q-52 0 -83.5 32t-31.5 83q0 50 31.5 81t83.5 31q51 0 82.5 -31t31.5 -81q0 -51 -31.5 -83t-82.5 -32zM117 0v1034h155v-1034h-155z" />
    <glyph glyph-name="j" unicode="j" horiz-adv-x="387" 
d="M190 1235q-51 0 -82.5 32t-31.5 83q0 50 31.5 81t82.5 31t83 -31t32 -81q0 -51 -32 -83t-83 -32zM-14 -465q-88 0 -146 31l21 131q50 -23 104 -23q69 0 108.5 42.5t39.5 117.5v1200h155v-1216q0 -132 -75 -207.5t-207 -75.5z" />
    <glyph glyph-name="k" unicode="k" horiz-adv-x="874" 
d="M102 0v1505h156v-911h2l389 440h199l-352 -391l378 -643h-180l-303 528l-133 -147v-381h-156z" />
    <glyph glyph-name="l" unicode="l" horiz-adv-x="360" 
d="M102 0v1505h156v-1505h-156z" />
    <glyph glyph-name="m" unicode="m" horiz-adv-x="1636" 
d="M102 0v1034h136l16 -143h2q41 83 125.5 130.5t193.5 47.5q108 0 185 -50t114 -140h3q56 92 146 141t196 49q154 0 239.5 -94.5t85.5 -263.5v-711h-158l3 707q0 104 -56.5 161.5t-158.5 57.5q-127 0 -200 -87.5t-73 -236.5v-602h-158l2 707q0 104 -56.5 161.5t-158.5 57.5
q-127 0 -199.5 -87.5t-72.5 -236.5v-602h-156z" />
    <glyph glyph-name="n" unicode="n" 
d="M596 1067q153 0 238.5 -92.5t85.5 -257.5v-717h-156v705q0 105 -57.5 166t-155.5 61q-132 0 -212.5 -82.5t-80.5 -220.5v-629h-156v1034h142l14 -141h2q107 174 336 174z" />
    <glyph glyph-name="o" unicode="o" horiz-adv-x="1101" 
d="M551 -35q-223 0 -356.5 150.5t-133.5 402.5q0 250 133.5 400.5t356.5 150.5t356 -150t133 -401q0 -252 -133 -402.5t-356 -150.5zM551 106q152 0 243 112t91 300q0 186 -91 297t-243 111t-243 -111t-91 -297q0 -188 91 -300t243 -112z" />
    <glyph glyph-name="p" unicode="p" horiz-adv-x="1122" 
d="M102 -430v1464h136l16 -172h2q53 99 143.5 153t206.5 54q203 0 329 -152.5t126 -400.5q0 -247 -126 -399t-329 -152q-114 0 -202.5 52t-143.5 147h-2v-594h-156zM580 113q146 0 235.5 111.5t89.5 291.5q0 181 -90 293.5t-235 112.5q-146 0 -236 -112.5t-90 -293.5
q0 -180 90 -291.5t236 -111.5z" />
    <glyph glyph-name="q" unicode="q" horiz-adv-x="1122" 
d="M864 -430v594h-2q-55 -95 -143.5 -147t-202.5 -52q-203 0 -329 152t-126 399q0 248 126 400.5t329 152.5q116 0 206.5 -54t143.5 -153h2l17 172h135v-1464h-156zM543 113q146 0 235.5 111.5t89.5 291.5q0 181 -89.5 293.5t-235.5 112.5q-145 0 -235.5 -112.5
t-90.5 -293.5q0 -180 90 -291.5t236 -111.5z" />
    <glyph glyph-name="r" unicode="r" horiz-adv-x="829" 
d="M510 1069q124 0 197.5 -85.5t80.5 -242.5l-137 -45q-4 113 -49 173.5t-121 60.5q-103 0 -163 -101.5t-60 -277.5v-551h-156v1034h129l17 -162h2q34 92 103 144.5t157 52.5z" />
    <glyph glyph-name="s" unicode="s" horiz-adv-x="923" 
d="M481 -35q-184 0 -308.5 100t-131.5 263l152 34q6 -119 86.5 -187.5t205.5 -68.5q106 0 176 46.5t70 121.5q0 56 -50 95.5t-159 70.5l-151 41q-143 42 -208.5 109.5t-64.5 175.5q0 132 97.5 217.5t248.5 85.5q150 0 253 -83.5t118 -217.5l-149 -39q-7 93 -69 147t-155 54
q-83 0 -136.5 -44t-55.5 -110q-1 -55 43 -94t141 -68l152 -41q156 -46 226.5 -113.5t70.5 -172.5q0 -139 -114.5 -230.5t-287.5 -91.5z" />
    <glyph glyph-name="t" unicode="t" horiz-adv-x="806" 
d="M492 -35q-132 0 -211.5 80.5t-79.5 214.5v645h-201v129h201v299l155 37v-336h387v-129h-387l2 -624q0 -81 38.5 -131t107.5 -50t114.5 51.5t51.5 147.5l133 -55q-10 -127 -96.5 -203t-214.5 -76z" />
    <glyph glyph-name="u" unicode="u" 
d="M416 -33q-153 0 -238.5 92.5t-85.5 257.5v717h156v-704q0 -106 57.5 -167t155.5 -61q132 0 212.5 83t80.5 221v628h155v-1034h-141l-14 141h-2q-107 -174 -336 -174z" />
    <glyph glyph-name="v" unicode="v" horiz-adv-x="944" 
d="M369 0l-346 1034h161l287 -897h2l287 897h164l-349 -1034h-206z" />
    <glyph glyph-name="w" unicode="w" horiz-adv-x="1517" 
d="M319 0l-299 1034h162l238 -872h2l233 872h207l240 -874h2l233 874h160l-293 -1034h-207l-237 879h-2l-230 -879h-209z" />
    <glyph glyph-name="x" unicode="x" horiz-adv-x="890" 
d="M20 0l330 537l-309 497h174l229 -391l234 391h172l-311 -497l331 -537h-178l-248 428l-249 -428h-175z" />
    <glyph glyph-name="y" unicode="y" horiz-adv-x="1005" 
d="M432 -465q-163 0 -285.5 70t-179.5 194l129 95q45 -101 133 -159.5t203 -58.5q147 0 231.5 88.5t84.5 243.5v88h-3q-44 -79 -124 -125.5t-172 -46.5q-166 0 -264.5 109.5t-98.5 290.5v710h156v-710q0 -118 62 -188t169 -70q118 0 195 78t77 204v686h158v-1026
q0 -222 -125.5 -347.5t-345.5 -125.5z" />
    <glyph glyph-name="z" unicode="z" horiz-adv-x="884" 
d="M41 0v170l618 721h-598v143h762v-170l-618 -723h639v-141h-803z" />
    <glyph glyph-name="braceleft" unicode="{" horiz-adv-x="587" 
d="M416 -389q-80 0 -129 55t-49 146v538q0 70 -35 112.5t-94 47.5l-37 2v121l37 2q59 3 94 46t35 114v530q0 91 49 146t131 55h170v-78h-170q-46 0 -74.5 -34t-28.5 -89v-545q0 -86 -43.5 -141.5t-115.5 -63.5v-4q72 -7 115.5 -63t43.5 -141v-555q0 -55 28.5 -89t74.5 -34
h170l-2 -78h-170z" />
    <glyph glyph-name="bar" unicode="|" horiz-adv-x="323" 
d="M123 -471v1976h78v-1976h-78z" />
    <glyph glyph-name="braceright" unicode="}" horiz-adv-x="587" 
d="M172 -389h-170l-2 78h170q46 0 74 34t28 89v555q0 85 44 140.5t116 63.5v4q-72 8 -116 63.5t-44 141.5v545q0 55 -28 89t-74 34h-170v78h170q82 0 131 -55t49 -146v-530q0 -71 35 -114t94 -46l37 -2v-121l-37 -2q-59 -5 -94 -47.5t-35 -112.5v-538q0 -91 -49 -146
t-129 -55z" />
    <glyph glyph-name="asciitilde" unicode="~" horiz-adv-x="1146" 
d="M1004 713l81 -74q-49 -85 -123.5 -136.5t-146.5 -51.5q-41 0 -88.5 18.5t-78.5 38.5t-83 57q-7 5 -29 21t-30.5 22t-28 19t-29.5 18.5t-27 14t-29 12.5t-26.5 7t-27.5 3q-102 0 -197 -127l-80 76q51 85 128.5 137.5t152.5 52.5q42 0 93 -21t78.5 -39t86.5 -60
q11 -7 16 -11q45 -33 72 -51t62.5 -33.5t64.5 -15.5q104 0 189 123z" />
    <glyph glyph-name="exclamdown" unicode="&#xa1;" horiz-adv-x="436" 
d="M219 1079q51 0 83 -31.5t32 -82.5q0 -50 -32 -81.5t-83 -31.5t-84 32t-33 81q0 51 33 82.5t84 31.5zM268 686l35 -688v-387h-172v387l37 688h100z" />
    <glyph glyph-name="cent" unicode="&#xa2;" horiz-adv-x="1046" 
d="M1006 369q-28 -177 -152 -289t-297 -115v-231h-76v235q-191 23 -305.5 171t-114.5 376q0 239 115.5 390t304.5 163v242h76v-244q138 -13 238 -106t131 -236l-150 -37q-23 95 -82.5 159t-136.5 79v-822q115 4 197 86t102 213zM217 516q0 -163 72 -271.5t192 -133.5v817
q-118 -14 -191 -125.5t-73 -286.5z" />
    <glyph glyph-name="sterling" unicode="&#xa3;" horiz-adv-x="1052" 
d="M61 0v162q226 78 226 512h-205v78h205v342q0 182 90 289.5t248 107.5q164 0 259.5 -115t104.5 -311l-151 -29q-6 146 -60 232t-149 86q-85 0 -132.5 -70t-47.5 -190v-342h452v-78h-452q-9 -219 -67.5 -351t-156.5 -180v-2h762v-141h-926z" />
    <glyph glyph-name="currency" unicode="&#xa4;" horiz-adv-x="1421" 
d="M117 -102l-56 53l226 227q-107 142 -107 334t107 334l-224 225l54 55l223 -221q148 139 371 139q224 0 372 -139l224 221l53 -55l-223 -225q106 -140 106 -334t-106 -334l223 -225l-53 -55l-224 221q-148 -139 -370 -139q-225 0 -373 139zM713 137q161 0 266.5 106
t105.5 269q0 162 -105 268.5t-267 106.5q-164 0 -269.5 -106.5t-105.5 -268.5q0 -163 106 -269t269 -106z" />
    <glyph glyph-name="yen" unicode="&#xa5;" horiz-adv-x="1159" 
d="M496 0v297h-428v78h428v104h-428v78h401l-449 887h187l375 -766l368 766h189l-449 -887h402v-78h-424v-104h426v-78h-426v-297h-172z" />
    <glyph glyph-name="section" unicode="&#xa7;" horiz-adv-x="999" 
d="M522 -35q-188 0 -313 101.5t-137 261.5l153 34q4 -119 87.5 -187.5t215.5 -68.5q106 0 176 44t70 120q0 58 -53 98.5t-168 71.5l-191 52q-127 35 -192 98.5t-64 175.5q0 128 119 221q-75 69 -75 189q0 132 96.5 219.5t245.5 87.5q145 0 245.5 -85.5t114.5 -219.5
l-152 -39q-4 93 -62.5 148.5t-145.5 55.5q-83 0 -137 -46.5t-54 -112.5q0 -55 37 -91.5t119 -62.5l200 -57q260 -79 263 -277q0 -129 -95 -215q101 -80 101 -202q0 -142 -115.5 -228t-288.5 -86zM688 547q80 57 80 137q-3 104 -160 154l-246 71q-47 -22 -75.5 -59.5
t-28.5 -81.5q-3 -94 137 -137z" />
    <glyph glyph-name="dieresis" unicode="&#xa8;" horiz-adv-x="729" 
d="M156 1237q-51 0 -83 32.5t-32 82.5q0 49 32 79.5t83 30.5t82.5 -30.5t31.5 -79.5q0 -50 -31.5 -82.5t-82.5 -32.5zM573 1237q-51 0 -82.5 32.5t-31.5 82.5q0 49 31.5 79.5t82.5 30.5t83 -30.5t32 -79.5q0 -50 -32 -82.5t-83 -32.5z" />
    <glyph glyph-name="copyright" unicode="&#xa9;" horiz-adv-x="1579" 
d="M791 -49q-156 0 -290 57.5t-228 160t-147.5 248t-53.5 316.5q0 227 91 406t255.5 279t372.5 100t371.5 -99.5t254 -278.5t90.5 -407q0 -229 -90.5 -407t-253.5 -276.5t-372 -98.5zM795 29q184 0 329 88.5t225.5 249t80.5 364.5q0 206 -80.5 367.5t-226 251.5t-330.5 90
q-187 0 -334 -90t-228 -251.5t-81 -367.5q0 -310 180.5 -506t464.5 -196zM809 176q-220 0 -351.5 151t-129.5 400q0 250 122.5 401.5t325.5 151.5q156 0 268.5 -95.5t147.5 -256.5l-150 -39q-28 116 -99.5 184t-166.5 68q-131 0 -212 -113t-81 -301q0 -187 89.5 -299.5
t236.5 -112.5q122 0 207.5 82.5t105.5 218.5l150 -34q-29 -183 -156 -294.5t-307 -111.5z" />
    <glyph glyph-name="guillemotleft" unicode="&#xab;" horiz-adv-x="901" 
d="M440 -20l-379 536l379 539l64 -45l-344 -494l344 -493zM774 -20l-379 536l379 539l66 -45l-346 -494l344 -493z" />
    <glyph glyph-name="logicalnot" unicode="&#xac;" horiz-adv-x="1167" 
d="M924 387v408h-822v135h963v-543h-141z" />
    <glyph glyph-name="registered" unicode="&#xae;" horiz-adv-x="1579" 
d="M791 -49q-209 0 -372.5 98t-255 276t-91.5 406q0 227 91 406t255.5 279t372.5 100t371.5 -99.5t254 -278.5t90.5 -407t-90.5 -405.5t-253.5 -276t-372 -98.5zM795 29q184 0 329 88.5t225.5 248t80.5 363.5q0 206 -80.5 367.5t-225.5 251.5t-329 90q-285 0 -465 -198.5
t-180 -510.5q0 -309 180.5 -504.5t464.5 -195.5zM473 231v1039h342q163 0 253.5 -82t90.5 -223q0 -107 -56.5 -181.5t-160.5 -103.5l211 -449h-170l-190 431h-164v-431h-156zM629 793h182q92 0 146.5 47t54.5 125t-54.5 126t-146.5 48h-182v-346z" />
    <glyph glyph-name="macron" unicode="&#xaf;" horiz-adv-x="679" 
d="M72 1225v78h536v-78h-536z" />
    <glyph glyph-name="degree" unicode="&#xb0;" horiz-adv-x="942" 
d="M471 688q-179 0 -295 115.5t-115 292.5q0 179 116 295t294 116q179 0 294.5 -115.5t115.5 -295.5q0 -178 -115.5 -293t-294.5 -115zM473 766q143 0 236.5 94t93.5 236q0 145 -93.5 239.5t-236.5 94.5q-146 0 -240 -94.5t-94 -239.5q0 -143 94.5 -236.5t239.5 -93.5z" />
    <glyph glyph-name="plusminus" unicode="&#xb1;" horiz-adv-x="1034" 
d="M436 549v262h-334v147h334v244h162v-244h334v-147h-334v-262h-162zM102 307v78h830v-78h-830z" />
    <glyph glyph-name="acute" unicode="&#xb4;" horiz-adv-x="335" 
d="M106 1227l-65 41l188 303l66 -41z" />
    <glyph glyph-name="paragraph" unicode="&#xb6;" horiz-adv-x="1218" 
d="M516 -457v1125q-205 0 -331 107t-124 280q1 175 126.5 282t328.5 107h641v-123h-153v-1778h-142v1778h-203v-1778h-143z" />
    <glyph glyph-name="periodcentered" unicode="&#xb7;" horiz-adv-x="395" 
d="M197 465q-51 0 -83 32t-32 83q0 50 32 81t83 31t83.5 -31.5t32.5 -80.5q0 -51 -32.5 -83t-83.5 -32z" />
    <glyph glyph-name="cedilla" unicode="&#xb8;" horiz-adv-x="460" 
d="M233 -422q-59 0 -113 31.5t-79 79.5l61 47q17 -35 53.5 -57.5t77.5 -22.5q50 0 79.5 21.5t29.5 58.5q1 42 -35.5 67t-97.5 25h-72l21 176h78l-13 -102q91 -6 144 -48t53 -114q0 -73 -51 -117.5t-136 -44.5z" />
    <glyph glyph-name="guillemotright" unicode="&#xbb;" horiz-adv-x="901" 
d="M125 -20l-62 43l343 493l-345 494l64 45l379 -539zM461 -20l-64 43l344 493l-344 494l64 45l379 -539z" />
    <glyph glyph-name="questiondown" unicode="&#xbf;" horiz-adv-x="915" 
d="M457 1079q51 0 82.5 -31.5t31.5 -82.5q0 -50 -31.5 -81.5t-82.5 -31.5t-83 31.5t-32 81.5q0 51 32 82.5t83 31.5zM541 686q0 -152 -43 -243t-131 -167l-54 -53q-59 -52 -91 -107.5t-32 -131.5q0 -116 71 -191.5t177 -75.5q116 0 189.5 89.5t79.5 242.5l159 -41
q-9 -200 -129 -321t-301 -121q-180 0 -298 117t-118 299q0 116 42 192t126 145l56 54q75 62 106 130t31 183h160z" />
    <glyph glyph-name="Agrave" unicode="&#xc0;" horiz-adv-x="1241" 
d="M614 1595l-159 263l65 38l158 -260zM20 0l492 1444h215l494 -1444h-179l-114 346h-615l-114 -346h-179zM358 498h525l-258 786h-4z" />
    <glyph glyph-name="Aacute" unicode="&#xc1;" horiz-adv-x="1241" 
d="M645 1595l-63 41l157 260l66 -38zM20 0l492 1444h215l494 -1444h-179l-114 346h-615l-114 -346h-179zM358 498h525l-258 786h-4z" />
    <glyph glyph-name="Acircumflex" unicode="&#xc2;" horiz-adv-x="1241" 
d="M410 1599l-58 52l213 229h109l215 -229l-58 -52l-210 224zM20 0l492 1444h215l494 -1444h-179l-114 346h-615l-114 -346h-179zM358 498h525l-258 786h-4z" />
    <glyph glyph-name="Atilde" unicode="&#xc3;" horiz-adv-x="1241" 
d="M758 1597q-29 0 -53 9.5t-47.5 33t-34 36.5t-33.5 46q-5 7 -8 11q-19 28 -31 42.5t-30 27t-36 12.5q-42 0 -69 -56t-27 -141h-76q0 121 47 196.5t127 75.5q28 0 52 -9.5t46 -32.5t32.5 -36.5t33.5 -46.5q19 -27 25.5 -35.5t22 -26.5t29 -24t28.5 -6q43 0 70.5 56.5
t27.5 142.5h78q0 -121 -47.5 -198t-126.5 -77zM20 0l492 1444h215l494 -1444h-179l-114 346h-615l-114 -346h-179zM358 498h525l-258 786h-4z" />
    <glyph glyph-name="Adieresis" unicode="&#xc4;" horiz-adv-x="1241" 
d="M399 1645q-51 0 -82.5 31t-31.5 81t31.5 81.5t82.5 31.5t84 -32t33 -81t-33 -80.5t-84 -31.5zM844 1645q-50 0 -81.5 31.5t-31.5 80.5t31.5 81t81.5 32q51 0 82.5 -31.5t31.5 -81.5t-31.5 -81t-82.5 -31zM20 0l492 1444h215l494 -1444h-179l-114 346h-615l-114 -346h-179
zM358 498h525l-258 786h-4z" />
    <glyph glyph-name="Aring" unicode="&#xc5;" horiz-adv-x="1241" 
d="M621 1602q-83 0 -137 53.5t-54 136.5q-1 83 52.5 136.5t138.5 53.5q83 0 135.5 -53t54.5 -137q0 -84 -53 -137t-137 -53zM618 1677q51 0 83 32.5t32 82.5t-32 82.5t-83 32.5q-48 0 -81 -33t-33 -82t33 -82t81 -33zM20 0l492 1444h215l494 -1444h-179l-114 346h-615
l-114 -346h-179zM358 498h525l-258 786h-4z" />
    <glyph glyph-name="AE" unicode="&#xc6;" horiz-adv-x="1671" 
d="M-4 0l735 1444h868v-154h-614v-485h533v-143h-533v-510h635v-152h-801v293h-487l-146 -293h-190zM397 438h422v836h-2z" />
    <glyph glyph-name="Ccedilla" unicode="&#xc7;" horiz-adv-x="1409" 
d="M1368 535q-37 -257 -196 -412t-396 -166l-6 -55q91 -6 144 -48t53 -114q0 -73 -51 -117.5t-136 -44.5q-59 0 -113 31.5t-79 79.5l61 47q17 -35 53.5 -57.5t77.5 -22.5q50 0 79.5 21.5t29.5 58.5q1 42 -35.5 67t-97.5 25h-72l14 131q-292 14 -459 217t-167 545
q0 355 168 560.5t460 205.5q213 0 360 -134.5t191 -371.5l-161 -39q-31 185 -135.5 289t-256.5 104q-212 0 -334 -164t-122 -450q2 -284 135.5 -448t365.5 -164q183 0 307.5 125t155.5 341z" />
    <glyph glyph-name="Egrave" unicode="&#xc8;" horiz-adv-x="1056" 
d="M567 1595l-159 263l65 38l158 -260zM123 0v1444h862v-152h-696v-473h614v-145h-614v-522h717v-152h-883z" />
    <glyph glyph-name="Eacute" unicode="&#xc9;" horiz-adv-x="1056" 
d="M598 1595l-63 41l157 260l66 -38zM123 0v1444h862v-152h-696v-473h614v-145h-614v-522h717v-152h-883z" />
    <glyph glyph-name="Ecircumflex" unicode="&#xca;" horiz-adv-x="1056" 
d="M360 1599l-57 52l213 229h109l215 -229l-58 -52l-211 224zM123 0v1444h862v-152h-696v-473h614v-145h-614v-522h717v-152h-883z" />
    <glyph glyph-name="Edieresis" unicode="&#xcb;" horiz-adv-x="1056" 
d="M350 1645q-51 0 -82.5 31t-31.5 81t31.5 81.5t82.5 31.5t84 -32t33 -81t-33 -80.5t-84 -31.5zM795 1645q-50 0 -81.5 31.5t-31.5 80.5t32 81t81 32q51 0 82.5 -31.5t31.5 -81.5t-31.5 -81t-82.5 -31zM123 0v1444h862v-152h-696v-473h614v-145h-614v-522h717v-152h-883z
" />
    <glyph glyph-name="Igrave" unicode="&#xcc;" horiz-adv-x="415" 
d="M207 1595l-178 256l61 45l176 -256zM123 0v1444h170v-1444h-170z" />
    <glyph glyph-name="Iacute" unicode="&#xcd;" horiz-adv-x="415" 
d="M211 1595l-59 45l174 256l61 -45zM123 0v1444h170v-1444h-170z" />
    <glyph glyph-name="Icircumflex" unicode="&#xce;" horiz-adv-x="415" 
d="M47 1599l-63 46l170 235h106l172 -235l-61 -46l-164 222zM123 0v1444h170v-1444h-170z" />
    <glyph glyph-name="Idieresis" unicode="&#xcf;" horiz-adv-x="415" 
d="M63 1645q-51 0 -82.5 31t-31.5 81t31.5 81.5t82.5 31.5t84 -32t33 -81t-33 -80.5t-84 -31.5zM354 1645q-50 0 -81 31.5t-31 80.5q0 50 31.5 81.5t80.5 31.5q51 0 83 -31.5t32 -81.5t-32 -81t-83 -31zM123 0v1444h170v-1444h-170z" />
    <glyph glyph-name="Ntilde" unicode="&#xd1;" horiz-adv-x="1263" 
d="M782 1597q-29 0 -53 9.5t-47.5 33t-34 36.5t-33.5 46q-5 7 -8 11q-20 29 -31 43t-29 26.5t-36 12.5q-42 0 -69 -56t-27 -141h-76q0 121 47 196.5t127 75.5q28 0 52 -9.5t46 -32.5t32.5 -36.5t33.5 -46.5q2 -3 7 -10q20 -28 30.5 -42t29 -27t37.5 -13q43 0 71 56.5
t28 142.5h77q0 -121 -47.5 -198t-126.5 -77zM123 0v1444h239l605 -1223h4v1223h170v-1444h-238l-606 1223h-4v-1223h-170z" />
    <glyph glyph-name="Ograve" unicode="&#xd2;" horiz-adv-x="1519" 
d="M756 1595l-160 263l66 38l157 -260zM760 -43q-312 0 -500 208.5t-188 555.5q0 349 187.5 557.5t500.5 208.5q312 0 500 -208.5t188 -555.5q0 -348 -188 -557t-500 -209zM760 109q235 0 375.5 167t140.5 445q0 280 -140.5 447t-375.5 167t-376.5 -167.5t-141.5 -446.5
q0 -278 141.5 -445t376.5 -167z" />
    <glyph glyph-name="Oacute" unicode="&#xd3;" horiz-adv-x="1519" 
d="M786 1595l-63 41l158 260l65 -38zM760 -43q-312 0 -500 208.5t-188 555.5q0 349 187.5 557.5t500.5 208.5q312 0 500 -208.5t188 -555.5q0 -348 -188 -557t-500 -209zM760 109q235 0 375.5 167t140.5 445q0 280 -140.5 447t-375.5 167t-376.5 -167.5t-141.5 -446.5
q0 -278 141.5 -445t376.5 -167z" />
    <glyph glyph-name="Ocircumflex" unicode="&#xd4;" horiz-adv-x="1519" 
d="M549 1599l-57 52l213 229h108l215 -229l-57 -52l-211 224zM760 -43q-312 0 -500 208.5t-188 555.5q0 349 187.5 557.5t500.5 208.5q312 0 500 -208.5t188 -555.5q0 -348 -188 -557t-500 -209zM760 109q235 0 375.5 167t140.5 445q0 280 -140.5 447t-375.5 167
t-376.5 -167.5t-141.5 -446.5q0 -278 141.5 -445t376.5 -167z" />
    <glyph glyph-name="Otilde" unicode="&#xd5;" horiz-adv-x="1519" 
d="M899 1597q-29 0 -53 9.5t-47.5 33t-34 36.5t-33.5 46q-5 7 -8 11q-20 29 -31 43t-29 26.5t-36 12.5q-43 0 -70 -56t-27 -141h-75q0 121 47 196.5t127 75.5q28 0 52 -9.5t46 -32.5t32.5 -36.5t33.5 -46.5q2 -3 7 -10q20 -28 30.5 -42t29 -27t37.5 -13q43 0 70.5 56.5
t27.5 142.5h78q0 -121 -47.5 -198t-126.5 -77zM760 -43q-312 0 -500 208.5t-188 555.5q0 349 187.5 557.5t500.5 208.5q312 0 500 -208.5t188 -555.5q0 -348 -188 -557t-500 -209zM760 109q235 0 375.5 167t140.5 445q0 280 -140.5 447t-375.5 167t-376.5 -167.5
t-141.5 -446.5q0 -278 141.5 -445t376.5 -167z" />
    <glyph glyph-name="Odieresis" unicode="&#xd6;" horiz-adv-x="1519" 
d="M539 1645q-51 0 -83 31t-32 81t32 81.5t83 31.5t83.5 -31.5t32.5 -81.5q0 -49 -32.5 -80.5t-83.5 -31.5zM983 1645q-50 0 -81.5 31.5t-31.5 80.5t32 81t81 32q51 0 83 -31.5t32 -81.5t-32 -81t-83 -31zM760 -43q-312 0 -500 208.5t-188 555.5q0 349 187.5 557.5
t500.5 208.5q312 0 500 -208.5t188 -555.5q0 -348 -188 -557t-500 -209zM760 109q235 0 375.5 167t140.5 445q0 280 -140.5 447t-375.5 167t-376.5 -167.5t-141.5 -446.5q0 -278 141.5 -445t376.5 -167z" />
    <glyph glyph-name="multiply" unicode="&#xd7;" horiz-adv-x="741" 
d="M199 434l-97 92l181 224l-181 223l97 92l172 -213l172 211l96 -92l-180 -221l180 -224l-94 -92l-174 211z" />
    <glyph glyph-name="Oslash" unicode="&#xd8;" horiz-adv-x="1519" 
d="M1014 1444q204 -74 319 -263.5t115 -457.5q0 -348 -188 -557t-500 -209q-90 0 -170 18l-74 -256l-74 19l74 258q-207 73 -325.5 263.5t-118.5 461.5q0 349 187.5 557.5t500.5 208.5q94 0 180 -21l59 209l76 -22zM242 721q0 -212 84 -363t233 -213l338 1174
q-69 16 -137 16q-235 0 -376.5 -167.5t-141.5 -446.5zM760 109q235 0 375.5 167t140.5 445q0 209 -80.5 358t-224.5 213l-338 -1169q55 -14 127 -14z" />
    <glyph glyph-name="Ugrave" unicode="&#xd9;" horiz-adv-x="1251" 
d="M618 1595l-159 263l65 38l158 -260zM627 -43q-239 0 -382 143.5t-143 384.5v959h170v-959q0 -166 97 -271t258 -105q162 0 257 102t95 276v957h170v-959q0 -241 -142 -384.5t-380 -143.5z" />
    <glyph glyph-name="Uacute" unicode="&#xda;" horiz-adv-x="1251" 
d="M649 1595l-63 41l157 260l66 -38zM627 -43q-239 0 -382 143.5t-143 384.5v959h170v-959q0 -166 97 -271t258 -105q162 0 257 102t95 276v957h170v-959q0 -241 -142 -384.5t-380 -143.5z" />
    <glyph glyph-name="Ucircumflex" unicode="&#xdb;" horiz-adv-x="1251" 
d="M414 1599l-58 52l213 229h109l215 -229l-57 -52l-211 224zM627 -43q-239 0 -382 143.5t-143 384.5v959h170v-959q0 -166 97 -271t258 -105q162 0 257 102t95 276v957h170v-959q0 -241 -142 -384.5t-380 -143.5z" />
    <glyph glyph-name="Udieresis" unicode="&#xdc;" horiz-adv-x="1251" 
d="M403 1645q-51 0 -82.5 31t-31.5 81t31.5 81.5t82.5 31.5t84 -32t33 -81t-33 -80.5t-84 -31.5zM848 1645q-50 0 -81.5 31.5t-31.5 80.5t31.5 81t81.5 32q51 0 83 -31.5t32 -81.5t-32 -81t-83 -31zM627 -43q-239 0 -382 143.5t-143 384.5v959h170v-959q0 -166 97 -271
t258 -105q162 0 257 102t95 276v957h170v-959q0 -241 -142 -384.5t-380 -143.5z" />
    <glyph glyph-name="Yacute" unicode="&#xdd;" horiz-adv-x="1132" 
d="M590 1595l-64 41l158 260l66 -38zM483 0v537l-463 907h185l362 -729h2l355 729h188l-459 -907v-537h-170z" />
    <glyph glyph-name="germandbls" unicode="&#xdf;" horiz-adv-x="1069" 
d="M817 571q100 -68 145.5 -140t45.5 -165q0 -131 -85.5 -211t-222.5 -80q-148 0 -237.5 103.5t-89.5 273.5l147 35q0 -125 51 -198.5t136 -73.5q67 0 105 36.5t38 104.5q0 53 -30 98t-97 92l-137 97q-88 60 -127 115.5t-39 119.5q0 105 74.5 172.5t226.5 106.5
q12 59 12 110q0 103 -57 161t-152 58q-116 0 -184 -90t-68 -247v-1049h-170v1065q0 221 114.5 347t311.5 126q165 0 269 -99.5t104 -273.5q0 -122 -37 -209q-153 -23 -218.5 -60.5t-65.5 -96.5q0 -31 25.5 -62t82.5 -73z" />
    <glyph glyph-name="agrave" unicode="&#xe0;" horiz-adv-x="1107" 
d="M487 1227l-190 303l65 41l189 -303zM393 -31q-155 0 -253.5 82.5t-98.5 216.5t104 223.5t318 116.5l199 25q38 5 59.5 28t21.5 62q0 93 -70 149t-181 56q-123 0 -203.5 -74.5t-83.5 -177.5l-139 59q9 140 130 237t302 97q180 0 288.5 -101t108.5 -268v-520
q0 -32 14 -49.5t39 -17.5q44 0 84 55l76 -102q-33 -46 -86 -71.5t-109 -25.5q-73 0 -118 42.5t-54 111.5l-2 35h-2q-52 -90 -140 -139.5t-204 -49.5zM426 111q136 0 224.5 90.5t88.5 234.5v70l-254 -31q-149 -19 -218.5 -71.5t-69.5 -127.5t64 -120t165 -45z" />
    <glyph glyph-name="aacute" unicode="&#xe1;" horiz-adv-x="1107" 
d="M516 1227l-65 41l188 303l66 -41zM393 -31q-155 0 -253.5 82.5t-98.5 216.5t104 223.5t318 116.5l199 25q38 5 59.5 28t21.5 62q0 93 -70 149t-181 56q-123 0 -203.5 -74.5t-83.5 -177.5l-139 59q9 140 130 237t302 97q180 0 288.5 -101t108.5 -268v-520q0 -32 14 -49.5
t39 -17.5q44 0 84 55l76 -102q-33 -46 -86 -71.5t-109 -25.5q-73 0 -118 42.5t-54 111.5l-2 35h-2q-52 -90 -140 -139.5t-204 -49.5zM426 111q136 0 224.5 90.5t88.5 234.5v70l-254 -31q-149 -19 -218.5 -71.5t-69.5 -127.5t64 -120t165 -45z" />
    <glyph glyph-name="acircumflex" unicode="&#xe2;" horiz-adv-x="1107" 
d="M250 1210l-57 52l251 270h107l254 -270l-57 -52l-250 265zM393 -31q-155 0 -253.5 82.5t-98.5 216.5t104 223.5t318 116.5l199 25q38 5 59.5 28t21.5 62q0 93 -70 149t-181 56q-123 0 -203.5 -74.5t-83.5 -177.5l-139 59q9 140 130 237t302 97q180 0 288.5 -101
t108.5 -268v-520q0 -32 14 -49.5t39 -17.5q44 0 84 55l76 -102q-33 -46 -86 -71.5t-109 -25.5q-73 0 -118 42.5t-54 111.5l-2 35h-2q-52 -90 -140 -139.5t-204 -49.5zM426 111q136 0 224.5 90.5t88.5 234.5v70l-254 -31q-149 -19 -218.5 -71.5t-69.5 -127.5t64 -120t165 -45
z" />
    <glyph glyph-name="atilde" unicode="&#xe3;" horiz-adv-x="1107" 
d="M633 1208q-51 0 -86.5 29.5t-73.5 83.5q-3 4 -11 15.5t-11 16t-10 14t-11 14t-10.5 12t-11 11t-11 8.5t-12 7.5t-12 4t-13.5 1.5q-42 0 -69 -55.5t-27 -140.5h-76q0 121 47 196.5t127 75.5q51 0 86.5 -30.5t73.5 -86.5q22 -35 34 -51t33 -32.5t42 -16.5q43 0 70.5 56.5
t27.5 142.5h78q0 -121 -47.5 -198t-126.5 -77zM393 -31q-155 0 -253.5 82.5t-98.5 216.5t104 223.5t318 116.5l199 25q38 5 59.5 28t21.5 62q0 93 -70 149t-181 56q-123 0 -203.5 -74.5t-83.5 -177.5l-139 59q9 140 130 237t302 97q180 0 288.5 -101t108.5 -268v-520
q0 -32 14 -49.5t39 -17.5q44 0 84 55l76 -102q-33 -46 -86 -71.5t-109 -25.5q-73 0 -118 42.5t-54 111.5l-2 35h-2q-52 -90 -140 -139.5t-204 -49.5zM426 111q136 0 224.5 90.5t88.5 234.5v70l-254 -31q-149 -19 -218.5 -71.5t-69.5 -127.5t64 -120t165 -45z" />
    <glyph glyph-name="adieresis" unicode="&#xe4;" horiz-adv-x="1107" 
d="M287 1237q-51 0 -83 32.5t-32 82.5q0 49 32 79.5t83 30.5t82.5 -30.5t31.5 -79.5q0 -50 -31.5 -82.5t-82.5 -32.5zM705 1237q-51 0 -83 32.5t-32 82.5q0 49 32 79.5t83 30.5t82.5 -30.5t31.5 -79.5q0 -50 -31.5 -82.5t-82.5 -32.5zM393 -31q-155 0 -253.5 82.5
t-98.5 216.5t104 223.5t318 116.5l199 25q38 5 59.5 28t21.5 62q0 93 -70 149t-181 56q-123 0 -203.5 -74.5t-83.5 -177.5l-139 59q9 140 130 237t302 97q180 0 288.5 -101t108.5 -268v-520q0 -32 14 -49.5t39 -17.5q44 0 84 55l76 -102q-33 -46 -86 -71.5t-109 -25.5
q-73 0 -118 42.5t-54 111.5l-2 35h-2q-52 -90 -140 -139.5t-204 -49.5zM426 111q136 0 224.5 90.5t88.5 234.5v70l-254 -31q-149 -19 -218.5 -71.5t-69.5 -127.5t64 -120t165 -45z" />
    <glyph glyph-name="aring" unicode="&#xe5;" horiz-adv-x="1107" 
d="M496 1212q-83 0 -137 54t-54 137q-1 83 52.5 136.5t138.5 53.5q83 0 135.5 -53t54.5 -137q0 -84 -53 -137.5t-137 -53.5zM494 1288q51 0 82.5 32.5t31.5 82.5t-31.5 82.5t-82.5 32.5q-48 0 -81.5 -33t-33.5 -82t33.5 -82t81.5 -33zM393 -31q-155 0 -253.5 82.5
t-98.5 216.5t104 223.5t318 116.5l199 25q38 5 59.5 28t21.5 62q0 93 -70 149t-181 56q-123 0 -203.5 -74.5t-83.5 -177.5l-139 59q9 140 130 237t302 97q180 0 288.5 -101t108.5 -268v-520q0 -32 14 -49.5t39 -17.5q44 0 84 55l76 -102q-33 -46 -86 -71.5t-109 -25.5
q-73 0 -118 42.5t-54 111.5l-2 35h-2q-52 -90 -140 -139.5t-204 -49.5zM426 111q136 0 224.5 90.5t88.5 234.5v70l-254 -31q-149 -19 -218.5 -71.5t-69.5 -127.5t64 -120t165 -45z" />
    <glyph glyph-name="ae" unicode="&#xe6;" horiz-adv-x="1675" 
d="M406 -35q-158 0 -261.5 83.5t-103.5 215.5q0 130 102 219t293 113l232 29q34 3 55.5 28t21.5 64q0 97 -67.5 153t-171.5 56q-125 0 -204.5 -69t-82.5 -163l-139 60q9 130 123.5 222.5t283.5 92.5q122 0 218 -55t139 -156q53 99 143 155t199 56q182 0 293.5 -148
t111.5 -393q0 -42 -2 -65h-676q17 -161 103.5 -259t212.5 -98q90 0 158.5 55t105.5 156l135 -59q-51 -140 -155.5 -216.5t-241.5 -76.5q-142 0 -247.5 80.5t-143.5 216.5q-41 -139 -158 -218t-276 -79zM915 600h512q-5 148 -74 237t-179 89q-105 0 -176 -89.5t-83 -236.5z
M432 106q140 0 228 90t88 234v72l-306 -37q-111 -14 -178 -65.5t-67 -125.5q0 -75 65.5 -121.5t169.5 -46.5z" />
    <glyph glyph-name="ccedilla" unicode="&#xe7;" horiz-adv-x="1046" 
d="M1006 371q-26 -174 -144 -284.5t-287 -121.5l-8 -63q91 -6 144 -48t53 -114q0 -74 -50.5 -118t-135.5 -44q-59 0 -113.5 31.5t-79.5 79.5l61 47q17 -35 54 -57.5t78 -22.5q50 0 79 21.5t29 58.5q1 42 -35.5 67t-97.5 25h-72l17 139q-200 17 -318.5 166t-118.5 383
q0 250 124 401.5t327 151.5q155 0 267.5 -96t146.5 -256l-150 -39q-26 115 -98 183.5t-166 68.5q-132 0 -213.5 -113t-81.5 -301q0 -187 90.5 -299.5t237.5 -112.5q120 0 205.5 83t105.5 219z" />
    <glyph glyph-name="egrave" unicode="&#xe8;" horiz-adv-x="1058" 
d="M516 1227l-190 303l65 41l189 -303zM573 -35q-231 0 -371.5 154t-140.5 409q0 245 128.5 393t340.5 148q205 0 327 -148t122 -395v-61h-758q11 -163 107 -261t245 -98q109 0 189.5 55t114.5 152l135 -61q-43 -132 -162.5 -209.5t-276.5 -77.5zM221 600h594
q-10 155 -85 240.5t-200 85.5q-131 0 -211 -87t-98 -239z" />
    <glyph glyph-name="eacute" unicode="&#xe9;" horiz-adv-x="1058" 
d="M545 1227l-66 41l189 303l65 -41zM573 -35q-231 0 -371.5 154t-140.5 409q0 245 128.5 393t340.5 148q205 0 327 -148t122 -395v-61h-758q11 -163 107 -261t245 -98q109 0 189.5 55t114.5 152l135 -61q-43 -132 -162.5 -209.5t-276.5 -77.5zM221 600h594
q-10 155 -85 240.5t-200 85.5q-131 0 -211 -87t-98 -239z" />
    <glyph glyph-name="ecircumflex" unicode="&#xea;" horiz-adv-x="1058" 
d="M279 1210l-58 52l252 270h107l254 -270l-58 -52l-250 265zM573 -35q-231 0 -371.5 154t-140.5 409q0 245 128.5 393t340.5 148q205 0 327 -148t122 -395v-61h-758q11 -163 107 -261t245 -98q109 0 189.5 55t114.5 152l135 -61q-43 -132 -162.5 -209.5t-276.5 -77.5z
M221 600h594q-10 155 -85 240.5t-200 85.5q-131 0 -211 -87t-98 -239z" />
    <glyph glyph-name="edieresis" unicode="&#xeb;" horiz-adv-x="1058" 
d="M315 1237q-51 0 -82.5 32.5t-31.5 82.5q0 49 31.5 79.5t82.5 30.5t83 -30.5t32 -79.5q0 -50 -32 -82.5t-83 -32.5zM733 1237q-51 0 -83 32.5t-32 82.5q0 49 32 79.5t83 30.5t83 -30.5t32 -79.5q0 -50 -32 -82.5t-83 -32.5zM573 -35q-231 0 -371.5 154t-140.5 409
q0 245 128.5 393t340.5 148q205 0 327 -148t122 -395v-61h-758q11 -163 107 -261t245 -98q109 0 189.5 55t114.5 152l135 -61q-43 -132 -162.5 -209.5t-276.5 -77.5zM221 600h594q-10 155 -85 240.5t-200 85.5q-131 0 -211 -87t-98 -239z" />
    <glyph glyph-name="igrave" unicode="&#xec;" horiz-adv-x="360" 
d="M176 1229l-215 297l64 45l213 -297zM102 0v1034h156v-1034h-156z" />
    <glyph glyph-name="iacute" unicode="&#xed;" horiz-adv-x="360" 
d="M186 1229l-61 45l211 297l63 -45zM102 0v1034h156v-1034h-156z" />
    <glyph glyph-name="icircumflex" unicode="&#xee;" horiz-adv-x="360" 
d="M-10 1210l-64 45l199 277h108l201 -277l-63 -45l-193 263zM102 0v1034h156v-1034h-156z" />
    <glyph glyph-name="idieresis" unicode="&#xef;" horiz-adv-x="362" 
d="M37 1235q-53 0 -84 31.5t-31 83.5q0 51 31.5 81.5t83.5 30.5q53 0 85 -30.5t32 -81.5q0 -52 -32 -83.5t-85 -31.5zM326 1235q-52 0 -83.5 31.5t-31.5 83.5q0 51 31.5 81.5t83.5 30.5q51 0 82.5 -30.5t31.5 -81.5q0 -52 -31.5 -83.5t-82.5 -31.5zM102 0v1034h156v-1034
h-156z" />
    <glyph glyph-name="ntilde" unicode="&#xf1;" 
d="M670 1208q-51 0 -86.5 29.5t-73.5 83.5q-3 4 -11 15.5t-11 16t-10 14t-11 14t-10.5 12t-11 11t-11 8.5t-12 7.5t-12 4t-13.5 1.5q-42 0 -69 -55.5t-27 -140.5h-76q0 121 47 196.5t127 75.5q51 0 86.5 -30.5t73.5 -86.5q22 -35 34 -51t33 -32.5t42 -16.5q43 0 70.5 56.5
t27.5 142.5h78q0 -121 -47.5 -198t-126.5 -77zM596 1067q153 0 238.5 -92.5t85.5 -257.5v-717h-156v705q0 105 -57.5 166t-155.5 61q-132 0 -212.5 -82.5t-80.5 -220.5v-629h-156v1034h142l14 -141h2q107 174 336 174z" />
    <glyph glyph-name="ograve" unicode="&#xf2;" horiz-adv-x="1101" 
d="M543 1227l-191 303l66 41l188 -303zM551 -35q-223 0 -356.5 150.5t-133.5 402.5q0 250 133.5 400.5t356.5 150.5t356 -150t133 -401q0 -252 -133 -402.5t-356 -150.5zM551 106q152 0 243 112t91 300q0 186 -91 297t-243 111t-243 -111t-91 -297q0 -188 91 -300t243 -112z
" />
    <glyph glyph-name="oacute" unicode="&#xf3;" horiz-adv-x="1101" 
d="M571 1227l-65 41l188 303l66 -41zM551 -35q-223 0 -356.5 150.5t-133.5 402.5q0 250 133.5 400.5t356.5 150.5t356 -150t133 -401q0 -252 -133 -402.5t-356 -150.5zM551 106q152 0 243 112t91 300q0 186 -91 297t-243 111t-243 -111t-91 -297q0 -188 91 -300t243 -112z
" />
    <glyph glyph-name="ocircumflex" unicode="&#xf4;" horiz-adv-x="1101" 
d="M305 1210l-57 52l252 270h106l254 -270l-57 -52l-250 265zM551 -35q-223 0 -356.5 150.5t-133.5 402.5q0 250 133.5 400.5t356.5 150.5t356 -150t133 -401q0 -252 -133 -402.5t-356 -150.5zM551 106q152 0 243 112t91 300q0 186 -91 297t-243 111t-243 -111t-91 -297
q0 -188 91 -300t243 -112z" />
    <glyph glyph-name="otilde" unicode="&#xf5;" horiz-adv-x="1101" 
d="M688 1208q-51 0 -86.5 29.5t-73.5 83.5q-4 5 -12 17t-12 17.5t-11.5 15.5t-12 15t-11.5 12.5t-12.5 11.5t-12.5 8t-14 5.5t-14 1.5q-43 0 -70 -55.5t-27 -140.5h-75q0 121 47 196.5t127 75.5q51 0 86.5 -30.5t73.5 -86.5q18 -28 25.5 -38.5t23 -29t29.5 -25.5t30 -7
q43 0 70.5 56.5t27.5 142.5h78q0 -121 -47.5 -198t-126.5 -77zM551 -35q-223 0 -356.5 150.5t-133.5 402.5q0 250 133.5 400.5t356.5 150.5t356 -150t133 -401q0 -252 -133 -402.5t-356 -150.5zM551 106q152 0 243 112t91 300q0 186 -91 297t-243 111t-243 -111t-91 -297
q0 -188 91 -300t243 -112z" />
    <glyph glyph-name="odieresis" unicode="&#xf6;" horiz-adv-x="1101" 
d="M342 1237q-51 0 -83 32.5t-32 82.5q0 49 32 79.5t83 30.5t83 -30.5t32 -79.5q0 -50 -32 -82.5t-83 -32.5zM760 1237q-51 0 -83 32.5t-32 82.5q0 49 32 79.5t83 30.5t82.5 -30.5t31.5 -79.5q0 -50 -31.5 -82.5t-82.5 -32.5zM551 -35q-223 0 -356.5 150.5t-133.5 402.5
q0 250 133.5 400.5t356.5 150.5t356 -150t133 -401q0 -252 -133 -402.5t-356 -150.5zM551 106q152 0 243 112t91 300q0 186 -91 297t-243 111t-243 -111t-91 -297q0 -188 91 -300t243 -112z" />
    <glyph glyph-name="divide" unicode="&#xf7;" horiz-adv-x="1003" 
d="M502 987q-51 0 -83 32t-32 83q0 50 32 81t83 31t82.5 -31t31.5 -81q0 -51 -31.5 -83t-82.5 -32zM102 698v76h799v-76h-799zM502 262q-51 0 -83 32t-32 83q0 50 32 81t83 31t82.5 -31t31.5 -81q0 -51 -31.5 -83t-82.5 -32z" />
    <glyph glyph-name="oslash" unicode="&#xf8;" horiz-adv-x="1101" 
d="M745 1032q139 -56 217 -190.5t78 -323.5q0 -252 -133 -402.5t-356 -150.5q-53 0 -111 10l-135 -467l-74 21l136 469q-144 54 -225 190.5t-81 329.5q0 250 133.5 400.5t356.5 150.5q63 0 119 -12l116 409l78 -22zM217 518q0 -136 50 -235t139 -144l223 779q-33 8 -78 8
q-152 0 -243 -111t-91 -297zM551 106q152 0 243 112t91 300q0 133 -47.5 229.5t-132.5 141.5l-226 -776q40 -7 72 -7z" />
    <glyph glyph-name="ugrave" unicode="&#xf9;" 
d="M492 1227l-191 303l66 41l188 -303zM416 -33q-153 0 -238.5 92.5t-85.5 257.5v717h156v-704q0 -106 57.5 -167t155.5 -61q132 0 212.5 83t80.5 221v628h155v-1034h-141l-14 141h-2q-107 -174 -336 -174z" />
    <glyph glyph-name="uacute" unicode="&#xfa;" 
d="M520 1227l-65 41l188 303l66 -41zM416 -33q-153 0 -238.5 92.5t-85.5 257.5v717h156v-704q0 -106 57.5 -167t155.5 -61q132 0 212.5 83t80.5 221v628h155v-1034h-141l-14 141h-2q-107 -174 -336 -174z" />
    <glyph glyph-name="ucircumflex" unicode="&#xfb;" 
d="M254 1210l-57 52l252 270h106l254 -270l-57 -52l-250 265zM416 -33q-153 0 -238.5 92.5t-85.5 257.5v717h156v-704q0 -106 57.5 -167t155.5 -61q132 0 212.5 83t80.5 221v628h155v-1034h-141l-14 141h-2q-107 -174 -336 -174z" />
    <glyph glyph-name="udieresis" unicode="&#xfc;" 
d="M291 1237q-51 0 -83 32.5t-32 82.5q0 49 32 79.5t83 30.5t83 -30.5t32 -79.5q0 -50 -32 -82.5t-83 -32.5zM709 1237q-51 0 -83 32.5t-32 82.5q0 49 32 79.5t83 30.5t82.5 -30.5t31.5 -79.5q0 -50 -31.5 -82.5t-82.5 -32.5zM416 -33q-153 0 -238.5 92.5t-85.5 257.5v717
h156v-704q0 -106 57.5 -167t155.5 -61q132 0 212.5 83t80.5 221v628h155v-1034h-141l-14 141h-2q-107 -174 -336 -174z" />
    <glyph glyph-name="yacute" unicode="&#xfd;" horiz-adv-x="1005" 
d="M520 1227l-65 41l188 303l66 -41zM432 -465q-163 0 -285.5 70t-179.5 194l129 95q45 -101 133 -159.5t203 -58.5q147 0 231.5 88.5t84.5 243.5v88h-3q-44 -79 -124 -125.5t-172 -46.5q-166 0 -264.5 109.5t-98.5 290.5v710h156v-710q0 -118 62 -188t169 -70q118 0 195 78
t77 204v686h158v-1026q0 -222 -125.5 -347.5t-345.5 -125.5z" />
    <glyph glyph-name="ydieresis" unicode="&#xff;" horiz-adv-x="1005" 
d="M291 1237q-51 0 -83 32.5t-32 82.5q0 49 32 79.5t83 30.5t83 -30.5t32 -79.5q0 -50 -32 -82.5t-83 -32.5zM709 1237q-51 0 -83 32.5t-32 82.5q0 49 32 79.5t83 30.5t82.5 -30.5t31.5 -79.5q0 -50 -31.5 -82.5t-82.5 -32.5zM432 -465q-163 0 -285.5 70t-179.5 194l129 95
q45 -101 133 -159.5t203 -58.5q147 0 231.5 88.5t84.5 243.5v88h-3q-44 -79 -124 -125.5t-172 -46.5q-166 0 -264.5 109.5t-98.5 290.5v710h156v-710q0 -118 62 -188t169 -70q118 0 195 78t77 204v686h158v-1026q0 -222 -125.5 -347.5t-345.5 -125.5z" />
    <glyph glyph-name="Amacron" unicode="&#x100;" horiz-adv-x="1241" 
d="M352 1634v78h537v-78h-537zM20 0l492 1444h215l494 -1444h-179l-114 346h-615l-114 -346h-179zM358 498h525l-258 786h-4z" />
    <glyph glyph-name="amacron" unicode="&#x101;" horiz-adv-x="1107" 
d="M227 1225v78h537v-78h-537zM393 -31q-155 0 -253.5 82.5t-98.5 216.5t104 223.5t318 116.5l199 25q38 5 59.5 28t21.5 62q0 93 -70 149t-181 56q-123 0 -203.5 -74.5t-83.5 -177.5l-139 59q9 140 130 237t302 97q180 0 288.5 -101t108.5 -268v-520q0 -32 14 -49.5
t39 -17.5q44 0 84 55l76 -102q-33 -46 -86 -71.5t-109 -25.5q-73 0 -118 42.5t-54 111.5l-2 35h-2q-52 -90 -140 -139.5t-204 -49.5zM426 111q136 0 224.5 90.5t88.5 234.5v70l-254 -31q-149 -19 -218.5 -71.5t-69.5 -127.5t64 -120t165 -45z" />
    <glyph glyph-name="Abreve" unicode="&#x102;" horiz-adv-x="1241" 
d="M625 1618q-108 0 -179 74t-71 188h78q0 -80 48.5 -132t123.5 -52t123.5 52t48.5 132h77q0 -114 -70 -188t-179 -74zM20 0l492 1444h215l494 -1444h-179l-114 346h-615l-114 -346h-179zM358 498h525l-258 786h-4z" />
    <glyph glyph-name="abreve" unicode="&#x103;" horiz-adv-x="1107" 
d="M496 1212q-126 0 -206.5 90t-80.5 230h78q0 -105 58.5 -173.5t148.5 -68.5q92 0 151.5 68t59.5 174h75q1 -139 -79 -229.5t-205 -90.5zM393 -31q-155 0 -253.5 82.5t-98.5 216.5t104 223.5t318 116.5l199 25q38 5 59.5 28t21.5 62q0 93 -70 149t-181 56
q-123 0 -203.5 -74.5t-83.5 -177.5l-139 59q9 140 130 237t302 97q180 0 288.5 -101t108.5 -268v-520q0 -32 14 -49.5t39 -17.5q44 0 84 55l76 -102q-33 -46 -86 -71.5t-109 -25.5q-73 0 -118 42.5t-54 111.5l-2 35h-2q-52 -90 -140 -139.5t-204 -49.5zM426 111
q136 0 224.5 90.5t88.5 234.5v70l-254 -31q-149 -19 -218.5 -71.5t-69.5 -127.5t64 -120t165 -45z" />
    <glyph glyph-name="Aogonek" unicode="&#x104;" horiz-adv-x="1241" 
d="M1214 0q-71 -29 -113 -47.5t-89 -44t-71 -48t-40.5 -51t-15.5 -61.5q0 -42 25 -66t69 -24q34 0 72.5 22t68.5 60l54 -53q-38 -49 -92.5 -78t-106.5 -29q-75 0 -121.5 43.5t-48.5 114.5q-3 83 57 145.5t180 118.5l-114 344h-615l-114 -346h-179l492 1444h215l494 -1444h-7
zM358 498h525l-258 786h-4z" />
    <glyph glyph-name="aogonek" unicode="&#x105;" horiz-adv-x="1107" 
d="M969 -25q-142 -60 -207 -109t-64 -118q0 -41 25.5 -65.5t69.5 -24.5q34 0 72.5 22t68.5 60l53 -53q-38 -49 -92.5 -78t-106.5 -29q-75 0 -121.5 43.5t-48.5 114.5q-1 78 51.5 138t157.5 114q-73 37 -86 133l-2 35h-2q-52 -90 -140 -139.5t-204 -49.5q-155 0 -253.5 82.5
t-98.5 216.5t104 223.5t318 116.5l199 25q38 5 59.5 28t21.5 62q0 93 -70 149t-181 56q-123 0 -203.5 -74.5t-83.5 -177.5l-139 59q9 140 130 237t302 97q180 0 288.5 -101t108.5 -268v-520q0 -32 14 -49.5t39 -17.5q44 0 84 55l76 -102q-50 -72 -139 -91zM739 436v70
l-254 -31q-149 -19 -218.5 -71.5t-69.5 -127.5t64 -120t165 -45q136 0 224.5 90.5t88.5 234.5z" />
    <glyph glyph-name="Cacute" unicode="&#x106;" horiz-adv-x="1409" 
d="M721 1595l-64 41l158 260l66 -38zM743 -43q-312 0 -491.5 204.5t-179.5 559.5t168 560.5t460 205.5q213 0 360 -134.5t191 -371.5l-161 -39q-31 185 -135.5 289t-256.5 104q-212 0 -334 -164t-122 -450q2 -284 135.5 -448t365.5 -164q183 0 307.5 125t155.5 341l162 -40
q-38 -267 -207 -422.5t-418 -155.5z" />
    <glyph glyph-name="cacute" unicode="&#x107;" horiz-adv-x="1046" 
d="M532 1227l-65 41l188 303l66 -41zM545 -35q-220 0 -352 151t-132 400q0 250 124 401.5t327 151.5q155 0 267.5 -96t146.5 -256l-150 -39q-26 115 -98 183.5t-166 68.5q-132 0 -213.5 -113t-81.5 -301q0 -187 90.5 -299.5t237.5 -112.5q120 0 205.5 83t105.5 219l150 -35
q-28 -183 -154.5 -294.5t-306.5 -111.5z" />
    <glyph glyph-name="Ccircumflex" unicode="&#x108;" horiz-adv-x="1409" 
d="M485 1599l-57 52l213 229h109l215 -229l-58 -52l-211 224zM743 -43q-312 0 -491.5 204.5t-179.5 559.5t168 560.5t460 205.5q213 0 360 -134.5t191 -371.5l-161 -39q-31 185 -135.5 289t-256.5 104q-212 0 -334 -164t-122 -450q2 -284 135.5 -448t365.5 -164
q183 0 307.5 125t155.5 341l162 -40q-38 -267 -207 -422.5t-418 -155.5z" />
    <glyph glyph-name="ccircumflex" unicode="&#x109;" horiz-adv-x="1046" 
d="M266 1210l-57 52l252 270h106l254 -270l-57 -52l-250 265zM545 -35q-220 0 -352 151t-132 400q0 250 124 401.5t327 151.5q155 0 267.5 -96t146.5 -256l-150 -39q-26 115 -98 183.5t-166 68.5q-132 0 -213.5 -113t-81.5 -301q0 -187 90.5 -299.5t237.5 -112.5
q120 0 205.5 83t105.5 219l150 -35q-28 -183 -154.5 -294.5t-306.5 -111.5z" />
    <glyph glyph-name="Cdotaccent" unicode="&#x10a;" horiz-adv-x="1409" 
d="M698 1645q-51 0 -82.5 31.5t-31.5 82.5q0 50 31.5 81.5t82.5 31.5t83 -31.5t32 -81.5q0 -51 -32 -82.5t-83 -31.5zM743 -43q-312 0 -491.5 204.5t-179.5 559.5t168 560.5t460 205.5q213 0 360 -134.5t191 -371.5l-161 -39q-31 185 -135.5 289t-256.5 104
q-212 0 -334 -164t-122 -450q2 -284 135.5 -448t365.5 -164q183 0 307.5 125t155.5 341l162 -40q-38 -267 -207 -422.5t-418 -155.5z" />
    <glyph glyph-name="cdotaccent" unicode="&#x10b;" horiz-adv-x="1046" 
d="M512 1235q-51 0 -83 32t-32 83q0 50 32 81t83 31q50 0 82.5 -31.5t32.5 -80.5q0 -51 -32.5 -83t-82.5 -32zM545 -35q-220 0 -352 151t-132 400q0 250 124 401.5t327 151.5q155 0 267.5 -96t146.5 -256l-150 -39q-26 115 -98 183.5t-166 68.5q-132 0 -213.5 -113
t-81.5 -301q0 -187 90.5 -299.5t237.5 -112.5q120 0 205.5 83t105.5 219l150 -35q-28 -183 -154.5 -294.5t-306.5 -111.5z" />
    <glyph glyph-name="Ccaron" unicode="&#x10c;" horiz-adv-x="1409" 
d="M641 1618l-213 229l57 51l211 -223l211 223l58 -51l-215 -229h-109zM743 -43q-312 0 -491.5 204.5t-179.5 559.5t168 560.5t460 205.5q213 0 360 -134.5t191 -371.5l-161 -39q-31 185 -135.5 289t-256.5 104q-212 0 -334 -164t-122 -450q2 -284 135.5 -448t365.5 -164
q183 0 307.5 125t155.5 341l162 -40q-38 -267 -207 -422.5t-418 -155.5z" />
    <glyph glyph-name="ccaron" unicode="&#x10d;" horiz-adv-x="1046" 
d="M457 1233l-252 270l57 51l248 -264l250 264l57 -51l-254 -270h-106zM545 -35q-220 0 -352 151t-132 400q0 250 124 401.5t327 151.5q155 0 267.5 -96t146.5 -256l-150 -39q-26 115 -98 183.5t-166 68.5q-132 0 -213.5 -113t-81.5 -301q0 -187 90.5 -299.5t237.5 -112.5
q120 0 205.5 83t105.5 219l150 -35q-28 -183 -154.5 -294.5t-306.5 -111.5z" />
    <glyph glyph-name="Dcaron" unicode="&#x10e;" horiz-adv-x="1351" 
d="M580 1618l-213 229l57 51l211 -223l211 223l57 -51l-215 -229h-108zM123 0v1444h459q341 0 519.5 -187.5t178.5 -535.5q0 -347 -179 -534t-519 -187h-459zM293 152h289q259 0 393.5 147.5t134.5 421.5t-134.5 422.5t-393.5 148.5h-289v-1140z" />
    <glyph glyph-name="dcaron" unicode="&#x10f;" horiz-adv-x="1122" 
d="M516 -35q-203 0 -329 152t-126 399q0 248 126 400.5t329 152.5q114 0 202.5 -52.5t143.5 -148.5h2v637h156v-1505h-135l-17 170h-2q-53 -98 -143.5 -151.5t-206.5 -53.5zM1114 1139l14 67q62 -12 98 13.5t29 78.5q-49 -17 -93 13t-44 80q0 38 27 64t67 26q54 0 87.5 -47
t33.5 -125q0 -103 -60 -147t-159 -23zM543 113q146 0 235.5 111.5t89.5 291.5q0 181 -89.5 293.5t-235.5 112.5t-236 -112.5t-90 -293.5q0 -180 90.5 -291.5t235.5 -111.5z" />
    <glyph glyph-name="Dcroat" unicode="&#x110;" horiz-adv-x="1458" 
d="M688 1444q339 0 518.5 -187.5t179.5 -535.5q0 -346 -179.5 -533.5t-518.5 -187.5h-459v788h-229v78h229v578h459zM688 152q258 0 393.5 148t135.5 421q0 274 -135.5 422.5t-393.5 148.5h-289v-426h359v-78h-359v-636h289z" />
    <glyph glyph-name="dcroat" unicode="&#x111;" horiz-adv-x="1130" 
d="M1212 1313v-78h-192v-1235h-135l-17 170h-2q-53 -98 -143.5 -151.5t-206.5 -53.5q-203 0 -329 152t-126 399q0 248 126 400.5t329 152.5q114 0 202.5 -52.5t143.5 -148.5h2v367h-372v78h372v192h156v-192h192zM543 113q146 0 235.5 111.5t89.5 291.5q0 181 -89.5 293.5
t-235.5 112.5t-236 -112.5t-90 -293.5q0 -180 90.5 -291.5t235.5 -111.5z" />
    <glyph glyph-name="Emacron" unicode="&#x112;" horiz-adv-x="1056" 
d="M303 1634v78h537v-78h-537zM123 0v1444h862v-152h-696v-473h614v-145h-614v-522h717v-152h-883z" />
    <glyph glyph-name="emacron" unicode="&#x113;" horiz-adv-x="1058" 
d="M256 1225v78h537v-78h-537zM573 -35q-231 0 -371.5 154t-140.5 409q0 245 128.5 393t340.5 148q205 0 327 -148t122 -395v-61h-758q11 -163 107 -261t245 -98q109 0 189.5 55t114.5 152l135 -61q-43 -132 -162.5 -209.5t-276.5 -77.5zM221 600h594q-10 155 -85 240.5
t-200 85.5q-131 0 -211 -87t-98 -239z" />
    <glyph glyph-name="Ebreve" unicode="&#x114;" horiz-adv-x="1056" 
d="M578 1618q-108 0 -179 74t-71 188h78q0 -80 48.5 -132t123.5 -52t123.5 52t48.5 132h77q0 -114 -70 -188t-179 -74zM123 0v1444h862v-152h-696v-473h614v-145h-614v-522h717v-152h-883z" />
    <glyph glyph-name="ebreve" unicode="&#x115;" horiz-adv-x="1058" 
d="M526 1212q-126 0 -206 90t-80 230h77q0 -105 58.5 -173.5t148.5 -68.5q92 0 151.5 68t59.5 174h76q1 -139 -79.5 -229.5t-205.5 -90.5zM573 -35q-231 0 -371.5 154t-140.5 409q0 245 128.5 393t340.5 148q205 0 327 -148t122 -395v-61h-758q11 -163 107 -261t245 -98
q109 0 189.5 55t114.5 152l135 -61q-43 -132 -162.5 -209.5t-276.5 -77.5zM221 600h594q-10 155 -85 240.5t-200 85.5q-131 0 -211 -87t-98 -239z" />
    <glyph glyph-name="Edotaccent" unicode="&#x116;" horiz-adv-x="1056" 
d="M573 1645q-51 0 -82.5 31.5t-31.5 82.5q0 50 31.5 81.5t82.5 31.5t83 -31.5t32 -81.5q0 -51 -32 -82.5t-83 -31.5zM123 0v1444h862v-152h-696v-473h614v-145h-614v-522h717v-152h-883z" />
    <glyph glyph-name="edotaccent" unicode="&#x117;" horiz-adv-x="1058" 
d="M524 1235q-51 0 -82.5 32t-31.5 83q0 50 31.5 81t82.5 31q50 0 82.5 -31.5t32.5 -80.5q0 -51 -32.5 -83t-82.5 -32zM573 -35q-231 0 -371.5 154t-140.5 409q0 245 128.5 393t340.5 148q205 0 327 -148t122 -395v-61h-758q11 -163 107 -261t245 -98q109 0 189.5 55
t114.5 152l135 -61q-43 -132 -162.5 -209.5t-276.5 -77.5zM221 600h594q-10 155 -85 240.5t-200 85.5q-131 0 -211 -87t-98 -239z" />
    <glyph glyph-name="Eogonek" unicode="&#x118;" horiz-adv-x="1056" 
d="M1006 0q-72 -29 -113.5 -47.5t-89 -44t-71.5 -48t-40.5 -51t-15.5 -61.5q0 -42 25 -66t69 -24q34 0 72.5 22t68.5 60l54 -53q-38 -49 -92.5 -78t-106.5 -29q-75 0 -121.5 43.5t-48.5 114.5q-3 82 56 144t177 118h-706v1444h862v-152h-696v-473h614v-145h-614v-522h717
v-152z" />
    <glyph glyph-name="eogonek" unicode="&#x119;" horiz-adv-x="1058" 
d="M762 -2q-70 -28 -112 -46.5t-88 -43.5t-70.5 -47.5t-40.5 -51t-15 -61.5q0 -42 25 -66t69 -24q34 0 73 22t69 60l53 -53q-38 -49 -92.5 -78t-106.5 -29q-75 0 -121.5 43.5t-48.5 114.5q-1 71 41 126t127 103q-210 17 -336.5 169t-126.5 392q0 245 128.5 393t340.5 148
q205 0 327 -148t122 -395v-61h-758q11 -163 107 -261t245 -98q109 0 189.5 55t114.5 152l135 -61q-29 -89 -94 -154.5t-156 -99.5zM530 926q-131 0 -211 -87t-98 -239h594q-10 155 -85 240.5t-200 85.5z" />
    <glyph glyph-name="Ecaron" unicode="&#x11a;" horiz-adv-x="1056" 
d="M516 1618l-213 229l57 51l211 -223l211 223l58 -51l-215 -229h-109zM123 0v1444h862v-152h-696v-473h614v-145h-614v-522h717v-152h-883z" />
    <glyph glyph-name="ecaron" unicode="&#x11b;" horiz-adv-x="1058" 
d="M471 1233l-252 270l57 51l248 -264l250 264l57 -51l-253 -270h-107zM573 -35q-231 0 -371.5 154t-140.5 409q0 245 128.5 393t340.5 148q205 0 327 -148t122 -395v-61h-758q11 -163 107 -261t245 -98q109 0 189.5 55t114.5 152l135 -61q-43 -132 -162.5 -209.5
t-276.5 -77.5zM221 600h594q-10 155 -85 240.5t-200 85.5q-131 0 -211 -87t-98 -239z" />
    <glyph glyph-name="Gcircumflex" unicode="&#x11c;" horiz-adv-x="1509" 
d="M520 1599l-57 52l213 229h108l215 -229l-57 -52l-211 224zM737 -43q-299 0 -482 210t-183 554q0 346 181 556t480 210q195 0 348 -115.5t213 -306.5l-161 -49q-46 145 -155 232t-247 87q-220 0 -353.5 -168t-133.5 -446q0 -276 142 -444t376 -168q219 0 356 147.5
t137 388.5h-684v152h856v-797h-143l-16 262h-2q-82 -145 -220.5 -225t-308.5 -80z" />
    <glyph glyph-name="gcircumflex" unicode="&#x11d;" horiz-adv-x="1118" 
d="M291 1210l-58 52l252 270h107l254 -270l-58 -52l-249 265zM496 -465q-168 0 -306.5 72.5t-201.5 193.5l123 99q53 -102 155.5 -163t222.5 -61q169 0 270 102.5t101 276.5v133h-2q-51 -93 -145 -150.5t-195 -57.5q-203 0 -327.5 149.5t-124.5 392.5t125 394t327 151
q105 0 199 -54t141 -141h2l17 162h139v-979q0 -239 -140.5 -379.5t-379.5 -140.5zM543 121q142 0 231.5 112.5t89.5 288.5q0 179 -89.5 292.5t-231.5 113.5q-143 0 -232.5 -112.5t-89.5 -293.5q0 -179 89.5 -290t232.5 -111z" />
    <glyph glyph-name="Gbreve" unicode="&#x11e;" horiz-adv-x="1509" 
d="M735 1618q-108 0 -179 74t-71 188h78q0 -80 48.5 -132t123.5 -52t123.5 52t48.5 132h78q0 -114 -70.5 -188t-179.5 -74zM737 -43q-299 0 -482 210t-183 554q0 346 181 556t480 210q195 0 348 -115.5t213 -306.5l-161 -49q-46 145 -155 232t-247 87q-220 0 -353.5 -168
t-133.5 -446q0 -276 142 -444t376 -168q219 0 356 147.5t137 388.5h-684v152h856v-797h-143l-16 262h-2q-82 -145 -220.5 -225t-308.5 -80z" />
    <glyph glyph-name="gbreve" unicode="&#x11f;" horiz-adv-x="1118" 
d="M537 1212q-126 0 -206.5 90t-80.5 230h78q0 -105 58.5 -173.5t148.5 -68.5q92 0 151 68t59 174h76q1 -139 -79 -229.5t-205 -90.5zM496 -465q-168 0 -306.5 72.5t-201.5 193.5l123 99q53 -102 155.5 -163t222.5 -61q169 0 270 102.5t101 276.5v133h-2
q-51 -93 -145 -150.5t-195 -57.5q-203 0 -327.5 149.5t-124.5 392.5t125 394t327 151q105 0 199 -54t141 -141h2l17 162h139v-979q0 -239 -140.5 -379.5t-379.5 -140.5zM543 121q142 0 231.5 112.5t89.5 288.5q0 179 -89.5 292.5t-231.5 113.5q-143 0 -232.5 -112.5
t-89.5 -293.5q0 -179 89.5 -290t232.5 -111z" />
    <glyph glyph-name="Gdotaccent" unicode="&#x120;" horiz-adv-x="1509" 
d="M733 1645q-51 0 -83 31.5t-32 82.5q0 50 32 81.5t83 31.5t83 -31.5t32 -81.5q0 -51 -32 -82.5t-83 -31.5zM737 -43q-299 0 -482 210t-183 554q0 346 181 556t480 210q195 0 348 -115.5t213 -306.5l-161 -49q-46 145 -155 232t-247 87q-220 0 -353.5 -168t-133.5 -446
q0 -276 142 -444t376 -168q219 0 356 147.5t137 388.5h-684v152h856v-797h-143l-16 262h-2q-82 -145 -220.5 -225t-308.5 -80z" />
    <glyph glyph-name="gdotaccent" unicode="&#x121;" horiz-adv-x="1118" 
d="M537 1235q-51 0 -83 32t-32 83q0 50 32 81t83 31q50 0 82 -31.5t32 -80.5q0 -51 -32 -83t-82 -32zM496 -465q-168 0 -306.5 72.5t-201.5 193.5l123 99q53 -102 155.5 -163t222.5 -61q169 0 270 102.5t101 276.5v133h-2q-51 -93 -145 -150.5t-195 -57.5
q-203 0 -327.5 149.5t-124.5 392.5t125 394t327 151q105 0 199 -54t141 -141h2l17 162h139v-979q0 -239 -140.5 -379.5t-379.5 -140.5zM543 121q142 0 231.5 112.5t89.5 288.5q0 179 -89.5 292.5t-231.5 113.5q-143 0 -232.5 -112.5t-89.5 -293.5q0 -179 89.5 -290
t232.5 -111z" />
    <glyph glyph-name="uni0122" unicode="&#x122;" horiz-adv-x="1509" 
d="M737 -43q-299 0 -482 210t-183 554q0 346 181 556t480 210q195 0 348 -115.5t213 -306.5l-161 -49q-46 145 -155 232t-247 87q-220 0 -353.5 -168t-133.5 -446q0 -276 142 -444t376 -168q219 0 356 147.5t137 388.5h-684v152h856v-797h-143l-16 262h-2
q-82 -145 -220.5 -225t-308.5 -80zM649 -496l15 70q62 -12 98 13t29 77q-50 -15 -94 15t-44 79q0 38 27.5 63t67.5 25q54 0 87 -47t33 -125q0 -102 -60 -145.5t-159 -24.5z" />
    <glyph glyph-name="uni0123" unicode="&#x123;" horiz-adv-x="1118" 
d="M641 1530l-14 -70q-62 12 -98 -13t-29 -77q50 15 93.5 -15t43.5 -79q0 -38 -27 -63t-67 -25q-54 0 -87.5 47t-33.5 125q0 102 60 145.5t159 24.5zM496 -465q-168 0 -306.5 72.5t-201.5 193.5l123 99q53 -102 155.5 -163t222.5 -61q169 0 270 102.5t101 276.5v133h-2
q-51 -93 -145 -150.5t-195 -57.5q-203 0 -327.5 149.5t-124.5 392.5t125 394t327 151q105 0 199 -54t141 -141h2l17 162h139v-979q0 -239 -140.5 -379.5t-379.5 -140.5zM543 121q142 0 231.5 112.5t89.5 288.5q0 179 -89.5 292.5t-231.5 113.5q-143 0 -232.5 -112.5
t-89.5 -293.5q0 -179 89.5 -290t232.5 -111z" />
    <glyph glyph-name="Itilde" unicode="&#x128;" horiz-adv-x="415" 
d="M322 1597q-26 0 -48 10t-41.5 33t-29.5 38t-29 46q-38 65 -53 79q-13 12 -27 12q-32 0 -53 -56t-21 -141h-75q0 122 39.5 197t109.5 75q26 0 48.5 -10.5t41.5 -33t30.5 -39.5t27.5 -46q34 -64 48 -77q13 -11 27 -11q35 0 56.5 56t21.5 143h76q0 -123 -39.5 -199
t-109.5 -76zM123 0v1444h170v-1444h-170z" />
    <glyph glyph-name="itilde" unicode="&#x129;" horiz-adv-x="360" 
d="M295 1208q-45 0 -75.5 29t-59.5 80q-7 11 -18.5 31t-18 30.5t-16 23t-19 18t-20.5 5.5q-32 0 -53 -55.5t-21 -140.5h-76q0 121 40 196.5t110 75.5q47 0 79.5 -32.5t61.5 -88.5q2 -4 8.5 -16t9 -16t8.5 -14t9 -14.5t8.5 -11.5t9.5 -10t9.5 -7t10.5 -5.5t11 -1.5
q34 0 55 56t21 143h77q0 -123 -39.5 -199t-111.5 -76zM102 0v1034h156v-1034h-156z" />
    <glyph glyph-name="Imacron" unicode="&#x12a;" horiz-adv-x="415" 
d="M29 1630v78h360v-78h-360zM123 0v1444h170v-1444h-170z" />
    <glyph glyph-name="imacron" unicode="&#x12b;" horiz-adv-x="360" 
d="M8 1225v78h344v-78h-344zM102 0v1034h156v-1034h-156z" />
    <glyph glyph-name="Iogonek" unicode="&#x12e;" horiz-adv-x="415" 
d="M59 -342q34 0 73 22t69 60l53 -53q-38 -49 -92.5 -78t-106.5 -29q-75 0 -121.5 43.5t-48.5 114.5q-3 83 57.5 145.5t180.5 118.5v1442h170v-1440l2 -4q-72 -29 -113.5 -47.5t-89 -44t-71.5 -48t-40.5 -51t-15.5 -61.5q0 -42 25 -66t69 -24z" />
    <glyph glyph-name="iogonek" unicode="&#x12f;" horiz-adv-x="360" 
d="M197 1462q51 0 82.5 -31t31.5 -81q0 -51 -31.5 -83t-82.5 -32q-52 0 -83.5 32t-31.5 83q0 50 31.5 81t83.5 31zM117 10v1024h155v-1034q-71 -29 -113 -47.5t-88.5 -44t-71 -48t-40.5 -51t-16 -61.5q0 -41 25.5 -65.5t68.5 -24.5q34 0 72.5 22t68.5 60l53 -53
q-38 -49 -92 -78t-106 -29q-75 0 -121.5 43.5t-48.5 114.5q-3 86 61 150t193 122z" />
    <glyph glyph-name="Idotaccent" unicode="&#x130;" horiz-adv-x="415" 
d="M209 1645q-51 0 -83 31.5t-32 82.5q0 50 32 81.5t83 31.5t83 -31.5t32 -81.5q0 -51 -32 -82.5t-83 -31.5zM123 0v1444h170v-1444h-170z" />
    <glyph glyph-name="dotlessi" unicode="&#x131;" horiz-adv-x="360" 
d="M102 0v1034h156v-1034h-156z" />
    <glyph glyph-name="IJ" unicode="&#x132;" horiz-adv-x="1337" 
d="M123 0v1444h170v-1444h-170zM856 -39q-169 0 -273 92.5t-126 261.5l149 64q10 -127 74.5 -197.5t169.5 -70.5q100 0 156.5 68t56.5 192v1073h170v-1090q0 -188 -98.5 -290.5t-278.5 -102.5z" />
    <glyph glyph-name="ij" unicode="&#x133;" horiz-adv-x="780" 
d="M197 1235q-52 0 -83.5 32t-31.5 83q0 50 31.5 81t83.5 31q51 0 82.5 -31t31.5 -81q0 -51 -31.5 -83t-82.5 -32zM584 1235q-51 0 -83 32t-32 83q0 50 32 81t83 31t82.5 -31t31.5 -81q0 -51 -31.5 -83t-82.5 -32zM117 0v1034h155v-1034h-155zM379 -465q-88 0 -146 31
l21 131q50 -23 104 -23q69 0 108.5 42.5t39.5 117.5v1200h156v-1216q0 -132 -75.5 -207.5t-207.5 -75.5z" />
    <glyph glyph-name="uni0136" unicode="&#x136;" horiz-adv-x="1101" 
d="M123 0v1444h170v-666h2l551 666h209l-488 -584l514 -860h-194l-426 731l-168 -194v-537h-170zM469 -496l14 70q62 -12 98 13t29 77q-50 -15 -93.5 15t-43.5 79q0 38 27 63t67 25q54 0 87.5 -47t33.5 -125q0 -102 -60 -145.5t-159 -24.5z" />
    <glyph glyph-name="uni0137" unicode="&#x137;" horiz-adv-x="874" 
d="M102 0v1505h156v-911h2l389 440h199l-352 -391l378 -643h-180l-303 528l-133 -147v-381h-156zM342 -496l14 70q62 -12 98 13t29 77q-50 -15 -93.5 15t-43.5 79q0 38 27 63t67 25q54 0 87.5 -47t33.5 -125q0 -102 -60 -145.5t-159 -24.5z" />
    <glyph glyph-name="Lacute" unicode="&#x139;" horiz-adv-x="927" 
d="M233 1595l-63 41l158 260l65 -38zM123 0v1444h170v-1292h614v-152h-784z" />
    <glyph glyph-name="lacute" unicode="&#x13a;" horiz-adv-x="360" 
d="M207 1595l-64 41l158 260l66 -38zM102 0v1505h156v-1505h-156z" />
    <glyph glyph-name="uni013B" unicode="&#x13b;" horiz-adv-x="927" 
d="M123 0v1444h170v-1292h614v-152h-784zM418 -496l14 70q62 -12 98 13t29 77q-50 -15 -93.5 15t-43.5 79q0 38 27 63t67 25q54 0 87.5 -47t33.5 -125q0 -102 -60 -145.5t-159 -24.5z" />
    <glyph glyph-name="uni013C" unicode="&#x13c;" horiz-adv-x="360" 
d="M102 0v1505h156v-1505h-156zM78 -496l14 70q62 -12 98 13t29 77q-50 -15 -93.5 15t-43.5 79q0 38 27 63t67 25q54 0 87.5 -47t33.5 -125q0 -102 -60 -145.5t-159 -24.5z" />
    <glyph glyph-name="Lcaron" unicode="&#x13d;" horiz-adv-x="927" 
d="M504 1139l14 67q62 -12 98 13.5t29 78.5q-49 -17 -93 13t-44 80q0 38 27 64t67 26q54 0 87.5 -47t33.5 -125q0 -103 -60 -147t-159 -23zM123 0v1444h170v-1292h614v-152h-784z" />
    <glyph glyph-name="lcaron" unicode="&#x13e;" horiz-adv-x="360" 
d="M102 0v1505h156v-1505h-156zM354 1139l15 67q62 -12 98 13.5t29 78.5q-49 -17 -93.5 13t-44.5 80q0 38 27.5 64t67.5 26q54 0 87 -47t33 -125q0 -103 -60 -147t-159 -23z" />
    <glyph glyph-name="Lslash" unicode="&#x141;" horiz-adv-x="1089" 
d="M455 152h614v-152h-784v651l-246 -143l-39 67l285 166v703h170v-602l381 223l38 -68l-419 -245v-600z" />
    <glyph glyph-name="lslash" unicode="&#x142;" horiz-adv-x="743" 
d="M743 1001l-294 -194v-807h-156v705l-254 -168l-39 67l293 193v708h156v-604l256 168z" />
    <glyph glyph-name="Nacute" unicode="&#x143;" horiz-adv-x="1263" 
d="M670 1595l-64 41l158 260l65 -38zM123 0v1444h239l605 -1223h4v1223h170v-1444h-238l-606 1223h-4v-1223h-170z" />
    <glyph glyph-name="nacute" unicode="&#x144;" 
d="M551 1227l-66 41l189 303l65 -41zM596 1067q153 0 238.5 -92.5t85.5 -257.5v-717h-156v705q0 105 -57.5 166t-155.5 61q-132 0 -212.5 -82.5t-80.5 -220.5v-629h-156v1034h142l14 -141h2q107 174 336 174z" />
    <glyph glyph-name="uni0145" unicode="&#x145;" horiz-adv-x="1263" 
d="M123 0v1444h239l605 -1223h4v1223h170v-1444h-238l-606 1223h-4v-1223h-170zM532 -496l15 70q62 -12 98 13t29 77q-50 -15 -93.5 15t-43.5 79q0 38 27 63t67 25q54 0 87.5 -47t33.5 -125q0 -102 -60 -145.5t-160 -24.5z" />
    <glyph glyph-name="uni0146" unicode="&#x146;" 
d="M596 1067q153 0 238.5 -92.5t85.5 -257.5v-717h-156v705q0 105 -57.5 166t-155.5 61q-132 0 -212.5 -82.5t-80.5 -220.5v-629h-156v1034h142l14 -141h2q107 174 336 174zM410 -496l14 70q62 -12 98 13t29 77q-50 -15 -93.5 15t-43.5 79q0 38 27 63t67 25q54 0 87.5 -47
t33.5 -125q0 -102 -60 -145.5t-159 -24.5z" />
    <glyph glyph-name="Ncaron" unicode="&#x147;" horiz-adv-x="1263" 
d="M588 1618l-213 229l57 51l211 -223l211 223l57 -51l-215 -229h-108zM123 0v1444h239l605 -1223h4v1223h170v-1444h-238l-606 1223h-4v-1223h-170z" />
    <glyph glyph-name="ncaron" unicode="&#x148;" 
d="M477 1233l-252 270l58 51l247 -264l250 264l58 -51l-254 -270h-107zM596 1067q153 0 238.5 -92.5t85.5 -257.5v-717h-156v705q0 105 -57.5 166t-155.5 61q-132 0 -212.5 -82.5t-80.5 -220.5v-629h-156v1034h142l14 -141h2q107 174 336 174z" />
    <glyph glyph-name="Omacron" unicode="&#x14c;" horiz-adv-x="1519" 
d="M492 1634v78h536v-78h-536zM760 -43q-312 0 -500 208.5t-188 555.5q0 349 187.5 557.5t500.5 208.5q312 0 500 -208.5t188 -555.5q0 -348 -188 -557t-500 -209zM760 109q235 0 375.5 167t140.5 445q0 280 -140.5 447t-375.5 167t-376.5 -167.5t-141.5 -446.5
q0 -278 141.5 -445t376.5 -167z" />
    <glyph glyph-name="omacron" unicode="&#x14d;" horiz-adv-x="1101" 
d="M283 1225v78h536v-78h-536zM551 -35q-223 0 -356.5 150.5t-133.5 402.5q0 250 133.5 400.5t356.5 150.5t356 -150t133 -401q0 -252 -133 -402.5t-356 -150.5zM551 106q152 0 243 112t91 300q0 186 -91 297t-243 111t-243 -111t-91 -297q0 -188 91 -300t243 -112z" />
    <glyph glyph-name="Obreve" unicode="&#x14e;" horiz-adv-x="1519" 
d="M766 1618q-108 0 -179 74t-71 188h78q0 -80 48.5 -132t123.5 -52t123.5 52t48.5 132h78q0 -114 -70.5 -188t-179.5 -74zM760 -43q-312 0 -500 208.5t-188 555.5q0 349 187.5 557.5t500.5 208.5q312 0 500 -208.5t188 -555.5q0 -348 -188 -557t-500 -209zM760 109
q235 0 375.5 167t140.5 445q0 280 -140.5 447t-375.5 167t-376.5 -167.5t-141.5 -446.5q0 -278 141.5 -445t376.5 -167z" />
    <glyph glyph-name="obreve" unicode="&#x14f;" horiz-adv-x="1101" 
d="M551 1212q-126 0 -206.5 90t-80.5 230h78q0 -105 58.5 -173.5t148.5 -68.5q92 0 151.5 68t59.5 174h76q1 -139 -79.5 -229.5t-205.5 -90.5zM551 -35q-223 0 -356.5 150.5t-133.5 402.5q0 250 133.5 400.5t356.5 150.5t356 -150t133 -401q0 -252 -133 -402.5t-356 -150.5z
M551 106q152 0 243 112t91 300q0 186 -91 297t-243 111t-243 -111t-91 -297q0 -188 91 -300t243 -112z" />
    <glyph glyph-name="Ohungarumlaut" unicode="&#x150;" horiz-adv-x="1519" 
d="M647 1565l-63 41l157 260l66 -39zM928 1565l-64 41l160 260l63 -39zM760 -43q-312 0 -500 208.5t-188 555.5q0 349 187.5 557.5t500.5 208.5q312 0 500 -208.5t188 -555.5q0 -348 -188 -557t-500 -209zM760 109q235 0 375.5 167t140.5 445q0 280 -140.5 447t-375.5 167
t-376.5 -167.5t-141.5 -446.5q0 -278 141.5 -445t376.5 -167z" />
    <glyph glyph-name="ohungarumlaut" unicode="&#x151;" horiz-adv-x="1101" 
d="M426 1227l-66 41l189 303l65 -41zM707 1227l-64 41l188 303l66 -41zM551 -35q-223 0 -356.5 150.5t-133.5 402.5q0 250 133.5 400.5t356.5 150.5t356 -150t133 -401q0 -252 -133 -402.5t-356 -150.5zM551 106q152 0 243 112t91 300q0 186 -91 297t-243 111t-243 -111
t-91 -297q0 -188 91 -300t243 -112z" />
    <glyph glyph-name="OE" unicode="&#x152;" horiz-adv-x="1898" 
d="M764 -35q-319 0 -505.5 203.5t-186.5 552.5q0 350 187 554t505 204q106 0 250 -35h813v-152h-666v-487h584v-143h-584v-510h686v-152h-833q-144 -35 -250 -35zM760 119q144 0 231 35v1134q-88 37 -215 37q-246 0 -390 -162.5t-144 -441.5q0 -278 140 -440t378 -162z" />
    <glyph glyph-name="oe" unicode="&#x153;" horiz-adv-x="1904" 
d="M1722 303l136 -61q-51 -126 -172.5 -201.5t-276.5 -75.5q-148 0 -259 65.5t-175 186.5q-61 -121 -169.5 -186.5t-254.5 -65.5q-224 0 -357 149.5t-133 401.5q0 253 133 403t357 150q143 0 250 -62.5t168 -179.5q59 116 161.5 179t237.5 63q204 0 325.5 -147t121.5 -396
v-61h-758q13 -162 110 -260.5t242 -98.5q106 0 191 54t122 143zM551 106q154 0 244 111t90 299t-90 299t-244 111t-244 -111t-90 -299t90 -299t244 -111zM1364 926q-126 0 -210 -88.5t-97 -237.5h594q-11 149 -88.5 237.5t-198.5 88.5z" />
    <glyph glyph-name="Racute" unicode="&#x154;" horiz-adv-x="1273" 
d="M614 1595l-63 41l158 260l65 -38zM1051 -39q-148 0 -195 166l-84 307q-22 82 -77.5 132t-125.5 50h-276v-616h-170v1444h557q211 0 345 -116t134 -302q0 -142 -96 -248t-258 -135v-2q102 -54 139 -190l68 -263q21 -84 73 -84q55 0 103 82l86 -98q-87 -127 -223 -127z
M293 768h381q140 0 227.5 71.5t87.5 186.5q0 121 -87 193.5t-228 72.5h-381v-524z" />
    <glyph glyph-name="racute" unicode="&#x155;" horiz-adv-x="829" 
d="M463 1227l-66 41l189 303l65 -41zM510 1069q124 0 197.5 -85.5t80.5 -242.5l-137 -45q-4 113 -49 173.5t-121 60.5q-103 0 -163 -101.5t-60 -277.5v-551h-156v1034h129l17 -162h2q34 92 103 144.5t157 52.5z" />
    <glyph glyph-name="uni0156" unicode="&#x156;" horiz-adv-x="1273" 
d="M1051 -39q-148 0 -195 166l-84 307q-22 82 -77.5 132t-125.5 50h-276v-616h-170v1444h557q211 0 345 -116t134 -302q0 -142 -96 -248t-258 -135v-2q102 -54 139 -190l68 -263q21 -84 73 -84q55 0 103 82l86 -98q-87 -127 -223 -127zM293 768h381q140 0 227.5 71.5
t87.5 186.5q0 121 -87 193.5t-228 72.5h-381v-524zM508 -496l14 70q62 -12 98 13t29 77q-50 -15 -93.5 15t-43.5 79q0 38 27 63t67 25q54 0 87.5 -47t33.5 -125q0 -102 -60 -145.5t-159 -24.5z" />
    <glyph glyph-name="uni0157" unicode="&#x157;" horiz-adv-x="829" 
d="M510 1069q124 0 197.5 -85.5t80.5 -242.5l-137 -45q-4 113 -49 173.5t-121 60.5q-103 0 -163 -101.5t-60 -277.5v-551h-156v1034h129l17 -162h2q34 92 103 144.5t157 52.5zM76 -496l14 70q62 -12 98 13t29 77q-50 -15 -93.5 15t-43.5 79q0 38 27 63t67 25q54 0 87.5 -47
t33.5 -125q0 -102 -60 -145.5t-159 -24.5z" />
    <glyph glyph-name="Rcaron" unicode="&#x158;" horiz-adv-x="1273" 
d="M535 1618l-213 229l57 51l211 -223l211 223l57 -51l-215 -229h-108zM1051 -39q-148 0 -195 166l-84 307q-22 82 -77.5 132t-125.5 50h-276v-616h-170v1444h557q211 0 345 -116t134 -302q0 -142 -96 -248t-258 -135v-2q102 -54 139 -190l68 -263q21 -84 73 -84
q55 0 103 82l86 -98q-87 -127 -223 -127zM293 768h381q140 0 227.5 71.5t87.5 186.5q0 121 -87 193.5t-228 72.5h-381v-524z" />
    <glyph glyph-name="rcaron" unicode="&#x159;" horiz-adv-x="829" 
d="M387 1233l-252 270l58 51l247 -264l250 264l58 -51l-254 -270h-107zM510 1069q124 0 197.5 -85.5t80.5 -242.5l-137 -45q-4 113 -49 173.5t-121 60.5q-103 0 -163 -101.5t-60 -277.5v-551h-156v1034h129l17 -162h2q34 92 103 144.5t157 52.5z" />
    <glyph glyph-name="Sacute" unicode="&#x15a;" horiz-adv-x="1144" 
d="M582 1595l-64 41l158 260l65 -38zM606 -43q-242 0 -397.5 139t-167.5 363l168 33q6 -171 118.5 -277t282.5 -106q146 0 234 74.5t88 187.5q0 91 -62 152t-198 102l-223 67q-174 54 -255 145.5t-81 233.5q0 183 120 299.5t324 116.5q197 0 322.5 -116t140.5 -306l-164 -39
q-6 139 -88.5 224t-208.5 85q-125 0 -200.5 -69.5t-75.5 -175.5q0 -91 54.5 -148t176.5 -94l223 -68q187 -56 276.5 -150.5t90.5 -242.5q0 -187 -135 -308.5t-363 -121.5z" />
    <glyph glyph-name="sacute" unicode="&#x15b;" horiz-adv-x="923" 
d="M467 1227l-66 41l189 303l65 -41zM481 -35q-184 0 -308.5 100t-131.5 263l152 34q6 -119 86.5 -187.5t205.5 -68.5q106 0 176 46.5t70 121.5q0 56 -50 95.5t-159 70.5l-151 41q-143 42 -208.5 109.5t-64.5 175.5q0 132 97.5 217.5t248.5 85.5q150 0 253 -83.5t118 -217.5
l-149 -39q-7 93 -69 147t-155 54q-83 0 -136.5 -44t-55.5 -110q-1 -55 43 -94t141 -68l152 -41q156 -46 226.5 -113.5t70.5 -172.5q0 -139 -114.5 -230.5t-287.5 -91.5z" />
    <glyph glyph-name="Scircumflex" unicode="&#x15c;" horiz-adv-x="1144" 
d="M346 1599l-57 52l213 229h108l215 -229l-57 -52l-211 224zM606 -43q-242 0 -397.5 139t-167.5 363l168 33q6 -171 118.5 -277t282.5 -106q146 0 234 74.5t88 187.5q0 91 -62 152t-198 102l-223 67q-174 54 -255 145.5t-81 233.5q0 183 120 299.5t324 116.5
q197 0 322.5 -116t140.5 -306l-164 -39q-6 139 -88.5 224t-208.5 85q-125 0 -200.5 -69.5t-75.5 -175.5q0 -91 54.5 -148t176.5 -94l223 -68q187 -56 276.5 -150.5t90.5 -242.5q0 -187 -135 -308.5t-363 -121.5z" />
    <glyph glyph-name="scircumflex" unicode="&#x15d;" horiz-adv-x="923" 
d="M201 1210l-58 52l252 270h107l254 -270l-58 -52l-249 265zM481 -35q-184 0 -308.5 100t-131.5 263l152 34q6 -119 86.5 -187.5t205.5 -68.5q106 0 176 46.5t70 121.5q0 56 -50 95.5t-159 70.5l-151 41q-143 42 -208.5 109.5t-64.5 175.5q0 132 97.5 217.5t248.5 85.5
q150 0 253 -83.5t118 -217.5l-149 -39q-7 93 -69 147t-155 54q-83 0 -136.5 -44t-55.5 -110q-1 -55 43 -94t141 -68l152 -41q156 -46 226.5 -113.5t70.5 -172.5q0 -139 -114.5 -230.5t-287.5 -91.5z" />
    <glyph glyph-name="Scedilla" unicode="&#x15e;" horiz-adv-x="1144" 
d="M1104 387q0 -184 -131.5 -305t-354.5 -125l-6 -55q91 -6 144 -48t53 -114q0 -74 -50.5 -118t-135.5 -44q-59 0 -113.5 31.5t-79.5 79.5l62 47q17 -35 53.5 -57.5t77.5 -22.5q50 0 79 21.5t29 58.5q1 42 -35.5 67t-97.5 25h-72l15 131q-216 20 -353 156.5t-147 343.5
l168 33q6 -171 118.5 -277t282.5 -106q146 0 234 74.5t88 187.5q0 91 -62 152t-198 102l-223 67q-174 54 -255 145.5t-81 233.5q0 183 120 299.5t324 116.5q197 0 322.5 -116t140.5 -306l-164 -39q-6 139 -88.5 224t-208.5 85q-125 0 -200.5 -69.5t-75.5 -175.5
q0 -91 54.5 -148t176.5 -94l223 -68q187 -56 276.5 -150.5t90.5 -242.5z" />
    <glyph glyph-name="scedilla" unicode="&#x15f;" horiz-adv-x="923" 
d="M883 287q0 -133 -105 -223.5t-268 -98.5l-8 -63q91 -6 143.5 -48t52.5 -114q0 -74 -50.5 -118t-135.5 -44q-59 0 -113.5 31.5t-79.5 79.5l62 47q17 -35 53.5 -57.5t77.5 -22.5q50 0 79.5 21.5t29.5 58.5q1 42 -36 67t-98 25h-71l16 139q-166 14 -275 111.5t-116 249.5
l152 34q6 -119 86.5 -187.5t205.5 -68.5q106 0 176 46.5t70 121.5q0 56 -50 95.5t-159 70.5l-151 41q-143 42 -208.5 109.5t-64.5 175.5q0 132 97.5 217.5t248.5 85.5q150 0 253 -83.5t118 -217.5l-149 -39q-7 93 -69 147t-155 54q-83 0 -136.5 -44t-55.5 -110
q-1 -55 43 -94t141 -68l152 -41q156 -46 226.5 -113.5t70.5 -172.5z" />
    <glyph glyph-name="Scaron" unicode="&#x160;" horiz-adv-x="1144" 
d="M502 1618l-213 229l57 51l211 -223l211 223l57 -51l-215 -229h-108zM606 -43q-242 0 -397.5 139t-167.5 363l168 33q6 -171 118.5 -277t282.5 -106q146 0 234 74.5t88 187.5q0 91 -62 152t-198 102l-223 67q-174 54 -255 145.5t-81 233.5q0 183 120 299.5t324 116.5
q197 0 322.5 -116t140.5 -306l-164 -39q-6 139 -88.5 224t-208.5 85q-125 0 -200.5 -69.5t-75.5 -175.5q0 -91 54.5 -148t176.5 -94l223 -68q187 -56 276.5 -150.5t90.5 -242.5q0 -187 -135 -308.5t-363 -121.5z" />
    <glyph glyph-name="scaron" unicode="&#x161;" horiz-adv-x="923" 
d="M391 1233l-252 270l58 51l247 -264l250 264l58 -51l-254 -270h-107zM481 -35q-184 0 -308.5 100t-131.5 263l152 34q6 -119 86.5 -187.5t205.5 -68.5q106 0 176 46.5t70 121.5q0 56 -50 95.5t-159 70.5l-151 41q-143 42 -208.5 109.5t-64.5 175.5q0 132 97.5 217.5
t248.5 85.5q150 0 253 -83.5t118 -217.5l-149 -39q-7 93 -69 147t-155 54q-83 0 -136.5 -44t-55.5 -110q-1 -55 43 -94t141 -68l152 -41q156 -46 226.5 -113.5t70.5 -172.5q0 -139 -114.5 -230.5t-287.5 -91.5z" />
    <glyph glyph-name="uni0162" unicode="&#x162;" horiz-adv-x="1054" 
d="M612 0h-47l-12 -98q91 -6 144 -48t53 -114q0 -73 -51 -117.5t-136 -44.5q-59 0 -113 31.5t-79 79.5l61 47q17 -35 53.5 -57.5t77.5 -22.5q50 0 79.5 21.5t29.5 58.5q1 42 -35.5 67t-97.5 25h-72l20 172h-45v1292h-422v152h1014v-152h-422v-1292z" />
    <glyph glyph-name="uni0163" unicode="&#x163;" horiz-adv-x="806" 
d="M803 244q-10 -121 -90 -196t-199 -83l-8 -63q91 -6 143.5 -48t52.5 -114q0 -74 -50.5 -118t-135.5 -44q-59 0 -113 31.5t-79 79.5l61 47q17 -35 53.5 -57.5t77.5 -22.5q50 0 79.5 21.5t29.5 58.5q1 42 -35.5 67t-97.5 25h-72l16 141q-109 17 -172 94.5t-63 196.5v645
h-201v129h201v299l155 37v-336h387v-129h-387l2 -624q0 -81 38.5 -131t107.5 -50t114.5 51.5t51.5 147.5z" />
    <glyph glyph-name="Tcaron" unicode="&#x164;" horiz-adv-x="1054" 
d="M471 1618l-213 229l57 51l211 -223l211 223l58 -51l-215 -229h-109zM442 0v1292h-422v152h1014v-152h-422v-1292h-170z" />
    <glyph glyph-name="tcaron" unicode="&#x165;" horiz-adv-x="806" 
d="M498 1180l14 67q62 -12 98 13.5t29 78.5q-49 -17 -93 13t-44 80q0 38 27 64t67 26q54 0 87.5 -47t33.5 -125q0 -103 -60 -147t-159 -23zM492 -35q-132 0 -211.5 80.5t-79.5 214.5v645h-201v129h201v299l155 37v-336h387v-129h-387l2 -624q0 -81 38.5 -131t107.5 -50
t114.5 51.5t51.5 147.5l133 -55q-10 -127 -96.5 -203t-214.5 -76z" />
    <glyph glyph-name="Utilde" unicode="&#x168;" horiz-adv-x="1251" 
d="M762 1597q-29 0 -53 9.5t-47.5 33t-34 36.5t-33.5 46q-5 7 -8 11q-19 28 -31 42.5t-30 27t-36 12.5q-42 0 -69 -56t-27 -141h-76q0 121 47.5 196.5t127.5 75.5q28 0 51.5 -9.5t46 -33t32 -36t33.5 -46.5q19 -27 25.5 -35.5t22 -26.5t29 -24t28.5 -6q43 0 70.5 56.5
t27.5 142.5h78q0 -121 -47.5 -198t-126.5 -77zM627 -43q-239 0 -382 143.5t-143 384.5v959h170v-959q0 -166 97 -271t258 -105q162 0 257 102t95 276v957h170v-959q0 -241 -142 -384.5t-380 -143.5z" />
    <glyph glyph-name="utilde" unicode="&#x169;" 
d="M637 1208q-51 0 -86.5 29.5t-73.5 83.5q-4 5 -12 17t-12 17.5t-11.5 15.5t-12 15t-11.5 12.5t-12.5 11.5t-12.5 8t-14 5.5t-14 1.5q-43 0 -70 -55.5t-27 -140.5h-75q0 121 47 196.5t127 75.5q27 0 50.5 -9.5t44 -28.5t33.5 -35.5t31 -43.5q22 -35 34 -51t33 -32.5
t42 -16.5q43 0 70.5 56.5t27.5 142.5h78q0 -121 -47.5 -198t-126.5 -77zM416 -33q-153 0 -238.5 92.5t-85.5 257.5v717h156v-704q0 -106 57.5 -167t155.5 -61q132 0 212.5 83t80.5 221v628h155v-1034h-141l-14 141h-2q-107 -174 -336 -174z" />
    <glyph glyph-name="Umacron" unicode="&#x16a;" horiz-adv-x="1251" 
d="M356 1634v78h537v-78h-537zM627 -43q-239 0 -382 143.5t-143 384.5v959h170v-959q0 -166 97 -271t258 -105q162 0 257 102t95 276v957h170v-959q0 -241 -142 -384.5t-380 -143.5z" />
    <glyph glyph-name="umacron" unicode="&#x16b;" 
d="M231 1225v78h537v-78h-537zM416 -33q-153 0 -238.5 92.5t-85.5 257.5v717h156v-704q0 -106 57.5 -167t155.5 -61q132 0 212.5 83t80.5 221v628h155v-1034h-141l-14 141h-2q-107 -174 -336 -174z" />
    <glyph glyph-name="Ubreve" unicode="&#x16c;" horiz-adv-x="1251" 
d="M629 1618q-108 0 -179 74t-71 188h78q0 -80 48.5 -132t123.5 -52t123.5 52t48.5 132h78q0 -114 -70.5 -188t-179.5 -74zM627 -43q-239 0 -382 143.5t-143 384.5v959h170v-959q0 -166 97 -271t258 -105q162 0 257 102t95 276v957h170v-959q0 -241 -142 -384.5t-380 -143.5
z" />
    <glyph glyph-name="ubreve" unicode="&#x16d;" 
d="M500 1212q-126 0 -206.5 90t-80.5 230h78q0 -105 58.5 -173.5t148.5 -68.5q92 0 151.5 68t59.5 174h75q1 -139 -79 -229.5t-205 -90.5zM416 -33q-153 0 -238.5 92.5t-85.5 257.5v717h156v-704q0 -106 57.5 -167t155.5 -61q132 0 212.5 83t80.5 221v628h155v-1034h-141
l-14 141h-2q-107 -174 -336 -174z" />
    <glyph glyph-name="Uring" unicode="&#x16e;" horiz-adv-x="1251" 
d="M625 1602q-83 0 -137 53.5t-54 136.5q-1 83 52.5 136.5t138.5 53.5q83 0 135.5 -53t54.5 -137q0 -84 -53 -137t-137 -53zM623 1677q51 0 82.5 32.5t31.5 82.5t-31.5 82.5t-82.5 32.5q-48 0 -81.5 -33t-33.5 -82t33.5 -82t81.5 -33zM627 -43q-239 0 -382 143.5t-143 384.5
v959h170v-959q0 -166 97 -271t258 -105q162 0 257 102t95 276v957h170v-959q0 -241 -142 -384.5t-380 -143.5z" />
    <glyph glyph-name="uring" unicode="&#x16f;" 
d="M500 1212q-83 0 -137 54t-54 137q-1 83 52.5 136.5t138.5 53.5q83 0 135.5 -53t54.5 -137q0 -84 -53 -137.5t-137 -53.5zM498 1288q51 0 82.5 32.5t31.5 82.5t-31.5 82.5t-82.5 32.5q-48 0 -81.5 -33t-33.5 -82t33.5 -82t81.5 -33zM416 -33q-153 0 -238.5 92.5
t-85.5 257.5v717h156v-704q0 -106 57.5 -167t155.5 -61q132 0 212.5 83t80.5 221v628h155v-1034h-141l-14 141h-2q-107 -174 -336 -174z" />
    <glyph glyph-name="Uhungarumlaut" unicode="&#x170;" horiz-adv-x="1251" 
d="M512 1565l-63 41l157 260l66 -39zM793 1565l-64 41l160 260l63 -39zM627 -43q-239 0 -382 143.5t-143 384.5v959h170v-959q0 -166 97 -271t258 -105q162 0 257 102t95 276v957h170v-959q0 -241 -142 -384.5t-380 -143.5z" />
    <glyph glyph-name="uhungarumlaut" unicode="&#x171;" 
d="M375 1227l-66 41l189 303l65 -41zM655 1227l-63 41l188 303l66 -41zM416 -33q-153 0 -238.5 92.5t-85.5 257.5v717h156v-704q0 -106 57.5 -167t155.5 -61q132 0 212.5 83t80.5 221v628h155v-1034h-141l-14 141h-2q-107 -174 -336 -174z" />
    <glyph glyph-name="Uogonek" unicode="&#x172;" horiz-adv-x="1251" 
d="M979 1444h170v-959q0 -184 -86 -314t-238 -183q-159 -66 -230.5 -117t-70.5 -123q0 -42 25 -66t69 -24q34 0 73 22t69 60l53 -53q-38 -49 -92.5 -78t-106.5 -29q-75 0 -121.5 43.5t-48.5 114.5q-3 129 152 219q-226 11 -360 153t-134 375v959h170v-959q0 -166 97 -271
t258 -105q162 0 257 102t95 276v957z" />
    <glyph glyph-name="uogonek" unicode="&#x173;" 
d="M909 0q-71 -29 -113 -47.5t-89 -44t-71 -48t-40.5 -51t-15.5 -61.5q0 -42 25 -66t69 -24q34 0 72.5 22t68.5 60l53 -53q-38 -49 -92 -78t-106 -29q-75 0 -121.5 43.5t-48.5 114.5q-3 89 64 153.5t202 124.5l-12 125h-2q-107 -174 -336 -174q-153 0 -238.5 92.5
t-85.5 257.5v717h156v-704q0 -106 57.5 -167t155.5 -61q132 0 212.5 83t80.5 221v628h155v-1034z" />
    <glyph glyph-name="Wcircumflex" unicode="&#x174;" horiz-adv-x="1826" 
d="M702 1599l-57 52l213 229h109l215 -229l-58 -52l-211 224zM383 0l-363 1444h177l309 -1270h4l283 1270h243l285 -1270h4l305 1270h176l-362 -1444h-246l-280 1253h-5l-286 -1253h-244z" />
    <glyph glyph-name="wcircumflex" unicode="&#x175;" horiz-adv-x="1517" 
d="M514 1210l-57 52l252 270h106l254 -270l-57 -52l-250 265zM319 0l-299 1034h162l238 -872h2l233 872h207l240 -874h2l233 874h160l-293 -1034h-207l-237 879h-2l-230 -879h-209z" />
    <glyph glyph-name="Ycircumflex" unicode="&#x176;" horiz-adv-x="1132" 
d="M354 1599l-57 52l213 229h108l216 -229l-58 -52l-211 224zM483 0v537l-463 907h185l362 -729h2l355 729h188l-459 -907v-537h-170z" />
    <glyph glyph-name="ycircumflex" unicode="&#x177;" horiz-adv-x="1005" 
d="M254 1210l-57 52l252 270h106l254 -270l-57 -52l-250 265zM432 -465q-163 0 -285.5 70t-179.5 194l129 95q45 -101 133 -159.5t203 -58.5q147 0 231.5 88.5t84.5 243.5v88h-3q-44 -79 -124 -125.5t-172 -46.5q-166 0 -264.5 109.5t-98.5 290.5v710h156v-710
q0 -118 62 -188t169 -70q118 0 195 78t77 204v686h158v-1026q0 -222 -125.5 -347.5t-345.5 -125.5z" />
    <glyph glyph-name="Ydieresis" unicode="&#x178;" horiz-adv-x="1132" 
d="M344 1645q-51 0 -83 31t-32 81t32 81.5t83 31.5t84 -32t33 -81t-33 -80.5t-84 -31.5zM788 1645q-50 0 -81 31.5t-31 80.5q0 50 31.5 81.5t80.5 31.5q51 0 83 -31.5t32 -81.5t-32 -81t-83 -31zM483 0v537l-463 907h185l362 -729h2l355 729h188l-459 -907v-537h-170z" />
    <glyph glyph-name="Zacute" unicode="&#x179;" horiz-adv-x="1050" 
d="M561 1595l-63 41l157 260l66 -38zM20 0v160l807 1140h-786v144h969v-160l-805 -1143h825v-141h-1010z" />
    <glyph glyph-name="zacute" unicode="&#x17a;" horiz-adv-x="884" 
d="M467 1227l-66 41l189 303l65 -41zM41 0v170l618 721h-598v143h762v-170l-618 -723h639v-141h-803z" />
    <glyph glyph-name="Zdotaccent" unicode="&#x17b;" horiz-adv-x="1050" 
d="M539 1645q-51 0 -83 31.5t-32 82.5q0 50 32 81.5t83 31.5t82.5 -31.5t31.5 -81.5q0 -51 -31.5 -82.5t-82.5 -31.5zM20 0v160l807 1140h-786v144h969v-160l-805 -1143h825v-141h-1010z" />
    <glyph glyph-name="zdotaccent" unicode="&#x17c;" horiz-adv-x="884" 
d="M446 1235q-51 0 -82.5 32t-31.5 83q0 50 31.5 81t82.5 31q50 0 82.5 -31.5t32.5 -80.5q0 -51 -32.5 -83t-82.5 -32zM41 0v170l618 721h-598v143h762v-170l-618 -723h639v-141h-803z" />
    <glyph glyph-name="Zcaron" unicode="&#x17d;" horiz-adv-x="1050" 
d="M481 1618l-213 229l58 51l211 -223l211 223l57 -51l-215 -229h-109zM20 0v160l807 1140h-786v144h969v-160l-805 -1143h825v-141h-1010z" />
    <glyph glyph-name="zcaron" unicode="&#x17e;" horiz-adv-x="884" 
d="M393 1233l-252 270l58 51l247 -264l250 264l58 -51l-254 -270h-107zM41 0v170l618 721h-598v143h762v-170l-618 -723h639v-141h-803z" />
    <glyph glyph-name="AEacute" unicode="&#x1fc;" horiz-adv-x="1671" 
d="M850 1595l-64 41l158 260l66 -38zM-4 0l735 1444h868v-154h-614v-485h533v-143h-533v-510h635v-152h-801v293h-487l-146 -293h-190zM397 438h422v836h-2z" />
    <glyph glyph-name="aeacute" unicode="&#x1fd;" horiz-adv-x="1675" 
d="M868 1227l-65 41l188 303l66 -41zM406 -35q-158 0 -261.5 83.5t-103.5 215.5q0 130 102 219t293 113l232 29q34 3 55.5 28t21.5 64q0 97 -67.5 153t-171.5 56q-125 0 -204.5 -69t-82.5 -163l-139 60q9 130 123.5 222.5t283.5 92.5q122 0 218 -55t139 -156q53 99 143 155
t199 56q182 0 293.5 -148t111.5 -393q0 -42 -2 -65h-676q17 -161 103.5 -259t212.5 -98q90 0 158.5 55t105.5 156l135 -59q-51 -140 -155.5 -216.5t-241.5 -76.5q-142 0 -247.5 80.5t-143.5 216.5q-41 -139 -158 -218t-276 -79zM915 600h512q-5 148 -74 237t-179 89
q-105 0 -176 -89.5t-83 -236.5zM432 106q140 0 228 90t88 234v72l-306 -37q-111 -14 -178 -65.5t-67 -125.5q0 -75 65.5 -121.5t169.5 -46.5z" />
    <glyph glyph-name="Oslashacute" unicode="&#x1fe;" horiz-adv-x="1519" 
d="M905 1858l-160 -263l-63 41l158 260zM1014 1444q204 -74 319 -263.5t115 -457.5q0 -348 -188 -557t-500 -209q-90 0 -170 18l-74 -256l-74 19l74 258q-207 73 -325.5 263.5t-118.5 461.5q0 349 187.5 557.5t500.5 208.5q94 0 180 -21l59 209l76 -22zM242 721
q0 -212 84 -363t233 -213l338 1174q-69 16 -137 16q-235 0 -376.5 -167.5t-141.5 -446.5zM760 109q235 0 375.5 167t140.5 445q0 209 -80.5 358t-224.5 213l-338 -1169q55 -14 127 -14z" />
    <glyph glyph-name="oslashacute" unicode="&#x1ff;" horiz-adv-x="1101" 
d="M657 1530l-188 -303l-66 41l189 303zM745 1032q139 -56 217 -190.5t78 -323.5q0 -252 -133 -402.5t-356 -150.5q-53 0 -111 10l-135 -467l-74 21l136 469q-144 54 -225 190.5t-81 329.5q0 250 133.5 400.5t356.5 150.5q63 0 119 -12l116 409l78 -22zM217 518
q0 -136 50 -235t139 -144l223 779q-33 8 -78 8q-152 0 -243 -111t-91 -297zM551 106q152 0 243 112t91 300q0 133 -47.5 229.5t-132.5 141.5l-226 -776q40 -7 72 -7z" />
    <glyph glyph-name="uni0218" unicode="&#x218;" horiz-adv-x="1144" 
d="M606 -43q-242 0 -397.5 139t-167.5 363l168 33q6 -171 118.5 -277t282.5 -106q146 0 234 74.5t88 187.5q0 91 -62 152t-198 102l-223 67q-174 54 -255 145.5t-81 233.5q0 183 120 299.5t324 116.5q197 0 322.5 -116t140.5 -306l-164 -39q-6 139 -88.5 224t-208.5 85
q-125 0 -200.5 -69.5t-75.5 -175.5q0 -91 54.5 -148t176.5 -94l223 -68q187 -56 276.5 -150.5t90.5 -242.5q0 -187 -135 -308.5t-363 -121.5zM481 -496l15 70q62 -12 98 13t29 77q-50 -15 -94 15t-44 79q0 38 27.5 63t67.5 25q54 0 87 -47t33 -125q0 -102 -60 -145.5
t-159 -24.5z" />
    <glyph glyph-name="uni0219" unicode="&#x219;" horiz-adv-x="923" 
d="M481 -35q-184 0 -308.5 100t-131.5 263l152 34q6 -119 86.5 -187.5t205.5 -68.5q106 0 176 46.5t70 121.5q0 56 -50 95.5t-159 70.5l-151 41q-143 42 -208.5 109.5t-64.5 175.5q0 132 97.5 217.5t248.5 85.5q150 0 253 -83.5t118 -217.5l-149 -39q-7 93 -69 147t-155 54
q-83 0 -136.5 -44t-55.5 -110q-1 -55 43 -94t141 -68l152 -41q156 -46 226.5 -113.5t70.5 -172.5q0 -139 -114.5 -230.5t-287.5 -91.5zM373 -496l14 70q62 -12 98 13t29 77q-50 -15 -93.5 15t-43.5 79q0 38 27 63t67 25q54 0 87.5 -47t33.5 -125q0 -102 -60 -145.5
t-159 -24.5z" />
    <glyph glyph-name="uni021A" unicode="&#x21a;" horiz-adv-x="1054" 
d="M442 0v1292h-422v152h1014v-152h-422v-1292h-170zM424 -496l14 70q62 -12 98 13t29 77q-50 -15 -93.5 15t-43.5 79q0 38 27 63t67 25q54 0 87.5 -47t33.5 -125q0 -102 -60 -145.5t-159 -24.5z" />
    <glyph glyph-name="uni021B" unicode="&#x21b;" horiz-adv-x="806" 
d="M492 -35q-132 0 -211.5 80.5t-79.5 214.5v645h-201v129h201v299l155 37v-336h387v-129h-387l2 -624q0 -81 38.5 -131t107.5 -50t114.5 51.5t51.5 147.5l133 -55q-10 -127 -96.5 -203t-214.5 -76zM377 -496l14 70q62 -12 98 13t29 77q-50 -15 -93.5 15t-43.5 79
q0 38 27 63t67 25q54 0 87.5 -47t33.5 -125q0 -102 -60 -145.5t-159 -24.5z" />
    <glyph glyph-name="uni0237" unicode="&#x237;" horiz-adv-x="372" 
d="M-14 -465q-88 0 -146 31l21 131q50 -23 104 -23q69 0 108.5 42.5t39.5 117.5v1200h155v-1216q0 -132 -75 -207.5t-207 -75.5z" />
    <glyph glyph-name="circumflex" unicode="&#x2c6;" horiz-adv-x="694" 
d="M98 1210l-57 52l252 270h106l254 -270l-57 -52l-250 265z" />
    <glyph glyph-name="caron" unicode="&#x2c7;" horiz-adv-x="694" 
d="M293 1233l-252 270l57 51l248 -264l250 264l57 -51l-254 -270h-106z" />
    <glyph glyph-name="breve" unicode="&#x2d8;" horiz-adv-x="653" 
d="M328 1212q-126 0 -206.5 90t-80.5 230h78q0 -105 58.5 -173.5t148.5 -68.5q92 0 151.5 68t59.5 174h75q1 -139 -79 -229.5t-205 -90.5z" />
    <glyph glyph-name="dotaccent" unicode="&#x2d9;" horiz-adv-x="311" 
d="M156 1235q-51 0 -83 32t-32 83q0 50 32 81t83 31q50 0 82 -31.5t32 -80.5q0 -51 -32 -83t-82 -32z" />
    <glyph glyph-name="ring" unicode="&#x2da;" horiz-adv-x="462" 
d="M231 1212q-83 0 -136.5 54t-53.5 137q-1 83 52 136.5t138 53.5q83 0 136 -53t55 -137q0 -84 -53.5 -137.5t-137.5 -53.5zM229 1288q51 0 83 32.5t32 82.5t-32 82.5t-83 32.5q-48 0 -81 -33t-33 -82t33 -82t81 -33z" />
    <glyph glyph-name="ogonek" unicode="&#x2db;" horiz-adv-x="477" 
d="M197 -420q-75 0 -121.5 43.5t-48.5 114.5q-1 55 23.5 101t77.5 84.5t117 69.5t158 66l33 -59q-72 -29 -113.5 -47.5t-89 -44t-71.5 -48t-40.5 -51t-15.5 -61.5q0 -41 25.5 -65.5t69.5 -24.5q34 0 72.5 22t68.5 60l53 -53q-38 -49 -92 -78t-106 -29z" />
    <glyph glyph-name="tilde" unicode="&#x2dc;" horiz-adv-x="700" 
d="M485 1208q-27 0 -50.5 9t-44 28t-33.5 34.5t-31 41.5q-3 4 -11 15.5t-11 16t-10 14t-11 14t-10.5 12t-11 11t-11 8.5t-12 7.5t-12 4t-13.5 1.5q-42 0 -69 -55.5t-27 -140.5h-76q0 121 47 196.5t127 75.5q51 0 86.5 -30.5t73.5 -86.5q18 -28 25.5 -38.5t23 -29t29.5 -25.5
t30 -7q43 0 71 56.5t28 142.5h77q0 -121 -47.5 -198t-126.5 -77z" />
    <glyph glyph-name="hungarumlaut" unicode="&#x2dd;" horiz-adv-x="618" 
d="M106 1227l-65 41l188 303l66 -41zM387 1227l-63 41l188 303l66 -41z" />
    <glyph glyph-name="Wgrave" unicode="&#x1e80;" horiz-adv-x="1826" 
d="M907 1595l-159 263l65 38l158 -260zM383 0l-363 1444h177l309 -1270h4l283 1270h243l285 -1270h4l305 1270h176l-362 -1444h-246l-280 1253h-5l-286 -1253h-244z" />
    <glyph glyph-name="wgrave" unicode="&#x1e81;" horiz-adv-x="1517" 
d="M752 1227l-191 303l66 41l188 -303zM319 0l-299 1034h162l238 -872h2l233 872h207l240 -874h2l233 874h160l-293 -1034h-207l-237 879h-2l-230 -879h-209z" />
    <glyph glyph-name="Wacute" unicode="&#x1e82;" horiz-adv-x="1826" 
d="M938 1595l-64 41l158 260l66 -38zM383 0l-363 1444h177l309 -1270h4l283 1270h243l285 -1270h4l305 1270h176l-362 -1444h-246l-280 1253h-5l-286 -1253h-244z" />
    <glyph glyph-name="wacute" unicode="&#x1e83;" horiz-adv-x="1517" 
d="M780 1227l-65 41l188 303l66 -41zM319 0l-299 1034h162l238 -872h2l233 872h207l240 -874h2l233 874h160l-293 -1034h-207l-237 879h-2l-230 -879h-209z" />
    <glyph glyph-name="Wdieresis" unicode="&#x1e84;" horiz-adv-x="1826" 
d="M692 1645q-51 0 -82.5 31t-31.5 81t31.5 81.5t82.5 31.5t84 -32t33 -81t-33 -80.5t-84 -31.5zM1137 1645q-50 0 -81.5 31.5t-31.5 80.5t32 81t81 32q51 0 82.5 -31.5t31.5 -81.5t-31.5 -81t-82.5 -31zM383 0l-363 1444h177l309 -1270h4l283 1270h243l285 -1270h4
l305 1270h176l-362 -1444h-246l-280 1253h-5l-286 -1253h-244z" />
    <glyph glyph-name="wdieresis" unicode="&#x1e85;" horiz-adv-x="1517" 
d="M549 1237q-51 0 -83 32.5t-32 82.5q0 49 32 79.5t83 30.5t83 -30.5t32 -79.5q0 -50 -32 -82.5t-83 -32.5zM967 1237q-51 0 -83 32.5t-32 82.5q0 49 32 79.5t83 30.5t82.5 -30.5t31.5 -79.5q0 -50 -31.5 -82.5t-82.5 -32.5zM319 0l-299 1034h162l238 -872h2l233 872h207
l240 -874h2l233 874h160l-293 -1034h-207l-237 879h-2l-230 -879h-209z" />
    <glyph glyph-name="uni1E9E" unicode="&#x1e9e;" horiz-adv-x="1107" 
d="M834 590q111 -68 162 -145.5t51 -180.5q0 -131 -88.5 -210t-229.5 -79q-160 0 -255 103t-95 274l147 35q0 -128 56 -204.5t155 -76.5q66 0 110 40t44 106q0 56 -37.5 105t-120.5 102l-131 80q-92 56 -134 114t-42 133q0 98 83.5 167t240.5 96q10 34 10 81
q0 98 -55.5 150.5t-151.5 52.5q-123 0 -202 -84.5t-79 -222.5v-1026h-170v1040q0 200 126.5 322.5t328.5 122.5q163 0 267 -91.5t104 -252.5q0 -124 -37 -199q-301 -30 -301 -145q0 -32 25.5 -61.5t82.5 -63.5z" />
    <glyph glyph-name="Ygrave" unicode="&#x1ef2;" horiz-adv-x="1132" 
d="M559 1595l-160 263l66 38l158 -260zM483 0v537l-463 907h185l362 -729h2l355 729h188l-459 -907v-537h-170z" />
    <glyph glyph-name="ygrave" unicode="&#x1ef3;" horiz-adv-x="1005" 
d="M494 1227l-191 303l66 41l188 -303zM432 -465q-163 0 -285.5 70t-179.5 194l129 95q45 -101 133 -159.5t203 -58.5q147 0 231.5 88.5t84.5 243.5v88h-3q-44 -79 -124 -125.5t-172 -46.5q-166 0 -264.5 109.5t-98.5 290.5v710h156v-710q0 -118 62 -188t169 -70
q118 0 195 78t77 204v686h158v-1026q0 -222 -125.5 -347.5t-345.5 -125.5z" />
    <glyph glyph-name="endash" unicode="&#x2013;" horiz-adv-x="1191" 
d="M102 514v76h988v-76h-988z" />
    <glyph glyph-name="emdash" unicode="&#x2014;" horiz-adv-x="1841" 
d="M102 514v76h1637v-76h-1637z" />
    <glyph glyph-name="quoteleft" unicode="&#x2018;" horiz-adv-x="446" 
d="M365 1477l-23 -72q-76 23 -131.5 -35t-50.5 -151q65 24 113 -9.5t46 -91.5q0 -49 -31 -79.5t-79 -30.5q-58 0 -92.5 49t-34.5 147q0 149 80 226.5t203 46.5z" />
    <glyph glyph-name="quoteright" unicode="&#x2019;" horiz-adv-x="446" 
d="M82 1016l22 69q76 -22 132 36.5t51 152.5q-65 -25 -113.5 8t-46.5 92q0 47 32 79t79 32q58 0 92.5 -50t34.5 -147q0 -150 -80 -227t-203 -45z" />
    <glyph glyph-name="quotesinglbase" unicode="&#x201a;" horiz-adv-x="446" 
d="M82 -270l22 71q76 -23 132 35.5t51 151.5q-65 -24 -113.5 9t-46.5 91q0 49 31.5 80t79.5 31q58 0 92.5 -49.5t34.5 -147.5q0 -149 -80 -226t-203 -46z" />
    <glyph glyph-name="quotedblleft" unicode="&#x201c;" horiz-adv-x="768" 
d="M365 1477l-23 -72q-76 23 -131.5 -35t-50.5 -151q65 24 113 -9.5t46 -91.5q0 -49 -31 -79.5t-79 -30.5q-58 0 -92.5 49t-34.5 147q0 149 80 226.5t203 46.5zM686 1477l-20 -72q-77 23 -133.5 -35t-51.5 -151q65 24 113.5 -9.5t46.5 -91.5q0 -49 -30.5 -79.5t-80.5 -30.5
q-58 0 -92.5 49t-34.5 147q0 149 80 226.5t203 46.5z" />
    <glyph glyph-name="quotedblright" unicode="&#x201d;" horiz-adv-x="768" 
d="M82 1016l22 69q76 -22 132 36.5t51 152.5q-65 -25 -113.5 8t-46.5 92q0 47 32 79t79 32q58 0 92.5 -50t34.5 -147q0 -150 -80 -227t-203 -45zM403 1016l23 69q78 -22 133 36.5t49 152.5q-64 -25 -111.5 8t-47.5 92q0 47 31.5 79t78.5 32q59 0 93 -50t34 -147
q0 -150 -80 -227t-203 -45z" />
    <glyph glyph-name="quotedblbase" unicode="&#x201e;" horiz-adv-x="768" 
d="M82 -270l22 71q76 -23 132 35.5t51 151.5q-65 -24 -113.5 9t-46.5 91q0 49 31.5 80t79.5 31q58 0 92.5 -49.5t34.5 -147.5q0 -149 -80 -226t-203 -46zM403 -270l23 71q77 -23 132.5 35.5t49.5 151.5q-64 -24 -111.5 9t-47.5 91q0 49 31 80t79 31q59 0 93 -49.5t34 -147.5
q0 -149 -80 -226t-203 -46z" />
    <glyph glyph-name="bullet" unicode="&#x2022;" horiz-adv-x="559" 
d="M281 442q-88 0 -143.5 54t-55.5 139t55.5 138.5t143.5 53.5q86 0 141 -53.5t55 -138.5t-55 -139t-141 -54z" />
    <glyph glyph-name="ellipsis" unicode="&#x2026;" horiz-adv-x="1085" 
d="M197 -25q-51 0 -83 32t-32 83q0 50 32 81.5t83 31.5t83.5 -31.5t32.5 -81.5q0 -51 -32.5 -83t-83.5 -32zM541 -25q-51 0 -83 32t-32 83q0 50 32 81.5t83 31.5t83.5 -31.5t32.5 -81.5q0 -51 -32.5 -83t-83.5 -32zM887 -25q-51 0 -83 32t-32 83q0 50 32 81.5t83 31.5
t84 -32t33 -81q0 -51 -33 -83t-84 -32z" />
    <glyph glyph-name="perthousand" unicode="&#x2030;" horiz-adv-x="2990" 
d="M504 -20l-64 45l1057 1501l66 -45zM471 690q-179 0 -295 115.5t-115 292.5q0 179 116 295t294 116q179 0 294.5 -115.5t115.5 -295.5q0 -178 -115.5 -293t-294.5 -115zM473 831q115 0 189.5 75.5t74.5 191.5q0 117 -74.5 193.5t-189.5 76.5q-118 0 -194 -76.5t-76 -193.5
q0 -116 76.5 -191.5t193.5 -75.5zM1513 -27q-178 0 -293.5 115.5t-115.5 292.5q1 180 116.5 296t292.5 116q179 0 294.5 -116t115.5 -296q0 -178 -115.5 -293t-294.5 -115zM2519 -27q-178 0 -294 115.5t-116 292.5q0 179 116.5 295.5t293.5 116.5q179 0 294.5 -116
t115.5 -296q0 -178 -115.5 -293t-294.5 -115zM1516 115q116 0 191 75.5t75 190.5q0 117 -75.5 193.5t-190.5 76.5q-118 0 -194.5 -76.5t-76.5 -193.5q0 -115 77 -190.5t194 -75.5zM2521 115q117 0 191.5 75t74.5 191q0 117 -74.5 193.5t-191.5 76.5q-118 0 -194 -76.5
t-76 -193.5q0 -115 76.5 -190.5t193.5 -75.5z" />
    <glyph glyph-name="guilsinglleft" unicode="&#x2039;" horiz-adv-x="565" 
d="M440 -20l-379 536l379 539l64 -45l-344 -494l344 -493z" />
    <glyph glyph-name="guilsinglright" unicode="&#x203a;" horiz-adv-x="565" 
d="M125 -20l-62 43l343 493l-345 494l64 45l379 -539z" />
    <glyph glyph-name="lira" unicode="&#x20a4;" horiz-adv-x="1050" 
d="M61 0v152q102 31 164 141.5t62 267.5h-209v78h209v111h-209v75h209v269q-2 179 89 287t247 108q161 0 259 -115t107 -309l-151 -27q-8 145 -62 229.5t-147 84.5q-86 0 -134.5 -70.5t-48.5 -189.5l3 -267h452v-75h-452v-111h452v-78h-457q0 -141 -60.5 -257t-158.5 -163
v-2h762v-139h-926z" />
    <glyph glyph-name="Euro" unicode="&#x20ac;" horiz-adv-x="1591" 
d="M1386 575l164 -40q-40 -267 -208.5 -422.5t-417.5 -155.5q-279 0 -453.5 165.5t-208.5 459.5h-201v77h195q-2 20 -2 62q0 51 2 76h-195v77h201q35 288 199.5 450.5t421.5 162.5q212 0 359.5 -134.5t191.5 -371.5l-164 -39q-31 185 -135 289t-256 104q-180 0 -297 -122
t-148 -339h658v-77h-666q-2 -25 -2 -76q0 -42 2 -62h666v-77h-658q31 -223 159.5 -348t330.5 -125q184 0 308.5 125t153.5 341z" />
    <glyph glyph-name="trademark" unicode="&#x2122;" horiz-adv-x="1882" 
d="M279 573v748h-259v123h652v-123h-256v-748h-137zM764 573l-2 871h192l306 -703l307 703h192v-871h-137v680l-295 -680h-131l-295 680v-680h-137z" />
    <glyph glyph-name="arrowleft" unicode="&#x2190;" horiz-adv-x="1214" 
d="M522 66l-450 469l450 469l58 -54l-363 -377h926v-77h-926l363 -375z" />
    <glyph glyph-name="arrowup" unicode="&#x2191;" horiz-adv-x="1081" 
d="M72 621l469 450l469 -450l-54 -58l-376 363v-926h-78v926l-375 -363z" />
    <glyph glyph-name="arrowright" unicode="&#x2192;" horiz-adv-x="1214" 
d="M692 66l-57 55l362 375h-925v77h925l-362 377l57 54l451 -469z" />
    <glyph glyph-name="arrowdown" unicode="&#x2193;" horiz-adv-x="1081" 
d="M72 414l55 55l375 -360v925h78v-925l376 360l54 -55l-469 -451z" />
    <glyph glyph-name="arrowboth" unicode="&#x2194;" horiz-adv-x="1886" 
d="M1364 1004l451 -469l-451 -469l-57 53l362 377h-1452l363 -375l-58 -55l-450 469l450 469l58 -54l-363 -377h1452l-362 375z" />
    <glyph glyph-name="arrowupdn" unicode="&#x2195;" horiz-adv-x="1081" 
d="M580 -158l376 361l54 -56l-469 -450l-469 450l55 56l375 -361v1350l-377 -363l-53 58l469 450l469 -450l-56 -58l-374 363v-1350z" />
    <glyph glyph-name="uni2196" unicode="&#x2196;" horiz-adv-x="991" 
d="M786 926v-80l-520 -10l654 -654l-54 -55l-655 655l-12 -524l-76 4l12 649z" />
    <glyph glyph-name="uni2197" unicode="&#x2197;" horiz-adv-x="991" 
d="M207 926l649 -15l14 -649l-77 -4l-13 524l-653 -655l-55 55l655 654l-522 10z" />
    <glyph glyph-name="uni2198" unicode="&#x2198;" horiz-adv-x="991" 
d="M868 809l-12 -649l-649 -15l-4 78l524 10l-655 656l55 55l653 -655l11 522z" />
    <glyph glyph-name="uni2199" unicode="&#x2199;" horiz-adv-x="991" 
d="M123 809l78 2l10 -522l655 655l54 -55l-654 -656l522 -10l-2 -78l-651 15z" />
    <glyph glyph-name="minus" unicode="&#x2212;" horiz-adv-x="1001" 
d="M102 686v141h797v-141h-797z" />
    <glyph glyph-name="notequal" unicode="&#x2260;" horiz-adv-x="1042" 
d="M940 852h-330l-73 -242h403v-141h-448l-154 -494l-74 21l148 473h-310v141h353l75 242h-428v141h471l142 455l76 -21l-136 -434h285v-141z" />
    <glyph glyph-name="lessequal" unicode="&#x2264;" horiz-adv-x="823" 
d="M666 436l-564 295v182l564 293l55 -137l-502 -246l502 -250zM102 233v76h619v-76h-619z" />
    <glyph glyph-name="greaterequal" unicode="&#x2265;" horiz-adv-x="823" 
d="M158 436l-56 137l502 250l-502 246l56 137l563 -293v-182zM721 233h-619v76h619v-76z" />
    <glyph glyph-name="uniF6C3" unicode="&#xf6c3;" horiz-adv-x="0" 
d="M-260 -496l14 70q62 -12 98 13t29 77q-50 -15 -93.5 15t-43.5 79q0 38 27 63t67 25q54 0 87.5 -47t33.5 -125q0 -102 -60 -145.5t-159 -24.5z" />
    <glyph glyph-name="G.alt1" horiz-adv-x="1517" 
d="M770 -43q-316 0 -507 209.5t-191 554.5q0 346 181 556t480 210q195 0 348.5 -114t212.5 -300l-161 -49q-44 141 -154 226t-248 85q-221 0 -355 -168t-134 -446q0 -275 145 -443.5t381 -168.5q220 0 360 147.5t144 388.5h-701v152h871q4 -62 4 -86q0 -342 -183.5 -548
t-492.5 -206z" />
    <glyph glyph-name="K.alt1" horiz-adv-x="1081" 
d="M123 0v1444h170v-637h2l547 637h213l-611 -696l637 -748h-221l-565 686h-2v-686h-170z" />
    <glyph glyph-name="R.alt1" horiz-adv-x="1241" 
d="M123 0v1444h557q211 0 345 -117t134 -301q0 -115 -65 -209.5t-183 -140.5v-2q88 -19 139.5 -84.5t51.5 -155.5v-434h-170v418q0 85 -50.5 141.5t-129.5 56.5h-459v-616h-170zM293 768h381q138 0 226.5 72t88.5 186q0 121 -87 193.5t-228 72.5h-381v-524z" />
    <glyph glyph-name="R.alt2" horiz-adv-x="1230" 
d="M123 0v1444h557q211 0 345 -117t134 -301q0 -139 -91 -243.5t-239 -135.5l332 -647h-190l-309 616h-369v-616h-170zM293 768h381q138 0 226.5 72t88.5 186q0 121 -87 193.5t-228 72.5h-381v-524z" />
    <glyph glyph-name="a.alt1" horiz-adv-x="987" 
d="M393 -31q-155 0 -253.5 82.5t-98.5 216.5t104 223.5t318 116.5l199 25q38 5 59.5 28t21.5 62q0 93 -70 149t-181 56q-123 0 -203.5 -74.5t-83.5 -177.5l-139 59q9 140 130 237t302 97q180 0 288.5 -101t108.5 -268v-700h-139l-17 158h-2q-52 -90 -140 -139.5t-204 -49.5z
M426 111q136 0 224.5 90.5t88.5 234.5v70l-254 -31q-149 -19 -218.5 -71.5t-69.5 -127.5t64 -120t165 -45z" />
    <glyph glyph-name="a.alt2" horiz-adv-x="1122" 
d="M518 -35q-203 0 -330 154t-127 397q0 244 126.5 398.5t328.5 154.5q111 0 202.5 -53t143.5 -148h2l15 166h141v-1034h-135l-17 170h-2q-53 -97 -144.5 -151t-203.5 -54zM543 113q146 0 235.5 113t89.5 290q0 179 -89.5 292.5t-235.5 113.5t-236 -113.5t-90 -292.5
t90 -291t236 -112z" />
    <glyph glyph-name="k.alt1" horiz-adv-x="874" 
d="M102 0v1505h156v-905h2l385 434h203l-440 -477l466 -557h-198l-416 506h-2v-506h-156z" />
    <glyph glyph-name="u.alt1" horiz-adv-x="1001" 
d="M500 -35q-186 0 -297 107t-111 288v674h156v-674q0 -117 68.5 -185.5t185.5 -68.5q116 0 184 68.5t68 185.5v674h155v-674q0 -181 -110.5 -288t-298.5 -107z" />
    <glyph glyph-name="y.alt1" horiz-adv-x="952" 
d="M268 -430l168 487l-416 977h168l320 -764h2l260 764h162l-502 -1464h-162z" />
    <glyph glyph-name="agrave.alt1" horiz-adv-x="987" 
d="M485 1227l-190 303l65 41l189 -303zM393 -31q-155 0 -253.5 82.5t-98.5 216.5t104 223.5t318 116.5l199 25q38 5 59.5 28t21.5 62q0 93 -70 149t-181 56q-123 0 -203.5 -74.5t-83.5 -177.5l-139 59q9 140 130 237t302 97q180 0 288.5 -101t108.5 -268v-700h-139l-17 158
h-2q-52 -90 -140 -139.5t-204 -49.5zM426 111q136 0 224.5 90.5t88.5 234.5v70l-254 -31q-149 -19 -218.5 -71.5t-69.5 -127.5t64 -120t165 -45z" />
    <glyph glyph-name="agrave.alt2" horiz-adv-x="1122" 
d="M535 1227l-191 303l66 41l188 -303zM518 -35q-203 0 -330 154t-127 397q0 244 126.5 398.5t328.5 154.5q111 0 202.5 -53t143.5 -148h2l15 166h141v-1034h-135l-17 170h-2q-53 -97 -144.5 -151t-203.5 -54zM543 113q146 0 235.5 113t89.5 290q0 179 -89.5 292.5
t-235.5 113.5t-236 -113.5t-90 -292.5t90 -291t236 -112z" />
    <glyph glyph-name="aacute.alt1" horiz-adv-x="987" 
d="M514 1227l-65 41l188 303l65 -41zM393 -31q-155 0 -253.5 82.5t-98.5 216.5t104 223.5t318 116.5l199 25q38 5 59.5 28t21.5 62q0 93 -70 149t-181 56q-123 0 -203.5 -74.5t-83.5 -177.5l-139 59q9 140 130 237t302 97q180 0 288.5 -101t108.5 -268v-700h-139l-17 158h-2
q-52 -90 -140 -139.5t-204 -49.5zM426 111q136 0 224.5 90.5t88.5 234.5v70l-254 -31q-149 -19 -218.5 -71.5t-69.5 -127.5t64 -120t165 -45z" />
    <glyph glyph-name="aacute.alt2" horiz-adv-x="1122" 
d="M563 1227l-65 41l188 303l66 -41zM518 -35q-203 0 -330 154t-127 397q0 244 126.5 398.5t328.5 154.5q111 0 202.5 -53t143.5 -148h2l15 166h141v-1034h-135l-17 170h-2q-53 -97 -144.5 -151t-203.5 -54zM543 113q146 0 235.5 113t89.5 290q0 179 -89.5 292.5
t-235.5 113.5t-236 -113.5t-90 -292.5t90 -291t236 -112z" />
    <glyph glyph-name="atilde.alt1" horiz-adv-x="987" 
d="M631 1208q-51 0 -86.5 29.5t-73.5 83.5q-3 4 -11 15.5t-11 16t-10 14t-11 14t-10.5 12t-11 11t-11 8.5t-12 7.5t-12 4t-13.5 1.5q-42 0 -69 -55.5t-27 -140.5h-76q0 121 47 196.5t127 75.5q51 0 86.5 -30.5t73.5 -86.5q22 -35 34 -51t33 -32.5t42 -16.5q43 0 70.5 56.5
t27.5 142.5h78q0 -121 -47.5 -198t-126.5 -77zM393 -31q-155 0 -253.5 82.5t-98.5 216.5t104 223.5t318 116.5l199 25q38 5 59.5 28t21.5 62q0 93 -70 149t-181 56q-123 0 -203.5 -74.5t-83.5 -177.5l-139 59q9 140 130 237t302 97q180 0 288.5 -101t108.5 -268v-700h-139
l-17 158h-2q-52 -90 -140 -139.5t-204 -49.5zM426 111q136 0 224.5 90.5t88.5 234.5v70l-254 -31q-149 -19 -218.5 -71.5t-69.5 -127.5t64 -120t165 -45z" />
    <glyph glyph-name="atilde.alt2" horiz-adv-x="1122" 
d="M680 1208q-51 0 -86.5 29.5t-73.5 83.5q-4 5 -12 17t-12 17.5t-11.5 15.5t-12 15t-11.5 12.5t-12.5 11.5t-12.5 8t-14 5.5t-14 1.5q-43 0 -70 -55.5t-27 -140.5h-75q0 121 47 196.5t127 75.5q27 0 50.5 -9.5t44 -28.5t33.5 -35.5t31 -43.5q22 -35 34 -51t33 -32.5
t42 -16.5q43 0 70.5 56.5t27.5 142.5h78q0 -121 -47.5 -198t-126.5 -77zM518 -35q-203 0 -330 154t-127 397q0 244 126.5 398.5t328.5 154.5q111 0 202.5 -53t143.5 -148h2l15 166h141v-1034h-135l-17 170h-2q-53 -97 -144.5 -151t-203.5 -54zM543 113q146 0 235.5 113
t89.5 290q0 179 -89.5 292.5t-235.5 113.5t-236 -113.5t-90 -292.5t90 -291t236 -112z" />
    <glyph glyph-name="adieresis.alt1" horiz-adv-x="987" 
d="M285 1237q-51 0 -83 32.5t-32 82.5q0 49 32 79.5t83 30.5t82.5 -30.5t31.5 -79.5q0 -50 -31.5 -82.5t-82.5 -32.5zM702 1237q-51 0 -82.5 32.5t-31.5 82.5q0 49 31.5 79.5t82.5 30.5t83 -30.5t32 -79.5q0 -50 -32 -82.5t-83 -32.5zM393 -31q-155 0 -253.5 82.5
t-98.5 216.5t104 223.5t318 116.5l199 25q38 5 59.5 28t21.5 62q0 93 -70 149t-181 56q-123 0 -203.5 -74.5t-83.5 -177.5l-139 59q9 140 130 237t302 97q180 0 288.5 -101t108.5 -268v-700h-139l-17 158h-2q-52 -90 -140 -139.5t-204 -49.5zM426 111q136 0 224.5 90.5
t88.5 234.5v70l-254 -31q-149 -19 -218.5 -71.5t-69.5 -127.5t64 -120t165 -45z" />
    <glyph glyph-name="adieresis.alt2" horiz-adv-x="1122" 
d="M334 1237q-51 0 -83 32.5t-32 82.5q0 49 32 79.5t83 30.5t83 -30.5t32 -79.5q0 -50 -32 -82.5t-83 -32.5zM752 1237q-51 0 -83 32.5t-32 82.5q0 49 32 79.5t83 30.5t82.5 -30.5t31.5 -79.5q0 -50 -31.5 -82.5t-82.5 -32.5zM518 -35q-203 0 -330 154t-127 397
q0 244 126.5 398.5t328.5 154.5q111 0 202.5 -53t143.5 -148h2l15 166h141v-1034h-135l-17 170h-2q-53 -97 -144.5 -151t-203.5 -54zM543 113q146 0 235.5 113t89.5 290q0 179 -89.5 292.5t-235.5 113.5t-236 -113.5t-90 -292.5t90 -291t236 -112z" />
    <glyph glyph-name="aring.alt1" horiz-adv-x="987" 
d="M494 1212q-83 0 -137 54t-54 137q-1 83 52.5 136.5t138.5 53.5q83 0 135.5 -53t54.5 -137q0 -84 -53 -137.5t-137 -53.5zM492 1288q51 0 82.5 32.5t31.5 82.5t-31.5 82.5t-82.5 32.5q-48 0 -81.5 -33t-33.5 -82t33.5 -82t81.5 -33zM393 -31q-155 0 -253.5 82.5
t-98.5 216.5t104 223.5t318 116.5l199 25q38 5 59.5 28t21.5 62q0 93 -70 149t-181 56q-123 0 -203.5 -74.5t-83.5 -177.5l-139 59q9 140 130 237t302 97q180 0 288.5 -101t108.5 -268v-700h-139l-17 158h-2q-52 -90 -140 -139.5t-204 -49.5zM426 111q136 0 224.5 90.5
t88.5 234.5v70l-254 -31q-149 -19 -218.5 -71.5t-69.5 -127.5t64 -120t165 -45z" />
    <glyph glyph-name="aring.alt2" horiz-adv-x="1122" 
d="M543 1212q-83 0 -137 54t-54 137q-1 83 52.5 136.5t138.5 53.5q83 0 135.5 -53t54.5 -137q0 -84 -53 -137.5t-137 -53.5zM541 1288q51 0 82.5 32.5t31.5 82.5t-31.5 82.5t-82.5 32.5q-48 0 -81.5 -33t-33.5 -82t33.5 -82t81.5 -33zM518 -35q-203 0 -330 154t-127 397
q0 244 126.5 398.5t328.5 154.5q111 0 202.5 -53t143.5 -148h2l15 166h141v-1034h-135l-17 170h-2q-53 -97 -144.5 -151t-203.5 -54zM543 113q146 0 235.5 113t89.5 290q0 179 -89.5 292.5t-235.5 113.5t-236 -113.5t-90 -292.5t90 -291t236 -112z" />
    <glyph glyph-name="amacron.alt1" horiz-adv-x="987" 
d="M225 1225v78h537v-78h-537zM393 -31q-155 0 -253.5 82.5t-98.5 216.5t104 223.5t318 116.5l199 25q38 5 59.5 28t21.5 62q0 93 -70 149t-181 56q-123 0 -203.5 -74.5t-83.5 -177.5l-139 59q9 140 130 237t302 97q180 0 288.5 -101t108.5 -268v-700h-139l-17 158h-2
q-52 -90 -140 -139.5t-204 -49.5zM426 111q136 0 224.5 90.5t88.5 234.5v70l-254 -31q-149 -19 -218.5 -71.5t-69.5 -127.5t64 -120t165 -45z" />
    <glyph glyph-name="amacron.alt2" horiz-adv-x="1122" 
d="M274 1225v78h537v-78h-537zM518 -35q-203 0 -330 154t-127 397q0 244 126.5 398.5t328.5 154.5q111 0 202.5 -53t143.5 -148h2l15 166h141v-1034h-135l-17 170h-2q-53 -97 -144.5 -151t-203.5 -54zM543 113q146 0 235.5 113t89.5 290q0 179 -89.5 292.5t-235.5 113.5
t-236 -113.5t-90 -292.5t90 -291t236 -112z" />
    <glyph glyph-name="abreve.alt1" horiz-adv-x="987" 
d="M496 1212q-126 0 -206.5 90t-80.5 230h78q0 -105 58.5 -173.5t148.5 -68.5q92 0 151.5 68t59.5 174h75q1 -139 -79 -229.5t-205 -90.5zM393 -31q-155 0 -253.5 82.5t-98.5 216.5t104 223.5t318 116.5l199 25q38 5 59.5 28t21.5 62q0 93 -70 149t-181 56
q-123 0 -203.5 -74.5t-83.5 -177.5l-139 59q9 140 130 237t302 97q180 0 288.5 -101t108.5 -268v-700h-139l-17 158h-2q-52 -90 -140 -139.5t-204 -49.5zM426 111q136 0 224.5 90.5t88.5 234.5v70l-254 -31q-149 -19 -218.5 -71.5t-69.5 -127.5t64 -120t165 -45z" />
    <glyph glyph-name="abreve.alt2" horiz-adv-x="1122" 
d="M545 1212q-126 0 -206.5 90t-80.5 230h78q0 -105 58.5 -173.5t148.5 -68.5q92 0 151.5 68t59.5 174h75q1 -139 -79 -229.5t-205 -90.5zM518 -35q-203 0 -330 154t-127 397q0 244 126.5 398.5t328.5 154.5q111 0 202.5 -53t143.5 -148h2l15 166h141v-1034h-135l-17 170h-2
q-53 -97 -144.5 -151t-203.5 -54zM543 113q146 0 235.5 113t89.5 290q0 179 -89.5 292.5t-235.5 113.5t-236 -113.5t-90 -292.5t90 -291t236 -112z" />
    <glyph glyph-name="aogonek.alt1" horiz-adv-x="987" 
d="M895 0q-72 -29 -113.5 -47.5t-89 -44t-71.5 -48t-40.5 -51t-15.5 -61.5q0 -42 25 -66t69 -24q34 0 73 22t69 60l53 -53q-38 -49 -92.5 -78t-106.5 -29q-75 0 -121.5 43.5t-48.5 114.5q-3 89 65 153.5t204 124.5l-15 142h-2q-52 -90 -140 -139.5t-204 -49.5
q-155 0 -253.5 82.5t-98.5 216.5t104 223.5t318 116.5l199 25q38 5 59.5 28t21.5 62q0 93 -70 149t-181 56q-123 0 -203.5 -74.5t-83.5 -177.5l-139 59q9 140 130 237t302 97q180 0 288.5 -101t108.5 -268v-700zM739 436v70l-254 -31q-149 -19 -218.5 -71.5t-69.5 -127.5
t64 -120t165 -45q136 0 224.5 90.5t88.5 234.5z" />
    <glyph glyph-name="aogonek.alt2" horiz-adv-x="1122" 
d="M1020 0q-72 -29 -113.5 -47.5t-89 -44t-71.5 -48t-40.5 -51t-15.5 -61.5q0 -42 25 -66t69 -24q34 0 73 22t69 60l53 -53q-38 -49 -92.5 -78t-106.5 -29q-75 0 -121.5 43.5t-48.5 114.5q-3 89 66 154.5t207 125.5l-15 152h-2q-53 -97 -144.5 -151t-203.5 -54
q-203 0 -330 154t-127 397q0 244 126.5 398.5t328.5 154.5q111 0 202.5 -53t143.5 -148h2l15 166h141v-1034zM543 113q146 0 235.5 113t89.5 290q0 179 -89.5 292.5t-235.5 113.5t-236 -113.5t-90 -292.5t90 -291t236 -112z" />
    <glyph glyph-name="acircumflex.alt1" horiz-adv-x="987" 
d="M248 1210l-58 52l252 270h107l254 -270l-58 -52l-249 265zM393 -31q-155 0 -253.5 82.5t-98.5 216.5t104 223.5t318 116.5l199 25q38 5 59.5 28t21.5 62q0 93 -70 149t-181 56q-123 0 -203.5 -74.5t-83.5 -177.5l-139 59q9 140 130 237t302 97q180 0 288.5 -101
t108.5 -268v-700h-139l-17 158h-2q-52 -90 -140 -139.5t-204 -49.5zM426 111q136 0 224.5 90.5t88.5 234.5v70l-254 -31q-149 -19 -218.5 -71.5t-69.5 -127.5t64 -120t165 -45z" />
    <glyph glyph-name="acircumflex.alt2" horiz-adv-x="1122" 
d="M297 1210l-57 52l252 270h106l254 -270l-57 -52l-250 265zM518 -35q-203 0 -330 154t-127 397q0 244 126.5 398.5t328.5 154.5q111 0 202.5 -53t143.5 -148h2l15 166h141v-1034h-135l-17 170h-2q-53 -97 -144.5 -151t-203.5 -54zM543 113q146 0 235.5 113t89.5 290
q0 179 -89.5 292.5t-235.5 113.5t-236 -113.5t-90 -292.5t90 -291t236 -112z" />
    <glyph glyph-name="Gcircumflex.alt1" horiz-adv-x="1517" 
d="M520 1599l-57 52l213 229h108l215 -229l-57 -52l-211 224zM770 -43q-316 0 -507 209.5t-191 554.5q0 346 181 556t480 210q195 0 348.5 -114t212.5 -300l-161 -49q-44 141 -154 226t-248 85q-221 0 -355 -168t-134 -446q0 -275 145 -443.5t381 -168.5q220 0 360 147.5
t144 388.5h-701v152h871q4 -62 4 -86q0 -342 -183.5 -548t-492.5 -206z" />
    <glyph glyph-name="Gbreve.alt1" horiz-adv-x="1517" 
d="M737 1618q-108 0 -179 74t-71 188h78q0 -80 48.5 -132t123.5 -52t123.5 52t48.5 132h78q0 -114 -70.5 -188t-179.5 -74zM770 -43q-316 0 -507 209.5t-191 554.5q0 346 181 556t480 210q195 0 348.5 -114t212.5 -300l-161 -49q-44 141 -154 226t-248 85q-221 0 -355 -168
t-134 -446q0 -275 145 -443.5t381 -168.5q220 0 360 147.5t144 388.5h-701v152h871q4 -62 4 -86q0 -342 -183.5 -548t-492.5 -206z" />
    <glyph glyph-name="Gdotaccent.alt1" horiz-adv-x="1517" 
d="M733 1645q-51 0 -83 31.5t-32 82.5q0 50 32 81.5t83 31.5t83 -31.5t32 -81.5q0 -51 -32 -82.5t-83 -31.5zM770 -43q-316 0 -507 209.5t-191 554.5q0 346 181 556t480 210q195 0 348.5 -114t212.5 -300l-161 -49q-44 141 -154 226t-248 85q-221 0 -355 -168t-134 -446
q0 -275 145 -443.5t381 -168.5q220 0 360 147.5t144 388.5h-701v152h871q4 -62 4 -86q0 -342 -183.5 -548t-492.5 -206z" />
    <glyph glyph-name="uni0122.alt1" horiz-adv-x="1517" 
d="M770 -43q-316 0 -507 209.5t-191 554.5q0 346 181 556t480 210q195 0 348.5 -114t212.5 -300l-161 -49q-44 141 -154 226t-248 85q-221 0 -355 -168t-134 -446q0 -275 145 -443.5t381 -168.5q220 0 360 147.5t144 388.5h-701v152h871q4 -62 4 -86q0 -342 -183.5 -548
t-492.5 -206zM668 -496l14 70q62 -12 98 13t29 77q-50 -15 -93.5 15t-43.5 79q0 38 27 63t67 25q54 0 87.5 -47t33.5 -125q0 -102 -60 -145.5t-159 -24.5z" />
    <glyph glyph-name="IJacute" horiz-adv-x="1337" 
d="M213 1595l-59 45l176 256l61 -45zM1149 1595l-59 45l176 256l61 -45zM123 0v1444h172v-1444h-172zM856 -39q-169 0 -273 92.5t-126 261.5l149 64q10 -127 74.5 -197.5t169.5 -70.5q101 0 157 68t56 192v1073h170v-1090q0 -188 -98.5 -290.5t-278.5 -102.5z" />
    <glyph glyph-name="ijacute" horiz-adv-x="735" 
d="M186 1229l-61 45l211 297l63 -45zM565 1229l-63 45l213 297l63 -45zM102 0v1034h156v-1034h-156zM348 -465q-89 0 -147 31l22 131q47 -23 103 -23q69 0 108 42.5t39 117.5v1200h158v-1216q0 -132 -75.5 -207.5t-207.5 -75.5z" />
    <glyph glyph-name="uni0136.alt1" horiz-adv-x="1081" 
d="M123 0v1444h170v-637h2l547 637h213l-611 -696l637 -748h-221l-565 686h-2v-686h-170zM469 -496l14 70q62 -12 98 13t29 77q-50 -15 -93.5 15t-43.5 79q0 38 27 63t67 25q54 0 87.5 -47t33.5 -125q0 -102 -60 -145.5t-159 -24.5z" />
    <glyph glyph-name="uni0137.alt1" horiz-adv-x="874" 
d="M102 0v1505h156v-905h2l385 434h203l-440 -477l466 -557h-198l-416 506h-2v-506h-156zM342 -496l14 70q62 -12 98 13t29 77q-50 -15 -93.5 15t-43.5 79q0 38 27 63t67 25q54 0 87.5 -47t33.5 -125q0 -102 -60 -145.5t-159 -24.5z" />
    <glyph glyph-name="Racute.alt1" horiz-adv-x="1241" 
d="M614 1595l-63 41l158 260l65 -38zM123 0v1444h557q211 0 345 -117t134 -301q0 -115 -65 -209.5t-183 -140.5v-2q88 -19 139.5 -84.5t51.5 -155.5v-434h-170v418q0 85 -50.5 141.5t-129.5 56.5h-459v-616h-170zM293 768h381q138 0 226.5 72t88.5 186q0 121 -87 193.5
t-228 72.5h-381v-524z" />
    <glyph glyph-name="Racute.alt2" horiz-adv-x="1230" 
d="M616 1595l-63 41l158 260l65 -38zM123 0v1444h557q211 0 345 -117t134 -301q0 -139 -91 -243.5t-239 -135.5l332 -647h-190l-309 616h-369v-616h-170zM293 768h381q138 0 226.5 72t88.5 186q0 121 -87 193.5t-228 72.5h-381v-524z" />
    <glyph glyph-name="Rcaron.alt1" horiz-adv-x="1241" 
d="M535 1618l-213 229l57 51l211 -223l211 223l57 -51l-215 -229h-108zM123 0v1444h557q211 0 345 -117t134 -301q0 -115 -65 -209.5t-183 -140.5v-2q88 -19 139.5 -84.5t51.5 -155.5v-434h-170v418q0 85 -50.5 141.5t-129.5 56.5h-459v-616h-170zM293 768h381
q138 0 226.5 72t88.5 186q0 121 -87 193.5t-228 72.5h-381v-524z" />
    <glyph glyph-name="Rcaron.alt2" horiz-adv-x="1230" 
d="M535 1618l-213 229l57 51l211 -223l211 223l57 -51l-215 -229h-108zM123 0v1444h557q211 0 345 -117t134 -301q0 -139 -91 -243.5t-239 -135.5l332 -647h-190l-309 616h-369v-616h-170zM293 768h381q138 0 226.5 72t88.5 186q0 121 -87 193.5t-228 72.5h-381v-524z" />
    <glyph glyph-name="uni0156.alt1" horiz-adv-x="1241" 
d="M123 0v1444h557q211 0 345 -117t134 -301q0 -115 -65 -209.5t-183 -140.5v-2q88 -19 139.5 -84.5t51.5 -155.5v-434h-170v418q0 85 -50.5 141.5t-129.5 56.5h-459v-616h-170zM293 768h381q138 0 226.5 72t88.5 186q0 121 -87 193.5t-228 72.5h-381v-524zM508 -496l14 70
q62 -12 98 13t29 77q-50 -15 -93.5 15t-43.5 79q0 38 27 63t67 25q54 0 87.5 -47t33.5 -125q0 -102 -60 -145.5t-159 -24.5z" />
    <glyph glyph-name="uni0156.alt2" horiz-adv-x="1230" 
d="M123 0v1444h557q211 0 345 -117t134 -301q0 -139 -91 -243.5t-239 -135.5l332 -647h-190l-309 616h-369v-616h-170zM293 768h381q138 0 226.5 72t88.5 186q0 121 -87 193.5t-228 72.5h-381v-524zM508 -496l14 70q62 -12 98 13t29 77q-50 -15 -93.5 15t-43.5 79
q0 38 27 63t67 25q54 0 87.5 -47t33.5 -125q0 -102 -60 -145.5t-159 -24.5z" />
    <glyph glyph-name="ugrave.alt1" horiz-adv-x="1001" 
d="M498 1227l-191 303l66 41l188 -303zM500 -35q-186 0 -297 107t-111 288v674h156v-674q0 -117 68.5 -185.5t185.5 -68.5q116 0 184 68.5t68 185.5v674h155v-674q0 -181 -110.5 -288t-298.5 -107z" />
    <glyph glyph-name="uacute.alt1" horiz-adv-x="1001" 
d="M526 1227l-65 41l188 303l66 -41zM500 -35q-186 0 -297 107t-111 288v674h156v-674q0 -117 68.5 -185.5t185.5 -68.5q116 0 184 68.5t68 185.5v674h155v-674q0 -181 -110.5 -288t-298.5 -107z" />
    <glyph glyph-name="ucircumflex.alt1" horiz-adv-x="1001" 
d="M260 1210l-57 52l252 270h106l254 -270l-57 -52l-250 265zM500 -35q-186 0 -297 107t-111 288v674h156v-674q0 -117 68.5 -185.5t185.5 -68.5q116 0 184 68.5t68 185.5v674h155v-674q0 -181 -110.5 -288t-298.5 -107z" />
    <glyph glyph-name="utilde.alt1" horiz-adv-x="1001" 
d="M643 1208q-51 0 -86.5 29.5t-73.5 83.5q-4 5 -12 17t-12 17.5t-11.5 15.5t-12 15t-11.5 12.5t-12.5 11.5t-12.5 8t-14 5.5t-14 1.5q-43 0 -70 -55.5t-27 -140.5h-75q0 121 47 196.5t127 75.5q27 0 50.5 -9.5t44 -28.5t33.5 -35.5t31 -43.5q22 -35 34 -51t33 -32.5
t42 -16.5q43 0 70.5 56.5t27.5 142.5h78q0 -121 -47.5 -198t-126.5 -77zM500 -35q-186 0 -297 107t-111 288v674h156v-674q0 -117 68.5 -185.5t185.5 -68.5q116 0 184 68.5t68 185.5v674h155v-674q0 -181 -110.5 -288t-298.5 -107z" />
    <glyph glyph-name="umacron.alt1" horiz-adv-x="1001" 
d="M238 1225v78h536v-78h-536zM500 -35q-186 0 -297 107t-111 288v674h156v-674q0 -117 68.5 -185.5t185.5 -68.5q116 0 184 68.5t68 185.5v674h155v-674q0 -181 -110.5 -288t-298.5 -107z" />
    <glyph glyph-name="ubreve.alt1" horiz-adv-x="1001" 
d="M508 1212q-126 0 -206.5 90t-80.5 230h78q0 -105 58.5 -173.5t148.5 -68.5q92 0 151.5 68t59.5 174h76q1 -139 -79.5 -229.5t-205.5 -90.5zM500 -35q-186 0 -297 107t-111 288v674h156v-674q0 -117 68.5 -185.5t185.5 -68.5q116 0 184 68.5t68 185.5v674h155v-674
q0 -181 -110.5 -288t-298.5 -107z" />
    <glyph glyph-name="uring.alt1" horiz-adv-x="1001" 
d="M506 1212q-83 0 -137 54t-54 137q-1 83 52.5 136.5t138.5 53.5q83 0 135.5 -53t54.5 -137q0 -84 -53 -137.5t-137 -53.5zM504 1288q51 0 82.5 32.5t31.5 82.5t-31.5 82.5t-82.5 32.5q-48 0 -81.5 -33t-33.5 -82t33.5 -82t81.5 -33zM500 -35q-186 0 -297 107t-111 288v674
h156v-674q0 -117 68.5 -185.5t185.5 -68.5q116 0 184 68.5t68 185.5v674h155v-674q0 -181 -110.5 -288t-298.5 -107z" />
    <glyph glyph-name="uhungarumlaut.alt1" horiz-adv-x="1001" 
d="M381 1227l-66 41l189 303l65 -41zM662 1227l-64 41l188 303l66 -41zM500 -35q-186 0 -297 107t-111 288v674h156v-674q0 -117 68.5 -185.5t185.5 -68.5q116 0 184 68.5t68 185.5v674h155v-674q0 -181 -110.5 -288t-298.5 -107z" />
    <glyph glyph-name="udieresis.alt1" horiz-adv-x="1001" 
d="M297 1237q-51 0 -83 32.5t-32 82.5q0 49 32 79.5t83 30.5t83 -30.5t32 -79.5q0 -50 -32 -82.5t-83 -32.5zM715 1237q-51 0 -83 32.5t-32 82.5q0 49 32 79.5t83 30.5t82.5 -30.5t31.5 -79.5q0 -50 -31.5 -82.5t-82.5 -32.5zM500 -35q-186 0 -297 107t-111 288v674h156
v-674q0 -117 68.5 -185.5t185.5 -68.5q116 0 184 68.5t68 185.5v674h155v-674q0 -181 -110.5 -288t-298.5 -107z" />
    <glyph glyph-name="uogonek.alt1" horiz-adv-x="1001" 
d="M754 1034h155v-674q0 -142 -69 -239.5t-193 -134.5q-62 -26 -101 -44t-80 -42t-63.5 -45.5t-37 -48.5t-13.5 -58q0 -42 25 -66t69 -24q34 0 73 22t69 60l53 -53q-38 -49 -92.5 -78t-106.5 -29q-75 0 -121.5 43.5t-48.5 114.5q-1 71 42 126t128 103q-162 17 -256 122
t-94 271v674h156v-674q0 -117 68.5 -185.5t185.5 -68.5q116 0 184 68.5t68 185.5v674z" />
    <glyph glyph-name="ygrave.alt1" horiz-adv-x="952" 
d="M477 1227l-190 303l65 41l189 -303zM268 -430l168 487l-416 977h168l320 -764h2l260 764h162l-502 -1464h-162z" />
    <glyph glyph-name="yacute.alt1" horiz-adv-x="952" 
d="M506 1227l-66 41l189 303l65 -41zM268 -430l168 487l-416 977h168l320 -764h2l260 764h162l-502 -1464h-162z" />
    <glyph glyph-name="ydieresis.alt1" horiz-adv-x="952" 
d="M276 1237q-51 0 -82.5 32.5t-31.5 82.5q0 49 31.5 79.5t82.5 30.5t83 -30.5t32 -79.5q0 -50 -32 -82.5t-83 -32.5zM694 1237q-51 0 -82.5 32.5t-31.5 82.5q0 49 31.5 79.5t82.5 30.5t83 -30.5t32 -79.5q0 -50 -32 -82.5t-83 -32.5zM268 -430l168 487l-416 977h168
l320 -764h2l260 764h162l-502 -1464h-162z" />
    <glyph glyph-name="ycircumflex.alt1" horiz-adv-x="952" 
d="M240 1210l-58 52l252 270h107l254 -270l-58 -52l-250 265zM268 -430l168 487l-416 977h168l320 -764h2l260 764h162l-502 -1464h-162z" />
    <glyph glyph-name="three.alt1" horiz-adv-x="1093" 
d="M561 -45q-207 0 -340 136t-139 353l156 45q5 -170 92 -276.5t227 -106.5q127 0 206 88t79 228q0 145 -80.5 235.5t-210.5 90.5q-67 0 -111 -23l-88 125l391 442h-546v152h712v-180l-348 -387q14 2 43 2q179 -2 293.5 -130t114.5 -331q0 -206 -125 -334.5t-326 -128.5z
" />
    <glyph glyph-name="colon.case" horiz-adv-x="395" 
d="M197 981q-51 0 -83 32t-32 83q0 50 32 81t83 31t83.5 -31.5t32.5 -80.5q0 -50 -32.5 -82.5t-83.5 -32.5zM197 147q-51 0 -83 32t-32 83q0 50 32 81.5t83 31.5t83.5 -31.5t32.5 -81.5q0 -51 -32.5 -83t-83.5 -32z" />
    <glyph glyph-name="semicolon.case" horiz-adv-x="446" 
d="M242 981q-51 0 -83 32t-32 83q0 50 32 81t83 31t83.5 -31.5t32.5 -80.5q0 -50 -32.5 -82.5t-83.5 -32.5zM82 -98l22 71q76 -23 132 35.5t51 151.5q-65 -24 -113.5 9t-46.5 91q0 49 31.5 80t79.5 31q58 0 92.5 -49.5t34.5 -145.5q0 -151 -80 -228t-203 -46z" />
    <glyph glyph-name="exclamdown.case" horiz-adv-x="436" 
d="M219 1468q51 0 83 -31.5t32 -82.5q0 -50 -32 -81.5t-83 -31.5t-84 32t-33 81q0 51 33 82.5t84 31.5zM268 1075l35 -688v-387h-172v387l37 688h100z" />
    <glyph glyph-name="questiondown.case" horiz-adv-x="915" 
d="M457 1468q51 0 82.5 -31.5t31.5 -82.5q0 -50 -31.5 -81.5t-82.5 -31.5t-83 31.5t-32 81.5q0 51 32 82.5t83 31.5zM541 1075q0 -104 -22.5 -182.5t-58 -127.5t-93.5 -99l-54 -54q-59 -52 -91 -107.5t-32 -131.5q0 -116 71 -191.5t177 -75.5q116 0 189.5 89.5t79.5 242.5
l159 -41q-9 -200 -129 -321t-301 -121q-180 0 -298 117t-118 299q0 116 42.5 193t125.5 145l56 53q75 62 106 130t31 183h160z" />
    <glyph glyph-name="slash.case" horiz-adv-x="632" 
d="M72 -113l-72 29l557 1636l76 -28z" />
    <glyph glyph-name="backslash.case" horiz-adv-x="632" 
d="M561 -113l-561 1637l74 28l559 -1636z" />
    <glyph glyph-name="parenleft.case" horiz-adv-x="456" 
d="M399 -246q-142 155 -233.5 423.5t-93.5 529.5q-2 265 89.5 535.5t237.5 426.5l58 -49q-138 -159 -223.5 -414t-83.5 -499q2 -239 87.5 -492.5t219.5 -409.5z" />
    <glyph glyph-name="parenright.case" horiz-adv-x="456" 
d="M59 -246l-59 51q135 156 221 410t86 492q2 244 -83.5 499t-223.5 414l59 49q145 -156 236.5 -427t89.5 -535q0 -259 -92.5 -528t-233.5 -425z" />
    <glyph glyph-name="braceleft.case" horiz-adv-x="587" 
d="M416 -246q-80 0 -129 55t-49 146v539q0 70 -35 112t-94 47l-37 2v121l37 2q59 3 94 46t35 114v530q0 91 49 146t131 55h170v-78h-170q-46 0 -74.5 -34t-28.5 -89v-544q0 -86 -43.5 -141.5t-115.5 -63.5v-4q72 -7 115.5 -63.5t43.5 -141.5v-555q0 -55 28.5 -89t74.5 -34
h170l-2 -78h-170z" />
    <glyph glyph-name="braceright.case" horiz-adv-x="587" 
d="M172 -246h-170l-2 78h170q46 0 74 34t28 89v555q0 85 44 141.5t116 63.5v4q-72 8 -116 63.5t-44 141.5v544q0 55 -28 89t-74 34h-170v78h170q82 0 131 -55t49 -146v-530q0 -71 35 -114t94 -46l37 -2v-121l-37 -2q-59 -5 -94 -47t-35 -112v-539q0 -91 -49 -146t-129 -55z
" />
    <glyph glyph-name="bracketleft.case" horiz-adv-x="454" 
d="M123 -246v1915h332v-78h-252v-1759h252v-78h-332z" />
    <glyph glyph-name="bracketright.case" horiz-adv-x="454" 
d="M332 -246h-332v78h252v1759h-252v78h332v-1915z" />
    <glyph glyph-name="hyphen.case" horiz-adv-x="856" 
d="M102 686v141h652v-141h-652z" />
    <glyph glyph-name="endash.case" horiz-adv-x="1191" 
d="M102 717v78h988v-78h-988z" />
    <glyph glyph-name="emdash.case" horiz-adv-x="1841" 
d="M102 717v78h1637v-78h-1637z" />
    <glyph glyph-name="guillemotleft.case" horiz-adv-x="901" 
d="M440 184l-379 537l379 539l64 -46l-344 -493l344 -494zM774 184l-379 537l379 539l66 -46l-346 -493l344 -494z" />
    <glyph glyph-name="guillemotright.case" horiz-adv-x="901" 
d="M127 1260l379 -537l-379 -539l-66 45l347 494l-345 494zM461 1260l379 -537l-379 -539l-64 45l344 494l-344 494z" />
    <glyph glyph-name="guilsinglleft.case" horiz-adv-x="565" 
d="M440 184l-379 537l379 539l64 -46l-344 -493l344 -494z" />
    <glyph glyph-name="guilsinglright.case" horiz-adv-x="567" 
d="M125 1260l379 -537l-379 -539l-64 45l345 494l-345 494z" />
    <glyph glyph-name="at.case" horiz-adv-x="1687" 
d="M846 -125q-350 0 -562 228.5t-212 609.5q0 256 96.5 451.5t274 302t409.5 106.5q228 0 400.5 -99.5t268 -289.5t95.5 -447q0 -264 -85 -399t-224 -135q-82 0 -136 40.5t-71 121.5l-2 26h-2q-51 -91 -139 -139.5t-205 -48.5q-155 0 -254 84.5t-99 218.5q0 132 102.5 221
t311.5 117l207 26q38 5 60 28t22 60q0 95 -73.5 150t-180.5 55q-122 0 -203 -73t-84 -175l-139 60q8 138 130 235t302 97t289.5 -100t109.5 -269v-518q0 -123 99 -123q70 0 128 115.5t58 322.5q0 355 -186.5 557.5t-497.5 202.5q-212 0 -371.5 -96.5t-246 -274t-86.5 -411.5
q0 -347 192 -554.5t510 -207.5q217 0 379 112l41 -65q-180 -123 -426 -123zM784 348q136 0 225 91t89 235v69l-254 -30q-150 -19 -219.5 -72t-69.5 -129q0 -74 64 -119t165 -45z" />
    <glyph glyph-name="acute.case" horiz-adv-x="305" 
d="M104 1595l-63 41l158 260l65 -38z" />
    <glyph glyph-name="breve.case" horiz-adv-x="581" 
d="M291 1618q-108 0 -179 74t-71 188h78q0 -80 48.5 -132t123.5 -52t123.5 52t48.5 132h78q0 -114 -70.5 -188t-179.5 -74z" />
    <glyph glyph-name="caron.case" horiz-adv-x="618" 
d="M254 1618l-213 229l57 51l211 -223l211 223l58 -51l-216 -229h-108z" />
    <glyph glyph-name="caron.alt1" horiz-adv-x="307" 
d="M47 1139l14 67q62 -12 98 13.5t29 78.5q-49 -17 -93 13t-44 80q0 38 27 64t67 26q54 0 87.5 -47t33.5 -125q0 -103 -60 -147t-159 -23z" />
    <glyph glyph-name="circumflex.case" horiz-adv-x="618" 
d="M98 1599l-57 52l213 229h108l216 -229l-58 -52l-211 224z" />
    <glyph glyph-name="dieresis.case" horiz-adv-x="755" 
d="M156 1645q-51 0 -83 31t-32 81t32 81.5t83 31.5t83.5 -31.5t32.5 -81.5q0 -49 -32.5 -80.5t-83.5 -31.5zM600 1645q-50 0 -81.5 31.5t-31.5 80.5t31.5 81t81.5 32q51 0 83 -31.5t32 -81.5t-32 -81t-83 -31z" />
    <glyph glyph-name="dotaccent.case" horiz-adv-x="311" 
d="M156 1645q-51 0 -83 31.5t-32 82.5q0 50 32 81.5t83 31.5t82.5 -31.5t31.5 -81.5q0 -51 -31.5 -82.5t-82.5 -31.5z" />
    <glyph glyph-name="grave.case" horiz-adv-x="305" 
d="M201 1595l-160 263l65 38l158 -260z" />
    <glyph glyph-name="hungarumlaut.case" horiz-adv-x="585" 
d="M104 1595l-63 41l158 260l65 -38zM385 1595l-63 41l159 260l64 -38z" />
    <glyph glyph-name="ring.case" horiz-adv-x="462" 
d="M231 1602q-83 0 -136.5 53.5t-53.5 136.5q-1 83 52 136.5t138 53.5q83 0 136 -53t55 -137q0 -84 -53 -137t-138 -53zM229 1677q51 0 83 32.5t32 82.5t-32 82.5t-83 32.5q-48 0 -81 -33t-33 -82t33 -82t81 -33z" />
    <glyph glyph-name="tilde.case" horiz-adv-x="700" 
d="M485 1597q-29 0 -53 9.5t-47.5 33t-34 36.5t-33.5 46q-5 7 -8 11q-20 29 -31 43t-29 26.5t-36 12.5q-42 0 -69 -56t-27 -141h-76q0 121 47 196.5t127 75.5q28 0 52 -9.5t46 -32.5t32.5 -36.5t33.5 -46.5q2 -3 7 -10q20 -28 30.5 -42t29 -27t37.5 -13q43 0 71 56.5
t28 142.5h77q0 -121 -47.5 -198t-126.5 -77z" />
    <glyph glyph-name="arrowup.case" horiz-adv-x="1081" 
d="M72 809l469 451l469 -451l-54 -55l-376 360v-926h-78v926l-375 -360z" />
    <glyph glyph-name="uni2197.case" horiz-adv-x="991" 
d="M207 1114l649 -14l14 -649l-77 -2l-13 522l-653 -656l-55 56l655 655l-522 10z" />
    <glyph glyph-name="arrowright.case" horiz-adv-x="1214" 
d="M692 270l-57 56l362 374h-925v78h925l-362 377l57 53l451 -469z" />
    <glyph glyph-name="uni2198.case" horiz-adv-x="991" 
d="M868 997l-12 -649l-649 -14l-4 78l524 10l-655 655l55 56l653 -656l11 522z" />
    <glyph glyph-name="arrowdown.case" horiz-adv-x="1081" 
d="M72 608l55 58l375 -363v926h78v-926l376 363l54 -58l-469 -450z" />
    <glyph glyph-name="uni2199.case" horiz-adv-x="991" 
d="M123 1014l78 2l10 -522l655 655l54 -55l-654 -656l522 -10l-2 -78l-651 15z" />
    <glyph glyph-name="arrowleft.case" horiz-adv-x="1214" 
d="M522 270l-450 469l450 469l58 -53l-363 -377h926v-78h-926l363 -374z" />
    <glyph glyph-name="uni2196.case" horiz-adv-x="991" 
d="M786 1130v-79l-520 -11l654 -653l-54 -55l-655 655l-12 -524l-76 4l12 649z" />
    <glyph glyph-name="arrowboth.case" horiz-adv-x="1886" 
d="M1364 1208l451 -469l-451 -469l-57 54l362 376h-1452l363 -374l-58 -56l-450 469l450 469l58 -53l-363 -377h1452l-362 375z" />
    <glyph glyph-name="arrowupdn.case" horiz-adv-x="1081" 
d="M580 47l376 361l54 -56l-469 -450l-469 450l55 56l375 -361v1350l-377 -363l-53 58l469 450l469 -450l-56 -58l-374 363v-1350z" />
    </font>
</defs>
</svg>
